<mxfile host="app.diagrams.net" modified="2023-11-11T01:02:59.156Z" agent="Mozilla/5.0 (Windows NT 10.0; Win64; x64) AppleWebKit/537.36 (KHTML, like Gecko) Chrome/119.0.0.0 Safari/537.36" etag="IDiK8lDrmBL38CnE-lbP" version="22.1.0" type="device" pages="2">
  <diagram name="Entity diagram" id="X36zET8kX-uvo-_aGSRt">
    <mxGraphModel dx="1114" dy="570" grid="1" gridSize="1" guides="1" tooltips="1" connect="1" arrows="0" fold="1" page="1" pageScale="1" pageWidth="2336" pageHeight="1654" math="0" shadow="0">
      <root>
        <mxCell id="0" />
        <mxCell id="1" parent="0" />
        <mxCell id="2k7X5Uf9YQwkx91Mu9RI-59" style="edgeStyle=orthogonalEdgeStyle;rounded=0;orthogonalLoop=1;jettySize=auto;html=1;exitX=0.75;exitY=0;exitDx=0;exitDy=0;entryX=0.5;entryY=0;entryDx=0;entryDy=0;endArrow=none;endFill=0;" parent="1" source="AQozllkcELvnVLrpr3lW-1" target="2k7X5Uf9YQwkx91Mu9RI-46" edge="1">
          <mxGeometry relative="1" as="geometry" />
        </mxCell>
        <mxCell id="AQozllkcELvnVLrpr3lW-1" value="User" style="shape=table;startSize=30;container=1;collapsible=1;childLayout=tableLayout;fixedRows=1;rowLines=0;fontStyle=1;align=center;resizeLast=1;html=1;" parent="1" vertex="1">
          <mxGeometry x="756" y="396" width="180" height="270" as="geometry" />
        </mxCell>
        <mxCell id="AQozllkcELvnVLrpr3lW-2" value="" style="shape=tableRow;horizontal=0;startSize=0;swimlaneHead=0;swimlaneBody=0;fillColor=none;collapsible=0;dropTarget=0;points=[[0,0.5],[1,0.5]];portConstraint=eastwest;top=0;left=0;right=0;bottom=1;" parent="AQozllkcELvnVLrpr3lW-1" vertex="1">
          <mxGeometry y="30" width="180" height="30" as="geometry" />
        </mxCell>
        <mxCell id="AQozllkcELvnVLrpr3lW-3" value="PK" style="shape=partialRectangle;connectable=0;fillColor=none;top=0;left=0;bottom=0;right=0;fontStyle=1;overflow=hidden;whiteSpace=wrap;html=1;" parent="AQozllkcELvnVLrpr3lW-2" vertex="1">
          <mxGeometry width="30" height="30" as="geometry">
            <mxRectangle width="30" height="30" as="alternateBounds" />
          </mxGeometry>
        </mxCell>
        <mxCell id="AQozllkcELvnVLrpr3lW-4" value="user_id" style="shape=partialRectangle;connectable=0;fillColor=none;top=0;left=0;bottom=0;right=0;align=left;spacingLeft=6;fontStyle=5;overflow=hidden;whiteSpace=wrap;html=1;" parent="AQozllkcELvnVLrpr3lW-2" vertex="1">
          <mxGeometry x="30" width="150" height="30" as="geometry">
            <mxRectangle width="150" height="30" as="alternateBounds" />
          </mxGeometry>
        </mxCell>
        <mxCell id="AQozllkcELvnVLrpr3lW-5" value="" style="shape=tableRow;horizontal=0;startSize=0;swimlaneHead=0;swimlaneBody=0;fillColor=none;collapsible=0;dropTarget=0;points=[[0,0.5],[1,0.5]];portConstraint=eastwest;top=0;left=0;right=0;bottom=0;" parent="AQozllkcELvnVLrpr3lW-1" vertex="1">
          <mxGeometry y="60" width="180" height="30" as="geometry" />
        </mxCell>
        <mxCell id="AQozllkcELvnVLrpr3lW-6" value="" style="shape=partialRectangle;connectable=0;fillColor=none;top=0;left=0;bottom=0;right=0;editable=1;overflow=hidden;whiteSpace=wrap;html=1;" parent="AQozllkcELvnVLrpr3lW-5" vertex="1">
          <mxGeometry width="30" height="30" as="geometry">
            <mxRectangle width="30" height="30" as="alternateBounds" />
          </mxGeometry>
        </mxCell>
        <mxCell id="AQozllkcELvnVLrpr3lW-7" value="user_email" style="shape=partialRectangle;connectable=0;fillColor=none;top=0;left=0;bottom=0;right=0;align=left;spacingLeft=6;overflow=hidden;whiteSpace=wrap;html=1;" parent="AQozllkcELvnVLrpr3lW-5" vertex="1">
          <mxGeometry x="30" width="150" height="30" as="geometry">
            <mxRectangle width="150" height="30" as="alternateBounds" />
          </mxGeometry>
        </mxCell>
        <mxCell id="AQozllkcELvnVLrpr3lW-8" value="" style="shape=tableRow;horizontal=0;startSize=0;swimlaneHead=0;swimlaneBody=0;fillColor=none;collapsible=0;dropTarget=0;points=[[0,0.5],[1,0.5]];portConstraint=eastwest;top=0;left=0;right=0;bottom=0;" parent="AQozllkcELvnVLrpr3lW-1" vertex="1">
          <mxGeometry y="90" width="180" height="30" as="geometry" />
        </mxCell>
        <mxCell id="AQozllkcELvnVLrpr3lW-9" value="" style="shape=partialRectangle;connectable=0;fillColor=none;top=0;left=0;bottom=0;right=0;editable=1;overflow=hidden;whiteSpace=wrap;html=1;" parent="AQozllkcELvnVLrpr3lW-8" vertex="1">
          <mxGeometry width="30" height="30" as="geometry">
            <mxRectangle width="30" height="30" as="alternateBounds" />
          </mxGeometry>
        </mxCell>
        <mxCell id="AQozllkcELvnVLrpr3lW-10" value="user_password" style="shape=partialRectangle;connectable=0;fillColor=none;top=0;left=0;bottom=0;right=0;align=left;spacingLeft=6;overflow=hidden;whiteSpace=wrap;html=1;" parent="AQozllkcELvnVLrpr3lW-8" vertex="1">
          <mxGeometry x="30" width="150" height="30" as="geometry">
            <mxRectangle width="150" height="30" as="alternateBounds" />
          </mxGeometry>
        </mxCell>
        <mxCell id="AQozllkcELvnVLrpr3lW-14" value="" style="shape=tableRow;horizontal=0;startSize=0;swimlaneHead=0;swimlaneBody=0;fillColor=none;collapsible=0;dropTarget=0;points=[[0,0.5],[1,0.5]];portConstraint=eastwest;top=0;left=0;right=0;bottom=0;" parent="AQozllkcELvnVLrpr3lW-1" vertex="1">
          <mxGeometry y="120" width="180" height="30" as="geometry" />
        </mxCell>
        <mxCell id="AQozllkcELvnVLrpr3lW-15" value="" style="shape=partialRectangle;connectable=0;fillColor=none;top=0;left=0;bottom=0;right=0;editable=1;overflow=hidden;whiteSpace=wrap;html=1;" parent="AQozllkcELvnVLrpr3lW-14" vertex="1">
          <mxGeometry width="30" height="30" as="geometry">
            <mxRectangle width="30" height="30" as="alternateBounds" />
          </mxGeometry>
        </mxCell>
        <mxCell id="AQozllkcELvnVLrpr3lW-16" value="reset_password_code" style="shape=partialRectangle;connectable=0;fillColor=none;top=0;left=0;bottom=0;right=0;align=left;spacingLeft=6;overflow=hidden;whiteSpace=wrap;html=1;" parent="AQozllkcELvnVLrpr3lW-14" vertex="1">
          <mxGeometry x="30" width="150" height="30" as="geometry">
            <mxRectangle width="150" height="30" as="alternateBounds" />
          </mxGeometry>
        </mxCell>
        <mxCell id="AQozllkcELvnVLrpr3lW-17" value="" style="shape=tableRow;horizontal=0;startSize=0;swimlaneHead=0;swimlaneBody=0;fillColor=none;collapsible=0;dropTarget=0;points=[[0,0.5],[1,0.5]];portConstraint=eastwest;top=0;left=0;right=0;bottom=0;" parent="AQozllkcELvnVLrpr3lW-1" vertex="1">
          <mxGeometry y="150" width="180" height="30" as="geometry" />
        </mxCell>
        <mxCell id="AQozllkcELvnVLrpr3lW-18" value="" style="shape=partialRectangle;connectable=0;fillColor=none;top=0;left=0;bottom=0;right=0;editable=1;overflow=hidden;whiteSpace=wrap;html=1;" parent="AQozllkcELvnVLrpr3lW-17" vertex="1">
          <mxGeometry width="30" height="30" as="geometry">
            <mxRectangle width="30" height="30" as="alternateBounds" />
          </mxGeometry>
        </mxCell>
        <mxCell id="AQozllkcELvnVLrpr3lW-19" value="user_preferred_language" style="shape=partialRectangle;connectable=0;fillColor=none;top=0;left=0;bottom=0;right=0;align=left;spacingLeft=6;overflow=hidden;whiteSpace=wrap;html=1;" parent="AQozllkcELvnVLrpr3lW-17" vertex="1">
          <mxGeometry x="30" width="150" height="30" as="geometry">
            <mxRectangle width="150" height="30" as="alternateBounds" />
          </mxGeometry>
        </mxCell>
        <mxCell id="AQozllkcELvnVLrpr3lW-20" value="" style="shape=tableRow;horizontal=0;startSize=0;swimlaneHead=0;swimlaneBody=0;fillColor=none;collapsible=0;dropTarget=0;points=[[0,0.5],[1,0.5]];portConstraint=eastwest;top=0;left=0;right=0;bottom=0;" parent="AQozllkcELvnVLrpr3lW-1" vertex="1">
          <mxGeometry y="180" width="180" height="30" as="geometry" />
        </mxCell>
        <mxCell id="AQozllkcELvnVLrpr3lW-21" value="" style="shape=partialRectangle;connectable=0;fillColor=none;top=0;left=0;bottom=0;right=0;editable=1;overflow=hidden;whiteSpace=wrap;html=1;" parent="AQozllkcELvnVLrpr3lW-20" vertex="1">
          <mxGeometry width="30" height="30" as="geometry">
            <mxRectangle width="30" height="30" as="alternateBounds" />
          </mxGeometry>
        </mxCell>
        <mxCell id="AQozllkcELvnVLrpr3lW-22" value="user_country" style="shape=partialRectangle;connectable=0;fillColor=none;top=0;left=0;bottom=0;right=0;align=left;spacingLeft=6;overflow=hidden;whiteSpace=wrap;html=1;" parent="AQozllkcELvnVLrpr3lW-20" vertex="1">
          <mxGeometry x="30" width="150" height="30" as="geometry">
            <mxRectangle width="150" height="30" as="alternateBounds" />
          </mxGeometry>
        </mxCell>
        <mxCell id="AQozllkcELvnVLrpr3lW-23" value="" style="shape=tableRow;horizontal=0;startSize=0;swimlaneHead=0;swimlaneBody=0;fillColor=none;collapsible=0;dropTarget=0;points=[[0,0.5],[1,0.5]];portConstraint=eastwest;top=0;left=0;right=0;bottom=0;" parent="AQozllkcELvnVLrpr3lW-1" vertex="1">
          <mxGeometry y="210" width="180" height="30" as="geometry" />
        </mxCell>
        <mxCell id="AQozllkcELvnVLrpr3lW-24" value="" style="shape=partialRectangle;connectable=0;fillColor=none;top=0;left=0;bottom=0;right=0;editable=1;overflow=hidden;whiteSpace=wrap;html=1;" parent="AQozllkcELvnVLrpr3lW-23" vertex="1">
          <mxGeometry width="30" height="30" as="geometry">
            <mxRectangle width="30" height="30" as="alternateBounds" />
          </mxGeometry>
        </mxCell>
        <mxCell id="AQozllkcELvnVLrpr3lW-25" value="image_id" style="shape=partialRectangle;connectable=0;fillColor=none;top=0;left=0;bottom=0;right=0;align=left;spacingLeft=6;overflow=hidden;whiteSpace=wrap;html=1;" parent="AQozllkcELvnVLrpr3lW-23" vertex="1">
          <mxGeometry x="30" width="150" height="30" as="geometry">
            <mxRectangle width="150" height="30" as="alternateBounds" />
          </mxGeometry>
        </mxCell>
        <mxCell id="5cP8XpvLMlVqHYWxAalp-55" value="" style="shape=tableRow;horizontal=0;startSize=0;swimlaneHead=0;swimlaneBody=0;fillColor=none;collapsible=0;dropTarget=0;points=[[0,0.5],[1,0.5]];portConstraint=eastwest;top=0;left=0;right=0;bottom=0;" parent="AQozllkcELvnVLrpr3lW-1" vertex="1">
          <mxGeometry y="240" width="180" height="30" as="geometry" />
        </mxCell>
        <mxCell id="5cP8XpvLMlVqHYWxAalp-56" value="" style="shape=partialRectangle;connectable=0;fillColor=none;top=0;left=0;bottom=0;right=0;editable=1;overflow=hidden;whiteSpace=wrap;html=1;" parent="5cP8XpvLMlVqHYWxAalp-55" vertex="1">
          <mxGeometry width="30" height="30" as="geometry">
            <mxRectangle width="30" height="30" as="alternateBounds" />
          </mxGeometry>
        </mxCell>
        <mxCell id="5cP8XpvLMlVqHYWxAalp-57" value="is_deleted" style="shape=partialRectangle;connectable=0;fillColor=none;top=0;left=0;bottom=0;right=0;align=left;spacingLeft=6;overflow=hidden;whiteSpace=wrap;html=1;" parent="5cP8XpvLMlVqHYWxAalp-55" vertex="1">
          <mxGeometry x="30" width="150" height="30" as="geometry">
            <mxRectangle width="150" height="30" as="alternateBounds" />
          </mxGeometry>
        </mxCell>
        <mxCell id="5cP8XpvLMlVqHYWxAalp-75" style="edgeStyle=orthogonalEdgeStyle;rounded=0;orthogonalLoop=1;jettySize=auto;html=1;exitX=0.5;exitY=0;exitDx=0;exitDy=0;entryX=0;entryY=0.25;entryDx=0;entryDy=0;endArrow=none;endFill=0;" parent="1" source="AQozllkcELvnVLrpr3lW-29" target="5cP8XpvLMlVqHYWxAalp-19" edge="1">
          <mxGeometry relative="1" as="geometry" />
        </mxCell>
        <mxCell id="2k7X5Uf9YQwkx91Mu9RI-56" style="edgeStyle=orthogonalEdgeStyle;rounded=0;orthogonalLoop=1;jettySize=auto;html=1;exitX=0.75;exitY=0;exitDx=0;exitDy=0;entryX=0.297;entryY=0.997;entryDx=0;entryDy=0;entryPerimeter=0;endArrow=none;endFill=0;" parent="1" source="AQozllkcELvnVLrpr3lW-29" target="2k7X5Uf9YQwkx91Mu9RI-47" edge="1">
          <mxGeometry relative="1" as="geometry">
            <Array as="points">
              <mxPoint x="1551" y="308" />
              <mxPoint x="1847" y="308" />
            </Array>
          </mxGeometry>
        </mxCell>
        <mxCell id="AQozllkcELvnVLrpr3lW-29" value="Sport_center" style="swimlane;fontStyle=0;childLayout=stackLayout;horizontal=1;startSize=26;horizontalStack=0;resizeParent=1;resizeParentMax=0;resizeLast=0;collapsible=1;marginBottom=0;align=center;fontSize=14;" parent="1" vertex="1">
          <mxGeometry x="1431" y="360" width="160" height="266" as="geometry" />
        </mxCell>
        <mxCell id="AQozllkcELvnVLrpr3lW-30" value="sport_center_id" style="text;strokeColor=none;fillColor=none;spacingLeft=4;spacingRight=4;overflow=hidden;rotatable=0;points=[[0,0.5],[1,0.5]];portConstraint=eastwest;fontSize=12;whiteSpace=wrap;html=1;" parent="AQozllkcELvnVLrpr3lW-29" vertex="1">
          <mxGeometry y="26" width="160" height="30" as="geometry" />
        </mxCell>
        <mxCell id="AQozllkcELvnVLrpr3lW-31" value="sport_center_name" style="text;strokeColor=none;fillColor=none;spacingLeft=4;spacingRight=4;overflow=hidden;rotatable=0;points=[[0,0.5],[1,0.5]];portConstraint=eastwest;fontSize=12;whiteSpace=wrap;html=1;" parent="AQozllkcELvnVLrpr3lW-29" vertex="1">
          <mxGeometry y="56" width="160" height="30" as="geometry" />
        </mxCell>
        <mxCell id="AQozllkcELvnVLrpr3lW-32" value="sport_center_tag_name" style="text;strokeColor=none;fillColor=none;spacingLeft=4;spacingRight=4;overflow=hidden;rotatable=0;points=[[0,0.5],[1,0.5]];portConstraint=eastwest;fontSize=12;whiteSpace=wrap;html=1;" parent="AQozllkcELvnVLrpr3lW-29" vertex="1">
          <mxGeometry y="86" width="160" height="30" as="geometry" />
        </mxCell>
        <mxCell id="AQozllkcELvnVLrpr3lW-34" value="sport_center_reviews" style="text;strokeColor=none;fillColor=none;spacingLeft=4;spacingRight=4;overflow=hidden;rotatable=0;points=[[0,0.5],[1,0.5]];portConstraint=eastwest;fontSize=12;whiteSpace=wrap;html=1;" parent="AQozllkcELvnVLrpr3lW-29" vertex="1">
          <mxGeometry y="116" width="160" height="30" as="geometry" />
        </mxCell>
        <mxCell id="AQozllkcELvnVLrpr3lW-35" value="sport_center_about" style="text;strokeColor=none;fillColor=none;spacingLeft=4;spacingRight=4;overflow=hidden;rotatable=0;points=[[0,0.5],[1,0.5]];portConstraint=eastwest;fontSize=12;whiteSpace=wrap;html=1;" parent="AQozllkcELvnVLrpr3lW-29" vertex="1">
          <mxGeometry y="146" width="160" height="30" as="geometry" />
        </mxCell>
        <mxCell id="AQozllkcELvnVLrpr3lW-36" value="sport_center_site_web" style="text;strokeColor=none;fillColor=none;spacingLeft=4;spacingRight=4;overflow=hidden;rotatable=0;points=[[0,0.5],[1,0.5]];portConstraint=eastwest;fontSize=12;whiteSpace=wrap;html=1;" parent="AQozllkcELvnVLrpr3lW-29" vertex="1">
          <mxGeometry y="176" width="160" height="30" as="geometry" />
        </mxCell>
        <mxCell id="AQozllkcELvnVLrpr3lW-37" value="sport_center_phone" style="text;strokeColor=none;fillColor=none;spacingLeft=4;spacingRight=4;overflow=hidden;rotatable=0;points=[[0,0.5],[1,0.5]];portConstraint=eastwest;fontSize=12;whiteSpace=wrap;html=1;" parent="AQozllkcELvnVLrpr3lW-29" vertex="1">
          <mxGeometry y="206" width="160" height="30" as="geometry" />
        </mxCell>
        <mxCell id="5cP8XpvLMlVqHYWxAalp-32" value="sport_center_images" style="text;strokeColor=none;fillColor=none;spacingLeft=4;spacingRight=4;overflow=hidden;rotatable=0;points=[[0,0.5],[1,0.5]];portConstraint=eastwest;fontSize=12;whiteSpace=wrap;html=1;" parent="AQozllkcELvnVLrpr3lW-29" vertex="1">
          <mxGeometry y="236" width="160" height="30" as="geometry" />
        </mxCell>
        <mxCell id="5cP8XpvLMlVqHYWxAalp-79" style="edgeStyle=orthogonalEdgeStyle;rounded=0;orthogonalLoop=1;jettySize=auto;html=1;exitX=0.5;exitY=0;exitDx=0;exitDy=0;endArrow=none;endFill=0;" parent="1" source="AQozllkcELvnVLrpr3lW-41" target="AQozllkcELvnVLrpr3lW-29" edge="1">
          <mxGeometry relative="1" as="geometry" />
        </mxCell>
        <mxCell id="AQozllkcELvnVLrpr3lW-41" value="Activity" style="swimlane;fontStyle=0;childLayout=stackLayout;horizontal=1;startSize=26;horizontalStack=0;resizeParent=1;resizeParentMax=0;resizeLast=0;collapsible=1;marginBottom=0;align=center;fontSize=14;" parent="1" vertex="1">
          <mxGeometry x="1173" y="766" width="160" height="206" as="geometry" />
        </mxCell>
        <mxCell id="AQozllkcELvnVLrpr3lW-42" value="activity_name" style="text;strokeColor=none;fillColor=none;spacingLeft=4;spacingRight=4;overflow=hidden;rotatable=0;points=[[0,0.5],[1,0.5]];portConstraint=eastwest;fontSize=12;whiteSpace=wrap;html=1;" parent="AQozllkcELvnVLrpr3lW-41" vertex="1">
          <mxGeometry y="26" width="160" height="30" as="geometry" />
        </mxCell>
        <mxCell id="AQozllkcELvnVLrpr3lW-43" value="activiity_description" style="text;strokeColor=none;fillColor=none;spacingLeft=4;spacingRight=4;overflow=hidden;rotatable=0;points=[[0,0.5],[1,0.5]];portConstraint=eastwest;fontSize=12;whiteSpace=wrap;html=1;" parent="AQozllkcELvnVLrpr3lW-41" vertex="1">
          <mxGeometry y="56" width="160" height="30" as="geometry" />
        </mxCell>
        <mxCell id="AQozllkcELvnVLrpr3lW-44" value="activiity_days" style="text;strokeColor=none;fillColor=none;spacingLeft=4;spacingRight=4;overflow=hidden;rotatable=0;points=[[0,0.5],[1,0.5]];portConstraint=eastwest;fontSize=12;whiteSpace=wrap;html=1;" parent="AQozllkcELvnVLrpr3lW-41" vertex="1">
          <mxGeometry y="86" width="160" height="30" as="geometry" />
        </mxCell>
        <mxCell id="AQozllkcELvnVLrpr3lW-48" value="activity_duration" style="text;strokeColor=none;fillColor=none;spacingLeft=4;spacingRight=4;overflow=hidden;rotatable=0;points=[[0,0.5],[1,0.5]];portConstraint=eastwest;fontSize=12;whiteSpace=wrap;html=1;" parent="AQozllkcELvnVLrpr3lW-41" vertex="1">
          <mxGeometry y="116" width="160" height="30" as="geometry" />
        </mxCell>
        <mxCell id="AQozllkcELvnVLrpr3lW-49" value="activity_level" style="text;strokeColor=none;fillColor=none;spacingLeft=4;spacingRight=4;overflow=hidden;rotatable=0;points=[[0,0.5],[1,0.5]];portConstraint=eastwest;fontSize=12;whiteSpace=wrap;html=1;" parent="AQozllkcELvnVLrpr3lW-41" vertex="1">
          <mxGeometry y="146" width="160" height="30" as="geometry" />
        </mxCell>
        <mxCell id="5cP8XpvLMlVqHYWxAalp-90" value="activity_coach" style="text;strokeColor=none;fillColor=none;spacingLeft=4;spacingRight=4;overflow=hidden;rotatable=0;points=[[0,0.5],[1,0.5]];portConstraint=eastwest;fontSize=12;whiteSpace=wrap;html=1;" parent="AQozllkcELvnVLrpr3lW-41" vertex="1">
          <mxGeometry y="176" width="160" height="30" as="geometry" />
        </mxCell>
        <mxCell id="5cP8XpvLMlVqHYWxAalp-80" style="edgeStyle=orthogonalEdgeStyle;rounded=0;orthogonalLoop=1;jettySize=auto;html=1;exitX=0.5;exitY=0;exitDx=0;exitDy=0;endArrow=none;endFill=0;" parent="1" source="AQozllkcELvnVLrpr3lW-50" target="AQozllkcELvnVLrpr3lW-29" edge="1">
          <mxGeometry relative="1" as="geometry" />
        </mxCell>
        <mxCell id="AQozllkcELvnVLrpr3lW-50" value="Facility" style="swimlane;fontStyle=0;childLayout=stackLayout;horizontal=1;startSize=26;horizontalStack=0;resizeParent=1;resizeParentMax=0;resizeLast=0;collapsible=1;marginBottom=0;align=center;fontSize=14;" parent="1" vertex="1">
          <mxGeometry x="1742" y="376" width="160" height="116" as="geometry" />
        </mxCell>
        <mxCell id="AQozllkcELvnVLrpr3lW-51" value="facility_id" style="text;strokeColor=none;fillColor=none;spacingLeft=4;spacingRight=4;overflow=hidden;rotatable=0;points=[[0,0.5],[1,0.5]];portConstraint=eastwest;fontSize=12;whiteSpace=wrap;html=1;" parent="AQozllkcELvnVLrpr3lW-50" vertex="1">
          <mxGeometry y="26" width="160" height="30" as="geometry" />
        </mxCell>
        <mxCell id="AQozllkcELvnVLrpr3lW-52" value="facility_name" style="text;strokeColor=none;fillColor=none;spacingLeft=4;spacingRight=4;overflow=hidden;rotatable=0;points=[[0,0.5],[1,0.5]];portConstraint=eastwest;fontSize=12;whiteSpace=wrap;html=1;" parent="AQozllkcELvnVLrpr3lW-50" vertex="1">
          <mxGeometry y="56" width="160" height="30" as="geometry" />
        </mxCell>
        <mxCell id="AQozllkcELvnVLrpr3lW-53" value="facility_icon" style="text;strokeColor=none;fillColor=none;spacingLeft=4;spacingRight=4;overflow=hidden;rotatable=0;points=[[0,0.5],[1,0.5]];portConstraint=eastwest;fontSize=12;whiteSpace=wrap;html=1;" parent="AQozllkcELvnVLrpr3lW-50" vertex="1">
          <mxGeometry y="86" width="160" height="30" as="geometry" />
        </mxCell>
        <mxCell id="5cP8XpvLMlVqHYWxAalp-88" style="edgeStyle=orthogonalEdgeStyle;rounded=0;orthogonalLoop=1;jettySize=auto;html=1;exitX=0.5;exitY=0;exitDx=0;exitDy=0;entryX=1;entryY=0.5;entryDx=0;entryDy=0;endArrow=none;endFill=0;" parent="1" source="AQozllkcELvnVLrpr3lW-77" target="AQozllkcELvnVLrpr3lW-23" edge="1">
          <mxGeometry relative="1" as="geometry" />
        </mxCell>
        <mxCell id="AQozllkcELvnVLrpr3lW-77" value="Coach" style="swimlane;fontStyle=0;childLayout=stackLayout;horizontal=1;startSize=26;horizontalStack=0;resizeParent=1;resizeParentMax=0;resizeLast=0;collapsible=1;marginBottom=0;align=center;fontSize=14;" parent="1" vertex="1">
          <mxGeometry x="808" y="722" width="160" height="116" as="geometry" />
        </mxCell>
        <mxCell id="AQozllkcELvnVLrpr3lW-78" value="coach_id" style="text;strokeColor=none;fillColor=none;spacingLeft=4;spacingRight=4;overflow=hidden;rotatable=0;points=[[0,0.5],[1,0.5]];portConstraint=eastwest;fontSize=12;whiteSpace=wrap;html=1;" parent="AQozllkcELvnVLrpr3lW-77" vertex="1">
          <mxGeometry y="26" width="160" height="30" as="geometry" />
        </mxCell>
        <mxCell id="AQozllkcELvnVLrpr3lW-79" value="user_id" style="text;strokeColor=none;fillColor=none;spacingLeft=4;spacingRight=4;overflow=hidden;rotatable=0;points=[[0,0.5],[1,0.5]];portConstraint=eastwest;fontSize=12;whiteSpace=wrap;html=1;" parent="AQozllkcELvnVLrpr3lW-77" vertex="1">
          <mxGeometry y="56" width="160" height="30" as="geometry" />
        </mxCell>
        <mxCell id="5cP8XpvLMlVqHYWxAalp-89" value="coach_name" style="text;strokeColor=none;fillColor=none;spacingLeft=4;spacingRight=4;overflow=hidden;rotatable=0;points=[[0,0.5],[1,0.5]];portConstraint=eastwest;fontSize=12;whiteSpace=wrap;html=1;" parent="AQozllkcELvnVLrpr3lW-77" vertex="1">
          <mxGeometry y="86" width="160" height="30" as="geometry" />
        </mxCell>
        <mxCell id="5cP8XpvLMlVqHYWxAalp-1" value="Role" style="swimlane;fontStyle=0;childLayout=stackLayout;horizontal=1;startSize=26;horizontalStack=0;resizeParent=1;resizeParentMax=0;resizeLast=0;collapsible=1;marginBottom=0;align=center;fontSize=14;" parent="1" vertex="1">
          <mxGeometry x="330" y="962" width="160" height="86" as="geometry" />
        </mxCell>
        <mxCell id="5cP8XpvLMlVqHYWxAalp-2" value="role_id" style="text;strokeColor=none;fillColor=none;spacingLeft=4;spacingRight=4;overflow=hidden;rotatable=0;points=[[0,0.5],[1,0.5]];portConstraint=eastwest;fontSize=12;whiteSpace=wrap;html=1;" parent="5cP8XpvLMlVqHYWxAalp-1" vertex="1">
          <mxGeometry y="26" width="160" height="30" as="geometry" />
        </mxCell>
        <mxCell id="5cP8XpvLMlVqHYWxAalp-3" value="role_value" style="text;strokeColor=none;fillColor=none;spacingLeft=4;spacingRight=4;overflow=hidden;rotatable=0;points=[[0,0.5],[1,0.5]];portConstraint=eastwest;fontSize=12;whiteSpace=wrap;html=1;" parent="5cP8XpvLMlVqHYWxAalp-1" vertex="1">
          <mxGeometry y="56" width="160" height="30" as="geometry" />
        </mxCell>
        <mxCell id="5cP8XpvLMlVqHYWxAalp-5" value="User role" style="swimlane;fontStyle=0;childLayout=stackLayout;horizontal=1;startSize=26;horizontalStack=0;resizeParent=1;resizeParentMax=0;resizeLast=0;collapsible=1;marginBottom=0;align=center;fontSize=14;" parent="1" vertex="1">
          <mxGeometry x="470" y="569" width="160" height="86" as="geometry" />
        </mxCell>
        <mxCell id="5cP8XpvLMlVqHYWxAalp-6" value="user_id" style="text;strokeColor=none;fillColor=none;spacingLeft=4;spacingRight=4;overflow=hidden;rotatable=0;points=[[0,0.5],[1,0.5]];portConstraint=eastwest;fontSize=12;whiteSpace=wrap;html=1;" parent="5cP8XpvLMlVqHYWxAalp-5" vertex="1">
          <mxGeometry y="26" width="160" height="30" as="geometry" />
        </mxCell>
        <mxCell id="5cP8XpvLMlVqHYWxAalp-7" value="user_role_id" style="text;strokeColor=none;fillColor=none;spacingLeft=4;spacingRight=4;overflow=hidden;rotatable=0;points=[[0,0.5],[1,0.5]];portConstraint=eastwest;fontSize=12;whiteSpace=wrap;html=1;" parent="5cP8XpvLMlVqHYWxAalp-5" vertex="1">
          <mxGeometry y="56" width="160" height="30" as="geometry" />
        </mxCell>
        <mxCell id="5cP8XpvLMlVqHYWxAalp-10" style="edgeStyle=orthogonalEdgeStyle;rounded=0;orthogonalLoop=1;jettySize=auto;html=1;exitX=0.75;exitY=0;exitDx=0;exitDy=0;entryX=0;entryY=0.5;entryDx=0;entryDy=0;endArrow=none;endFill=0;" parent="1" source="5cP8XpvLMlVqHYWxAalp-5" target="AQozllkcELvnVLrpr3lW-14" edge="1">
          <mxGeometry relative="1" as="geometry">
            <mxPoint x="849.6000000000001" y="666.21" as="targetPoint" />
          </mxGeometry>
        </mxCell>
        <mxCell id="5cP8XpvLMlVqHYWxAalp-11" style="edgeStyle=orthogonalEdgeStyle;rounded=0;orthogonalLoop=1;jettySize=auto;html=1;exitX=0.5;exitY=0;exitDx=0;exitDy=0;entryX=0.499;entryY=0.998;entryDx=0;entryDy=0;entryPerimeter=0;endArrow=none;endFill=0;" parent="1" source="5cP8XpvLMlVqHYWxAalp-1" target="5cP8XpvLMlVqHYWxAalp-7" edge="1">
          <mxGeometry relative="1" as="geometry">
            <Array as="points">
              <mxPoint x="413" y="962" />
              <mxPoint x="413" y="826" />
              <mxPoint x="550" y="826" />
            </Array>
          </mxGeometry>
        </mxCell>
        <mxCell id="5cP8XpvLMlVqHYWxAalp-13" value="Address" style="swimlane;fontStyle=0;childLayout=stackLayout;horizontal=1;startSize=26;horizontalStack=0;resizeParent=1;resizeParentMax=0;resizeLast=0;collapsible=1;marginBottom=0;align=center;fontSize=14;" parent="1" vertex="1">
          <mxGeometry x="1075" y="349" width="160" height="176" as="geometry" />
        </mxCell>
        <mxCell id="5cP8XpvLMlVqHYWxAalp-14" value="adress_id" style="text;strokeColor=none;fillColor=none;spacingLeft=4;spacingRight=4;overflow=hidden;rotatable=0;points=[[0,0.5],[1,0.5]];portConstraint=eastwest;fontSize=12;whiteSpace=wrap;html=1;" parent="5cP8XpvLMlVqHYWxAalp-13" vertex="1">
          <mxGeometry y="26" width="160" height="30" as="geometry" />
        </mxCell>
        <mxCell id="5cP8XpvLMlVqHYWxAalp-15" value="address_country_code" style="text;strokeColor=none;fillColor=none;spacingLeft=4;spacingRight=4;overflow=hidden;rotatable=0;points=[[0,0.5],[1,0.5]];portConstraint=eastwest;fontSize=12;whiteSpace=wrap;html=1;" parent="5cP8XpvLMlVqHYWxAalp-13" vertex="1">
          <mxGeometry y="56" width="160" height="30" as="geometry" />
        </mxCell>
        <mxCell id="5cP8XpvLMlVqHYWxAalp-16" value="address_city" style="text;strokeColor=none;fillColor=none;spacingLeft=4;spacingRight=4;overflow=hidden;rotatable=0;points=[[0,0.5],[1,0.5]];portConstraint=eastwest;fontSize=12;whiteSpace=wrap;html=1;" parent="5cP8XpvLMlVqHYWxAalp-13" vertex="1">
          <mxGeometry y="86" width="160" height="30" as="geometry" />
        </mxCell>
        <mxCell id="5cP8XpvLMlVqHYWxAalp-17" value="address_street" style="text;strokeColor=none;fillColor=none;spacingLeft=4;spacingRight=4;overflow=hidden;rotatable=0;points=[[0,0.5],[1,0.5]];portConstraint=eastwest;fontSize=12;whiteSpace=wrap;html=1;" parent="5cP8XpvLMlVqHYWxAalp-13" vertex="1">
          <mxGeometry y="116" width="160" height="30" as="geometry" />
        </mxCell>
        <mxCell id="5cP8XpvLMlVqHYWxAalp-18" value="address_zip_code" style="text;strokeColor=none;fillColor=none;spacingLeft=4;spacingRight=4;overflow=hidden;rotatable=0;points=[[0,0.5],[1,0.5]];portConstraint=eastwest;fontSize=12;whiteSpace=wrap;html=1;" parent="5cP8XpvLMlVqHYWxAalp-13" vertex="1">
          <mxGeometry y="146" width="160" height="30" as="geometry" />
        </mxCell>
        <mxCell id="5cP8XpvLMlVqHYWxAalp-19" value="Review" style="swimlane;fontStyle=0;childLayout=stackLayout;horizontal=1;startSize=26;horizontalStack=0;resizeParent=1;resizeParentMax=0;resizeLast=0;collapsible=1;marginBottom=0;align=center;fontSize=14;" parent="1" vertex="1">
          <mxGeometry x="1436" y="175" width="160" height="116" as="geometry" />
        </mxCell>
        <mxCell id="5cP8XpvLMlVqHYWxAalp-20" value="review_id" style="text;strokeColor=none;fillColor=none;spacingLeft=4;spacingRight=4;overflow=hidden;rotatable=0;points=[[0,0.5],[1,0.5]];portConstraint=eastwest;fontSize=12;whiteSpace=wrap;html=1;" parent="5cP8XpvLMlVqHYWxAalp-19" vertex="1">
          <mxGeometry y="26" width="160" height="30" as="geometry" />
        </mxCell>
        <mxCell id="5cP8XpvLMlVqHYWxAalp-21" value="review_value" style="text;strokeColor=none;fillColor=none;spacingLeft=4;spacingRight=4;overflow=hidden;rotatable=0;points=[[0,0.5],[1,0.5]];portConstraint=eastwest;fontSize=12;whiteSpace=wrap;html=1;" parent="5cP8XpvLMlVqHYWxAalp-19" vertex="1">
          <mxGeometry y="56" width="160" height="30" as="geometry" />
        </mxCell>
        <mxCell id="2k7X5Uf9YQwkx91Mu9RI-50" value="review_message" style="text;strokeColor=none;fillColor=none;spacingLeft=4;spacingRight=4;overflow=hidden;rotatable=0;points=[[0,0.5],[1,0.5]];portConstraint=eastwest;fontSize=12;whiteSpace=wrap;html=1;" parent="5cP8XpvLMlVqHYWxAalp-19" vertex="1">
          <mxGeometry y="86" width="160" height="30" as="geometry" />
        </mxCell>
        <mxCell id="5cP8XpvLMlVqHYWxAalp-28" value="Pass" style="swimlane;fontStyle=0;childLayout=stackLayout;horizontal=1;startSize=26;horizontalStack=0;resizeParent=1;resizeParentMax=0;resizeLast=0;collapsible=1;marginBottom=0;align=center;fontSize=14;" parent="1" vertex="1">
          <mxGeometry x="540" y="1216" width="160" height="206" as="geometry" />
        </mxCell>
        <mxCell id="5cP8XpvLMlVqHYWxAalp-29" value="pass_id" style="text;strokeColor=none;fillColor=none;spacingLeft=4;spacingRight=4;overflow=hidden;rotatable=0;points=[[0,0.5],[1,0.5]];portConstraint=eastwest;fontSize=12;whiteSpace=wrap;html=1;" parent="5cP8XpvLMlVqHYWxAalp-28" vertex="1">
          <mxGeometry y="26" width="160" height="30" as="geometry" />
        </mxCell>
        <mxCell id="5cP8XpvLMlVqHYWxAalp-31" value="pass_strip_id" style="text;strokeColor=none;fillColor=none;spacingLeft=4;spacingRight=4;overflow=hidden;rotatable=0;points=[[0,0.5],[1,0.5]];portConstraint=eastwest;fontSize=12;whiteSpace=wrap;html=1;" parent="5cP8XpvLMlVqHYWxAalp-28" vertex="1">
          <mxGeometry y="56" width="160" height="30" as="geometry" />
        </mxCell>
        <mxCell id="5cP8XpvLMlVqHYWxAalp-58" value="pass_status" style="text;strokeColor=none;fillColor=none;spacingLeft=4;spacingRight=4;overflow=hidden;rotatable=0;points=[[0,0.5],[1,0.5]];portConstraint=eastwest;fontSize=12;whiteSpace=wrap;html=1;" parent="5cP8XpvLMlVqHYWxAalp-28" vertex="1">
          <mxGeometry y="86" width="160" height="30" as="geometry" />
        </mxCell>
        <mxCell id="2k7X5Uf9YQwkx91Mu9RI-1" value="allowed_sessions" style="text;strokeColor=none;fillColor=none;spacingLeft=4;spacingRight=4;overflow=hidden;rotatable=0;points=[[0,0.5],[1,0.5]];portConstraint=eastwest;fontSize=12;whiteSpace=wrap;html=1;" parent="5cP8XpvLMlVqHYWxAalp-28" vertex="1">
          <mxGeometry y="116" width="160" height="30" as="geometry" />
        </mxCell>
        <mxCell id="5cP8XpvLMlVqHYWxAalp-63" value="pass_subscription_type" style="text;strokeColor=none;fillColor=none;spacingLeft=4;spacingRight=4;overflow=hidden;rotatable=0;points=[[0,0.5],[1,0.5]];portConstraint=eastwest;fontSize=12;whiteSpace=wrap;html=1;" parent="5cP8XpvLMlVqHYWxAalp-28" vertex="1">
          <mxGeometry y="146" width="160" height="30" as="geometry" />
        </mxCell>
        <mxCell id="2k7X5Uf9YQwkx91Mu9RI-2" value="is_deleted" style="text;strokeColor=none;fillColor=none;spacingLeft=4;spacingRight=4;overflow=hidden;rotatable=0;points=[[0,0.5],[1,0.5]];portConstraint=eastwest;fontSize=12;whiteSpace=wrap;html=1;" parent="5cP8XpvLMlVqHYWxAalp-28" vertex="1">
          <mxGeometry y="176" width="160" height="30" as="geometry" />
        </mxCell>
        <mxCell id="5cP8XpvLMlVqHYWxAalp-33" value="Booking" style="swimlane;fontStyle=0;childLayout=stackLayout;horizontal=1;startSize=26;horizontalStack=0;resizeParent=1;resizeParentMax=0;resizeLast=0;collapsible=1;marginBottom=0;align=center;fontSize=14;" parent="1" vertex="1">
          <mxGeometry x="671" y="909" width="160" height="206" as="geometry" />
        </mxCell>
        <mxCell id="5cP8XpvLMlVqHYWxAalp-34" value="booking_id" style="text;strokeColor=none;fillColor=none;spacingLeft=4;spacingRight=4;overflow=hidden;rotatable=0;points=[[0,0.5],[1,0.5]];portConstraint=eastwest;fontSize=12;whiteSpace=wrap;html=1;" parent="5cP8XpvLMlVqHYWxAalp-33" vertex="1">
          <mxGeometry y="26" width="160" height="30" as="geometry" />
        </mxCell>
        <mxCell id="5cP8XpvLMlVqHYWxAalp-35" value="user_id" style="text;strokeColor=none;fillColor=none;spacingLeft=4;spacingRight=4;overflow=hidden;rotatable=0;points=[[0,0.5],[1,0.5]];portConstraint=eastwest;fontSize=12;whiteSpace=wrap;html=1;" parent="5cP8XpvLMlVqHYWxAalp-33" vertex="1">
          <mxGeometry y="56" width="160" height="30" as="geometry" />
        </mxCell>
        <mxCell id="5cP8XpvLMlVqHYWxAalp-61" value="booking_code" style="text;strokeColor=none;fillColor=none;spacingLeft=4;spacingRight=4;overflow=hidden;rotatable=0;points=[[0,0.5],[1,0.5]];portConstraint=eastwest;fontSize=12;whiteSpace=wrap;html=1;" parent="5cP8XpvLMlVqHYWxAalp-33" vertex="1">
          <mxGeometry y="86" width="160" height="30" as="geometry" />
        </mxCell>
        <mxCell id="5cP8XpvLMlVqHYWxAalp-64" value="booking_used_session" style="text;strokeColor=none;fillColor=none;spacingLeft=4;spacingRight=4;overflow=hidden;rotatable=0;points=[[0,0.5],[1,0.5]];portConstraint=eastwest;fontSize=12;whiteSpace=wrap;html=1;" parent="5cP8XpvLMlVqHYWxAalp-33" vertex="1">
          <mxGeometry y="116" width="160" height="30" as="geometry" />
        </mxCell>
        <mxCell id="5cP8XpvLMlVqHYWxAalp-65" value="booking_status&lt;br&gt;" style="text;strokeColor=none;fillColor=none;spacingLeft=4;spacingRight=4;overflow=hidden;rotatable=0;points=[[0,0.5],[1,0.5]];portConstraint=eastwest;fontSize=12;whiteSpace=wrap;html=1;" parent="5cP8XpvLMlVqHYWxAalp-33" vertex="1">
          <mxGeometry y="146" width="160" height="30" as="geometry" />
        </mxCell>
        <mxCell id="5cP8XpvLMlVqHYWxAalp-94" value="is_deleted" style="text;strokeColor=none;fillColor=none;spacingLeft=4;spacingRight=4;overflow=hidden;rotatable=0;points=[[0,0.5],[1,0.5]];portConstraint=eastwest;fontSize=12;whiteSpace=wrap;html=1;" parent="5cP8XpvLMlVqHYWxAalp-33" vertex="1">
          <mxGeometry y="176" width="160" height="30" as="geometry" />
        </mxCell>
        <mxCell id="5cP8XpvLMlVqHYWxAalp-82" style="edgeStyle=orthogonalEdgeStyle;rounded=0;orthogonalLoop=1;jettySize=auto;html=1;exitX=0.5;exitY=0;exitDx=0;exitDy=0;entryX=0.5;entryY=0;entryDx=0;entryDy=0;endArrow=none;endFill=0;" parent="1" source="2k7X5Uf9YQwkx91Mu9RI-18" target="5cP8XpvLMlVqHYWxAalp-41" edge="1">
          <mxGeometry relative="1" as="geometry" />
        </mxCell>
        <mxCell id="5cP8XpvLMlVqHYWxAalp-37" value="Day" style="swimlane;fontStyle=0;childLayout=stackLayout;horizontal=1;startSize=26;horizontalStack=0;resizeParent=1;resizeParentMax=0;resizeLast=0;collapsible=1;marginBottom=0;align=center;fontSize=14;" parent="1" vertex="1">
          <mxGeometry x="1488" y="763" width="160" height="86" as="geometry" />
        </mxCell>
        <mxCell id="5cP8XpvLMlVqHYWxAalp-38" value="day_id" style="text;strokeColor=none;fillColor=none;spacingLeft=4;spacingRight=4;overflow=hidden;rotatable=0;points=[[0,0.5],[1,0.5]];portConstraint=eastwest;fontSize=12;whiteSpace=wrap;html=1;" parent="5cP8XpvLMlVqHYWxAalp-37" vertex="1">
          <mxGeometry y="26" width="160" height="30" as="geometry" />
        </mxCell>
        <mxCell id="5cP8XpvLMlVqHYWxAalp-39" value="day_value" style="text;strokeColor=none;fillColor=none;spacingLeft=4;spacingRight=4;overflow=hidden;rotatable=0;points=[[0,0.5],[1,0.5]];portConstraint=eastwest;fontSize=12;whiteSpace=wrap;html=1;" parent="5cP8XpvLMlVqHYWxAalp-37" vertex="1">
          <mxGeometry y="56" width="160" height="30" as="geometry" />
        </mxCell>
        <mxCell id="5cP8XpvLMlVqHYWxAalp-41" value="Time slot" style="swimlane;fontStyle=0;childLayout=stackLayout;horizontal=1;startSize=26;horizontalStack=0;resizeParent=1;resizeParentMax=0;resizeLast=0;collapsible=1;marginBottom=0;align=center;fontSize=14;" parent="1" vertex="1">
          <mxGeometry x="1771" y="761" width="160" height="86" as="geometry" />
        </mxCell>
        <mxCell id="5cP8XpvLMlVqHYWxAalp-42" value="time_id" style="text;strokeColor=none;fillColor=none;spacingLeft=4;spacingRight=4;overflow=hidden;rotatable=0;points=[[0,0.5],[1,0.5]];portConstraint=eastwest;fontSize=12;whiteSpace=wrap;html=1;" parent="5cP8XpvLMlVqHYWxAalp-41" vertex="1">
          <mxGeometry y="26" width="160" height="30" as="geometry" />
        </mxCell>
        <mxCell id="5cP8XpvLMlVqHYWxAalp-43" value="time_value" style="text;strokeColor=none;fillColor=none;spacingLeft=4;spacingRight=4;overflow=hidden;rotatable=0;points=[[0,0.5],[1,0.5]];portConstraint=eastwest;fontSize=12;whiteSpace=wrap;html=1;" parent="5cP8XpvLMlVqHYWxAalp-41" vertex="1">
          <mxGeometry y="56" width="160" height="30" as="geometry" />
        </mxCell>
        <mxCell id="5cP8XpvLMlVqHYWxAalp-81" style="edgeStyle=orthogonalEdgeStyle;rounded=0;orthogonalLoop=1;jettySize=auto;html=1;exitX=0.25;exitY=0;exitDx=0;exitDy=0;entryX=1;entryY=0.5;entryDx=0;entryDy=0;endArrow=none;endFill=0;" parent="1" source="5cP8XpvLMlVqHYWxAalp-45" target="AQozllkcELvnVLrpr3lW-37" edge="1">
          <mxGeometry relative="1" as="geometry" />
        </mxCell>
        <mxCell id="5cP8XpvLMlVqHYWxAalp-45" value="Category" style="swimlane;fontStyle=0;childLayout=stackLayout;horizontal=1;startSize=26;horizontalStack=0;resizeParent=1;resizeParentMax=0;resizeLast=0;collapsible=1;marginBottom=0;align=center;fontSize=14;" parent="1" vertex="1">
          <mxGeometry x="1851" y="532" width="160" height="116" as="geometry" />
        </mxCell>
        <mxCell id="5cP8XpvLMlVqHYWxAalp-46" value="category_id" style="text;strokeColor=none;fillColor=none;spacingLeft=4;spacingRight=4;overflow=hidden;rotatable=0;points=[[0,0.5],[1,0.5]];portConstraint=eastwest;fontSize=12;whiteSpace=wrap;html=1;" parent="5cP8XpvLMlVqHYWxAalp-45" vertex="1">
          <mxGeometry y="26" width="160" height="30" as="geometry" />
        </mxCell>
        <mxCell id="5cP8XpvLMlVqHYWxAalp-47" value="category_value" style="text;strokeColor=none;fillColor=none;spacingLeft=4;spacingRight=4;overflow=hidden;rotatable=0;points=[[0,0.5],[1,0.5]];portConstraint=eastwest;fontSize=12;whiteSpace=wrap;html=1;" parent="5cP8XpvLMlVqHYWxAalp-45" vertex="1">
          <mxGeometry y="56" width="160" height="30" as="geometry" />
        </mxCell>
        <mxCell id="5cP8XpvLMlVqHYWxAalp-50" value="category_images" style="text;strokeColor=none;fillColor=none;spacingLeft=4;spacingRight=4;overflow=hidden;rotatable=0;points=[[0,0.5],[1,0.5]];portConstraint=eastwest;fontSize=12;whiteSpace=wrap;html=1;" parent="5cP8XpvLMlVqHYWxAalp-45" vertex="1">
          <mxGeometry y="86" width="160" height="30" as="geometry" />
        </mxCell>
        <mxCell id="5cP8XpvLMlVqHYWxAalp-51" value="Payment" style="swimlane;fontStyle=0;childLayout=stackLayout;horizontal=1;startSize=26;horizontalStack=0;resizeParent=1;resizeParentMax=0;resizeLast=0;collapsible=1;marginBottom=0;align=center;fontSize=14;" parent="1" vertex="1">
          <mxGeometry x="1033" y="1198" width="160" height="176" as="geometry" />
        </mxCell>
        <mxCell id="5cP8XpvLMlVqHYWxAalp-52" value="payment_id" style="text;strokeColor=none;fillColor=none;spacingLeft=4;spacingRight=4;overflow=hidden;rotatable=0;points=[[0,0.5],[1,0.5]];portConstraint=eastwest;fontSize=12;whiteSpace=wrap;html=1;" parent="5cP8XpvLMlVqHYWxAalp-51" vertex="1">
          <mxGeometry y="26" width="160" height="30" as="geometry" />
        </mxCell>
        <mxCell id="5cP8XpvLMlVqHYWxAalp-53" value="payment_status" style="text;strokeColor=none;fillColor=none;spacingLeft=4;spacingRight=4;overflow=hidden;rotatable=0;points=[[0,0.5],[1,0.5]];portConstraint=eastwest;fontSize=12;whiteSpace=wrap;html=1;" parent="5cP8XpvLMlVqHYWxAalp-51" vertex="1">
          <mxGeometry y="56" width="160" height="30" as="geometry" />
        </mxCell>
        <mxCell id="5cP8XpvLMlVqHYWxAalp-59" value="payment_amount" style="text;strokeColor=none;fillColor=none;spacingLeft=4;spacingRight=4;overflow=hidden;rotatable=0;points=[[0,0.5],[1,0.5]];portConstraint=eastwest;fontSize=12;whiteSpace=wrap;html=1;" parent="5cP8XpvLMlVqHYWxAalp-51" vertex="1">
          <mxGeometry y="86" width="160" height="30" as="geometry" />
        </mxCell>
        <mxCell id="5cP8XpvLMlVqHYWxAalp-60" value="payment_tax" style="text;strokeColor=none;fillColor=none;spacingLeft=4;spacingRight=4;overflow=hidden;rotatable=0;points=[[0,0.5],[1,0.5]];portConstraint=eastwest;fontSize=12;whiteSpace=wrap;html=1;" parent="5cP8XpvLMlVqHYWxAalp-51" vertex="1">
          <mxGeometry y="116" width="160" height="30" as="geometry" />
        </mxCell>
        <mxCell id="5cP8XpvLMlVqHYWxAalp-91" value="is_deleted" style="text;strokeColor=none;fillColor=none;spacingLeft=4;spacingRight=4;overflow=hidden;rotatable=0;points=[[0,0.5],[1,0.5]];portConstraint=eastwest;fontSize=12;whiteSpace=wrap;html=1;" parent="5cP8XpvLMlVqHYWxAalp-51" vertex="1">
          <mxGeometry y="146" width="160" height="30" as="geometry" />
        </mxCell>
        <mxCell id="5cP8XpvLMlVqHYWxAalp-74" style="edgeStyle=orthogonalEdgeStyle;rounded=0;orthogonalLoop=1;jettySize=auto;html=1;exitX=1;exitY=0.5;exitDx=0;exitDy=0;entryX=0.006;entryY=0.085;entryDx=0;entryDy=0;entryPerimeter=0;endArrow=none;endFill=0;" parent="1" source="AQozllkcELvnVLrpr3lW-5" target="5cP8XpvLMlVqHYWxAalp-13" edge="1">
          <mxGeometry relative="1" as="geometry" />
        </mxCell>
        <mxCell id="5cP8XpvLMlVqHYWxAalp-76" style="edgeStyle=orthogonalEdgeStyle;rounded=0;orthogonalLoop=1;jettySize=auto;html=1;exitX=1;exitY=0.5;exitDx=0;exitDy=0;entryX=0;entryY=0.043;entryDx=0;entryDy=0;entryPerimeter=0;endArrow=none;endFill=0;" parent="1" source="5cP8XpvLMlVqHYWxAalp-14" target="AQozllkcELvnVLrpr3lW-29" edge="1">
          <mxGeometry relative="1" as="geometry" />
        </mxCell>
        <mxCell id="5cP8XpvLMlVqHYWxAalp-78" style="edgeStyle=orthogonalEdgeStyle;rounded=0;orthogonalLoop=1;jettySize=auto;html=1;exitX=1;exitY=0.5;exitDx=0;exitDy=0;endArrow=none;endFill=0;" parent="1" source="5cP8XpvLMlVqHYWxAalp-35" target="AQozllkcELvnVLrpr3lW-41" edge="1">
          <mxGeometry relative="1" as="geometry" />
        </mxCell>
        <mxCell id="5cP8XpvLMlVqHYWxAalp-85" style="edgeStyle=orthogonalEdgeStyle;rounded=0;orthogonalLoop=1;jettySize=auto;html=1;exitX=1;exitY=0.5;exitDx=0;exitDy=0;entryX=0.184;entryY=-0.005;entryDx=0;entryDy=0;entryPerimeter=0;endArrow=none;endFill=0;" parent="1" source="5cP8XpvLMlVqHYWxAalp-32" target="5cP8XpvLMlVqHYWxAalp-37" edge="1">
          <mxGeometry relative="1" as="geometry" />
        </mxCell>
        <mxCell id="5cP8XpvLMlVqHYWxAalp-87" style="edgeStyle=orthogonalEdgeStyle;rounded=0;orthogonalLoop=1;jettySize=auto;html=1;exitX=1;exitY=0.5;exitDx=0;exitDy=0;entryX=-0.002;entryY=0.073;entryDx=0;entryDy=0;entryPerimeter=0;endArrow=none;endFill=0;" parent="1" source="AQozllkcELvnVLrpr3lW-78" target="AQozllkcELvnVLrpr3lW-41" edge="1">
          <mxGeometry relative="1" as="geometry" />
        </mxCell>
        <mxCell id="5cP8XpvLMlVqHYWxAalp-96" style="edgeStyle=orthogonalEdgeStyle;rounded=0;orthogonalLoop=1;jettySize=auto;html=1;exitX=1;exitY=0.5;exitDx=0;exitDy=0;entryX=0.004;entryY=0.163;entryDx=0;entryDy=0;entryPerimeter=0;endArrow=none;endFill=0;" parent="1" source="AQozllkcELvnVLrpr3lW-43" target="5cP8XpvLMlVqHYWxAalp-37" edge="1">
          <mxGeometry relative="1" as="geometry" />
        </mxCell>
        <mxCell id="2k7X5Uf9YQwkx91Mu9RI-3" style="edgeStyle=orthogonalEdgeStyle;rounded=0;orthogonalLoop=1;jettySize=auto;html=1;exitX=1;exitY=0.5;exitDx=0;exitDy=0;entryX=0.596;entryY=0.004;entryDx=0;entryDy=0;entryPerimeter=0;endArrow=none;endFill=0;" parent="1" source="5cP8XpvLMlVqHYWxAalp-64" target="5cP8XpvLMlVqHYWxAalp-51" edge="1">
          <mxGeometry relative="1" as="geometry" />
        </mxCell>
        <mxCell id="2k7X5Uf9YQwkx91Mu9RI-4" style="edgeStyle=orthogonalEdgeStyle;rounded=0;orthogonalLoop=1;jettySize=auto;html=1;exitX=0;exitY=0.5;exitDx=0;exitDy=0;entryX=0.25;entryY=0;entryDx=0;entryDy=0;endArrow=none;endFill=0;" parent="1" source="5cP8XpvLMlVqHYWxAalp-64" target="5cP8XpvLMlVqHYWxAalp-28" edge="1">
          <mxGeometry relative="1" as="geometry" />
        </mxCell>
        <mxCell id="2k7X5Uf9YQwkx91Mu9RI-5" value="n" style="text;strokeColor=none;fillColor=none;spacingLeft=4;spacingRight=4;overflow=hidden;rotatable=0;points=[[0,0.5],[1,0.5]];portConstraint=eastwest;fontSize=12;whiteSpace=wrap;html=1;" parent="1" vertex="1">
          <mxGeometry x="1105" y="1174" width="40" height="30" as="geometry" />
        </mxCell>
        <mxCell id="2k7X5Uf9YQwkx91Mu9RI-6" value="1" style="text;strokeColor=none;fillColor=none;spacingLeft=4;spacingRight=4;overflow=hidden;rotatable=0;points=[[0,0.5],[1,0.5]];portConstraint=eastwest;fontSize=12;whiteSpace=wrap;html=1;" parent="1" vertex="1">
          <mxGeometry x="832" y="1040" width="40" height="30" as="geometry" />
        </mxCell>
        <mxCell id="2k7X5Uf9YQwkx91Mu9RI-7" value="" style="endArrow=none;html=1;rounded=0;entryX=0.007;entryY=0.11;entryDx=0;entryDy=0;entryPerimeter=0;" parent="1" target="5cP8XpvLMlVqHYWxAalp-60" edge="1">
          <mxGeometry relative="1" as="geometry">
            <mxPoint x="700" y="1317" as="sourcePoint" />
            <mxPoint x="860" y="1319" as="targetPoint" />
          </mxGeometry>
        </mxCell>
        <mxCell id="2k7X5Uf9YQwkx91Mu9RI-8" value="1" style="text;strokeColor=none;fillColor=none;spacingLeft=4;spacingRight=4;overflow=hidden;rotatable=0;points=[[0,0.5],[1,0.5]];portConstraint=eastwest;fontSize=12;whiteSpace=wrap;html=1;" parent="1" vertex="1">
          <mxGeometry x="702" y="1287" width="40" height="30" as="geometry" />
        </mxCell>
        <mxCell id="2k7X5Uf9YQwkx91Mu9RI-9" value="n" style="text;strokeColor=none;fillColor=none;spacingLeft=4;spacingRight=4;overflow=hidden;rotatable=0;points=[[0,0.5],[1,0.5]];portConstraint=eastwest;fontSize=12;whiteSpace=wrap;html=1;" parent="1" vertex="1">
          <mxGeometry x="1010" y="1292" width="40" height="30" as="geometry" />
        </mxCell>
        <mxCell id="2k7X5Uf9YQwkx91Mu9RI-10" value="1" style="text;strokeColor=none;fillColor=none;spacingLeft=4;spacingRight=4;overflow=hidden;rotatable=0;points=[[0,0.5],[1,0.5]];portConstraint=eastwest;fontSize=12;whiteSpace=wrap;html=1;" parent="1" vertex="1">
          <mxGeometry x="588" y="1191" width="40" height="30" as="geometry" />
        </mxCell>
        <mxCell id="2k7X5Uf9YQwkx91Mu9RI-11" value="n" style="text;strokeColor=none;fillColor=none;spacingLeft=4;spacingRight=4;overflow=hidden;rotatable=0;points=[[0,0.5],[1,0.5]];portConstraint=eastwest;fontSize=12;whiteSpace=wrap;html=1;" parent="1" vertex="1">
          <mxGeometry x="650" y="1040" width="40" height="30" as="geometry" />
        </mxCell>
        <mxCell id="2k7X5Uf9YQwkx91Mu9RI-12" value="1" style="text;strokeColor=none;fillColor=none;spacingLeft=4;spacingRight=4;overflow=hidden;rotatable=0;points=[[0,0.5],[1,0.5]];portConstraint=eastwest;fontSize=12;whiteSpace=wrap;html=1;" parent="1" vertex="1">
          <mxGeometry x="1488" y="332" width="40" height="30" as="geometry" />
        </mxCell>
        <mxCell id="2k7X5Uf9YQwkx91Mu9RI-13" value="n" style="text;strokeColor=none;fillColor=none;spacingLeft=4;spacingRight=4;overflow=hidden;rotatable=0;points=[[0,0.5],[1,0.5]];portConstraint=eastwest;fontSize=12;whiteSpace=wrap;html=1;" parent="1" vertex="1">
          <mxGeometry x="1411" y="170" width="40" height="30" as="geometry" />
        </mxCell>
        <mxCell id="2k7X5Uf9YQwkx91Mu9RI-14" value="n" style="text;strokeColor=none;fillColor=none;spacingLeft=4;spacingRight=4;overflow=hidden;rotatable=0;points=[[0,0.5],[1,0.5]];portConstraint=eastwest;fontSize=12;whiteSpace=wrap;html=1;" parent="1" vertex="1">
          <mxGeometry x="1826" y="352" width="40" height="30" as="geometry" />
        </mxCell>
        <mxCell id="2k7X5Uf9YQwkx91Mu9RI-15" value="n" style="text;strokeColor=none;fillColor=none;spacingLeft=4;spacingRight=4;overflow=hidden;rotatable=0;points=[[0,0.5],[1,0.5]];portConstraint=eastwest;fontSize=12;whiteSpace=wrap;html=1;" parent="1" vertex="1">
          <mxGeometry x="1594" y="467" width="40" height="30" as="geometry" />
        </mxCell>
        <mxCell id="2k7X5Uf9YQwkx91Mu9RI-16" value="n" style="text;strokeColor=none;fillColor=none;spacingLeft=4;spacingRight=4;overflow=hidden;rotatable=0;points=[[0,0.5],[1,0.5]];portConstraint=eastwest;fontSize=12;whiteSpace=wrap;html=1;" parent="1" vertex="1">
          <mxGeometry x="1592" y="554" width="40" height="30" as="geometry" />
        </mxCell>
        <mxCell id="2k7X5Uf9YQwkx91Mu9RI-17" value="n" style="text;strokeColor=none;fillColor=none;spacingLeft=4;spacingRight=4;overflow=hidden;rotatable=0;points=[[0,0.5],[1,0.5]];portConstraint=eastwest;fontSize=12;whiteSpace=wrap;html=1;" parent="1" vertex="1">
          <mxGeometry x="1893" y="510" width="40" height="30" as="geometry" />
        </mxCell>
        <mxCell id="2k7X5Uf9YQwkx91Mu9RI-19" value="" style="edgeStyle=orthogonalEdgeStyle;rounded=0;orthogonalLoop=1;jettySize=auto;html=1;exitX=0.5;exitY=0;exitDx=0;exitDy=0;entryX=0.5;entryY=0;entryDx=0;entryDy=0;endArrow=none;endFill=0;" parent="1" source="5cP8XpvLMlVqHYWxAalp-37" target="2k7X5Uf9YQwkx91Mu9RI-18" edge="1">
          <mxGeometry relative="1" as="geometry">
            <mxPoint x="1568" y="763" as="sourcePoint" />
            <mxPoint x="1851" y="761" as="targetPoint" />
          </mxGeometry>
        </mxCell>
        <mxCell id="2k7X5Uf9YQwkx91Mu9RI-18" value="n" style="text;strokeColor=none;fillColor=none;spacingLeft=4;spacingRight=4;overflow=hidden;rotatable=0;points=[[0,0.5],[1,0.5]];portConstraint=eastwest;fontSize=12;whiteSpace=wrap;html=1;" parent="1" vertex="1">
          <mxGeometry x="1547" y="738" width="40" height="30" as="geometry" />
        </mxCell>
        <mxCell id="2k7X5Uf9YQwkx91Mu9RI-20" value="1" style="text;strokeColor=none;fillColor=none;spacingLeft=4;spacingRight=4;overflow=hidden;rotatable=0;points=[[0,0.5],[1,0.5]];portConstraint=eastwest;fontSize=12;whiteSpace=wrap;html=1;" parent="1" vertex="1">
          <mxGeometry x="1853" y="735" width="40" height="30" as="geometry" />
        </mxCell>
        <mxCell id="2k7X5Uf9YQwkx91Mu9RI-21" value="0..n" style="text;strokeColor=none;fillColor=none;spacingLeft=4;spacingRight=4;overflow=hidden;rotatable=0;points=[[0,0.5],[1,0.5]];portConstraint=eastwest;fontSize=12;whiteSpace=wrap;html=1;" parent="1" vertex="1">
          <mxGeometry x="1338" y="838" width="40" height="30" as="geometry" />
        </mxCell>
        <mxCell id="2k7X5Uf9YQwkx91Mu9RI-22" value="n" style="text;strokeColor=none;fillColor=none;spacingLeft=4;spacingRight=4;overflow=hidden;rotatable=0;points=[[0,0.5],[1,0.5]];portConstraint=eastwest;fontSize=12;whiteSpace=wrap;html=1;" parent="1" vertex="1">
          <mxGeometry x="1470" y="771" width="40" height="30" as="geometry" />
        </mxCell>
        <mxCell id="2k7X5Uf9YQwkx91Mu9RI-23" value="n" style="text;strokeColor=none;fillColor=none;spacingLeft=4;spacingRight=4;overflow=hidden;rotatable=0;points=[[0,0.5],[1,0.5]];portConstraint=eastwest;fontSize=12;whiteSpace=wrap;html=1;" parent="1" vertex="1">
          <mxGeometry x="1590" y="587" width="40" height="30" as="geometry" />
        </mxCell>
        <mxCell id="2k7X5Uf9YQwkx91Mu9RI-25" value="n" style="text;strokeColor=none;fillColor=none;spacingLeft=4;spacingRight=4;overflow=hidden;rotatable=0;points=[[0,0.5],[1,0.5]];portConstraint=eastwest;fontSize=12;whiteSpace=wrap;html=1;" parent="1" vertex="1">
          <mxGeometry x="1497" y="738" width="40" height="30" as="geometry" />
        </mxCell>
        <mxCell id="2k7X5Uf9YQwkx91Mu9RI-26" value="n" style="text;strokeColor=none;fillColor=none;spacingLeft=4;spacingRight=4;overflow=hidden;rotatable=0;points=[[0,0.5],[1,0.5]];portConstraint=eastwest;fontSize=12;whiteSpace=wrap;html=1;" parent="1" vertex="1">
          <mxGeometry x="1234" y="740" width="40" height="30" as="geometry" />
        </mxCell>
        <mxCell id="2k7X5Uf9YQwkx91Mu9RI-28" value="n" style="text;strokeColor=none;fillColor=none;spacingLeft=4;spacingRight=4;overflow=hidden;rotatable=0;points=[[0,0.5],[1,0.5]];portConstraint=eastwest;fontSize=12;whiteSpace=wrap;html=1;" parent="1" vertex="1">
          <mxGeometry x="1495" y="622" width="40" height="30" as="geometry" />
        </mxCell>
        <mxCell id="2k7X5Uf9YQwkx91Mu9RI-29" value="1" style="text;strokeColor=none;fillColor=none;spacingLeft=4;spacingRight=4;overflow=hidden;rotatable=0;points=[[0,0.5],[1,0.5]];portConstraint=eastwest;fontSize=12;whiteSpace=wrap;html=1;" parent="1" vertex="1">
          <mxGeometry x="1150" y="843" width="40" height="30" as="geometry" />
        </mxCell>
        <mxCell id="2k7X5Uf9YQwkx91Mu9RI-30" value="n" style="text;strokeColor=none;fillColor=none;spacingLeft=4;spacingRight=4;overflow=hidden;rotatable=0;points=[[0,0.5],[1,0.5]];portConstraint=eastwest;fontSize=12;whiteSpace=wrap;html=1;" parent="1" vertex="1">
          <mxGeometry x="834" y="956" width="40" height="30" as="geometry" />
        </mxCell>
        <mxCell id="2k7X5Uf9YQwkx91Mu9RI-31" value="n" style="text;strokeColor=none;fillColor=none;spacingLeft=4;spacingRight=4;overflow=hidden;rotatable=0;points=[[0,0.5],[1,0.5]];portConstraint=eastwest;fontSize=12;whiteSpace=wrap;html=1;" parent="1" vertex="1">
          <mxGeometry x="968" y="738" width="40" height="30" as="geometry" />
        </mxCell>
        <mxCell id="2k7X5Uf9YQwkx91Mu9RI-32" value="n" style="text;strokeColor=none;fillColor=none;spacingLeft=4;spacingRight=4;overflow=hidden;rotatable=0;points=[[0,0.5],[1,0.5]];portConstraint=eastwest;fontSize=12;whiteSpace=wrap;html=1;" parent="1" vertex="1">
          <mxGeometry x="1154" y="761" width="40" height="30" as="geometry" />
        </mxCell>
        <mxCell id="2k7X5Uf9YQwkx91Mu9RI-33" value="1" style="text;strokeColor=none;fillColor=none;spacingLeft=4;spacingRight=4;overflow=hidden;rotatable=0;points=[[0,0.5],[1,0.5]];portConstraint=eastwest;fontSize=12;whiteSpace=wrap;html=1;" parent="1" vertex="1">
          <mxGeometry x="1409" y="368" width="40" height="30" as="geometry" />
        </mxCell>
        <mxCell id="2k7X5Uf9YQwkx91Mu9RI-34" value="1" style="text;strokeColor=none;fillColor=none;spacingLeft=4;spacingRight=4;overflow=hidden;rotatable=0;points=[[0,0.5],[1,0.5]];portConstraint=eastwest;fontSize=12;whiteSpace=wrap;html=1;" parent="1" vertex="1">
          <mxGeometry x="1237" y="364" width="40" height="30" as="geometry" />
        </mxCell>
        <mxCell id="2k7X5Uf9YQwkx91Mu9RI-36" value="1" style="text;strokeColor=none;fillColor=none;spacingLeft=4;spacingRight=4;overflow=hidden;rotatable=0;points=[[0,0.5],[1,0.5]];portConstraint=eastwest;fontSize=12;whiteSpace=wrap;html=1;" parent="1" vertex="1">
          <mxGeometry x="1048" y="362" width="40" height="29" as="geometry" />
        </mxCell>
        <mxCell id="2k7X5Uf9YQwkx91Mu9RI-37" value="1" style="text;strokeColor=none;fillColor=none;spacingLeft=4;spacingRight=4;overflow=hidden;rotatable=0;points=[[0,0.5],[1,0.5]];portConstraint=eastwest;fontSize=12;whiteSpace=wrap;html=1;" parent="1" vertex="1">
          <mxGeometry x="936" y="447" width="40" height="30" as="geometry" />
        </mxCell>
        <mxCell id="2k7X5Uf9YQwkx91Mu9RI-40" value="1" style="text;strokeColor=none;fillColor=none;spacingLeft=4;spacingRight=4;overflow=hidden;rotatable=0;points=[[0,0.5],[1,0.5]];portConstraint=eastwest;fontSize=12;whiteSpace=wrap;html=1;" parent="1" vertex="1">
          <mxGeometry x="730" y="504" width="40" height="30" as="geometry" />
        </mxCell>
        <mxCell id="2k7X5Uf9YQwkx91Mu9RI-41" value="n" style="text;strokeColor=none;fillColor=none;spacingLeft=4;spacingRight=4;overflow=hidden;rotatable=0;points=[[0,0.5],[1,0.5]];portConstraint=eastwest;fontSize=12;whiteSpace=wrap;html=1;" parent="1" vertex="1">
          <mxGeometry x="568" y="546" width="40" height="30" as="geometry" />
        </mxCell>
        <mxCell id="2k7X5Uf9YQwkx91Mu9RI-43" value="n" style="text;strokeColor=none;fillColor=none;spacingLeft=4;spacingRight=4;overflow=hidden;rotatable=0;points=[[0,0.5],[1,0.5]];portConstraint=eastwest;fontSize=12;whiteSpace=wrap;html=1;" parent="1" vertex="1">
          <mxGeometry x="413" y="937" width="40" height="30" as="geometry" />
        </mxCell>
        <mxCell id="2k7X5Uf9YQwkx91Mu9RI-44" value="n" style="text;strokeColor=none;fillColor=none;spacingLeft=4;spacingRight=4;overflow=hidden;rotatable=0;points=[[0,0.5],[1,0.5]];portConstraint=eastwest;fontSize=12;whiteSpace=wrap;html=1;" parent="1" vertex="1">
          <mxGeometry x="550" y="651" width="40" height="30" as="geometry" />
        </mxCell>
        <mxCell id="2k7X5Uf9YQwkx91Mu9RI-46" value="Image" style="swimlane;fontStyle=0;childLayout=stackLayout;horizontal=1;startSize=26;horizontalStack=0;resizeParent=1;resizeParentMax=0;resizeLast=0;collapsible=1;marginBottom=0;align=center;fontSize=14;" parent="1" vertex="1">
          <mxGeometry x="1799" y="172" width="160" height="56" as="geometry" />
        </mxCell>
        <mxCell id="2k7X5Uf9YQwkx91Mu9RI-47" value="image_id" style="text;strokeColor=none;fillColor=none;spacingLeft=4;spacingRight=4;overflow=hidden;rotatable=0;points=[[0,0.5],[1,0.5]];portConstraint=eastwest;fontSize=12;whiteSpace=wrap;html=1;" parent="2k7X5Uf9YQwkx91Mu9RI-46" vertex="1">
          <mxGeometry y="26" width="160" height="30" as="geometry" />
        </mxCell>
        <mxCell id="2k7X5Uf9YQwkx91Mu9RI-53" style="edgeStyle=orthogonalEdgeStyle;rounded=0;orthogonalLoop=1;jettySize=auto;html=1;exitX=0.75;exitY=0;exitDx=0;exitDy=0;entryX=0.761;entryY=1.014;entryDx=0;entryDy=0;entryPerimeter=0;endArrow=none;endFill=0;" parent="1" source="5cP8XpvLMlVqHYWxAalp-45" target="2k7X5Uf9YQwkx91Mu9RI-47" edge="1">
          <mxGeometry relative="1" as="geometry" />
        </mxCell>
        <mxCell id="2k7X5Uf9YQwkx91Mu9RI-54" value="1" style="text;strokeColor=none;fillColor=none;spacingLeft=4;spacingRight=4;overflow=hidden;rotatable=0;points=[[0,0.5],[1,0.5]];portConstraint=eastwest;fontSize=12;whiteSpace=wrap;html=1;" parent="1" vertex="1">
          <mxGeometry x="1973" y="508" width="40" height="30" as="geometry" />
        </mxCell>
        <mxCell id="2k7X5Uf9YQwkx91Mu9RI-55" value="n" style="text;strokeColor=none;fillColor=none;spacingLeft=4;spacingRight=4;overflow=hidden;rotatable=0;points=[[0,0.5],[1,0.5]];portConstraint=eastwest;fontSize=12;whiteSpace=wrap;html=1;" parent="1" vertex="1">
          <mxGeometry x="1923" y="227" width="40" height="30" as="geometry" />
        </mxCell>
        <mxCell id="2k7X5Uf9YQwkx91Mu9RI-57" value="1" style="text;strokeColor=none;fillColor=none;spacingLeft=4;spacingRight=4;overflow=hidden;rotatable=0;points=[[0,0.5],[1,0.5]];portConstraint=eastwest;fontSize=12;whiteSpace=wrap;html=1;" parent="1" vertex="1">
          <mxGeometry x="1551" y="334" width="40" height="30" as="geometry" />
        </mxCell>
        <mxCell id="2k7X5Uf9YQwkx91Mu9RI-58" value="n" style="text;strokeColor=none;fillColor=none;spacingLeft=4;spacingRight=4;overflow=hidden;rotatable=0;points=[[0,0.5],[1,0.5]];portConstraint=eastwest;fontSize=12;whiteSpace=wrap;html=1;" parent="1" vertex="1">
          <mxGeometry x="1823" y="224" width="40" height="30" as="geometry" />
        </mxCell>
        <mxCell id="2k7X5Uf9YQwkx91Mu9RI-60" value="1" style="text;strokeColor=none;fillColor=none;spacingLeft=4;spacingRight=4;overflow=hidden;rotatable=0;points=[[0,0.5],[1,0.5]];portConstraint=eastwest;fontSize=12;whiteSpace=wrap;html=1;" parent="1" vertex="1">
          <mxGeometry x="891" y="372" width="40" height="30" as="geometry" />
        </mxCell>
        <mxCell id="2k7X5Uf9YQwkx91Mu9RI-61" value="1" style="text;strokeColor=none;fillColor=none;spacingLeft=4;spacingRight=4;overflow=hidden;rotatable=0;points=[[0,0.5],[1,0.5]];portConstraint=eastwest;fontSize=12;whiteSpace=wrap;html=1;" parent="1" vertex="1">
          <mxGeometry x="1880" y="149" width="40" height="30" as="geometry" />
        </mxCell>
        <mxCell id="2k7X5Uf9YQwkx91Mu9RI-62" style="edgeStyle=orthogonalEdgeStyle;rounded=0;orthogonalLoop=1;jettySize=auto;html=1;exitX=1;exitY=0.5;exitDx=0;exitDy=0;entryX=0;entryY=0.25;entryDx=0;entryDy=0;endArrow=none;endFill=0;" parent="1" source="5cP8XpvLMlVqHYWxAalp-20" target="2k7X5Uf9YQwkx91Mu9RI-46" edge="1">
          <mxGeometry relative="1" as="geometry" />
        </mxCell>
        <mxCell id="2k7X5Uf9YQwkx91Mu9RI-63" value="1" style="text;strokeColor=none;fillColor=none;spacingLeft=4;spacingRight=4;overflow=hidden;rotatable=0;points=[[0,0.5],[1,0.5]];portConstraint=eastwest;fontSize=12;whiteSpace=wrap;html=1;" parent="1" vertex="1">
          <mxGeometry x="1602" y="193" width="40" height="30" as="geometry" />
        </mxCell>
        <mxCell id="2k7X5Uf9YQwkx91Mu9RI-65" value="n" style="text;strokeColor=none;fillColor=none;spacingLeft=4;spacingRight=4;overflow=hidden;rotatable=0;points=[[0,0.5],[1,0.5]];portConstraint=eastwest;fontSize=12;whiteSpace=wrap;html=1;" parent="1" vertex="1">
          <mxGeometry x="1776" y="164" width="40" height="30" as="geometry" />
        </mxCell>
        <mxCell id="2k7X5Uf9YQwkx91Mu9RI-67" value="" style="shape=image;verticalLabelPosition=bottom;labelBackgroundColor=default;verticalAlign=top;aspect=fixed;imageAspect=0;image=data:image/png,iVBORw0KGgoAAAANSUhEUgAAAMgAAADIBAMAAABfdrOtAAAAD1BMVEVHcEw/hiQ/hiQ/hiQ/hiSp6tK/AAAABHRSTlMAc8AsHAYLPgAAB2RJREFUeNrtXG2WoyoQDdALMIYFqGEBJHEBLXH/a3p2EpWPKiiQmTnvnObf9ESvVVRdqi7i6fQ7fse/HY/beRjUvA4z9OeLrnh/sdx/BocZzo8qCBjABtRfDkLcEgjHcUSrZuoYLoUQc9YwZ/2nIV4wmdbc1VwycmBAM5ZwPV8e6zifWzAmel1sxpIOGkygEMk0JWYk4lP4UU5ymXTNv+Tn6zV5gXKMoHr45pjf0zHyAt/xck/F6HNzi7U0j8lyiJfTFAHlvnnqejpKRVgksw2jfDXajEHusU1Ir4+sPyrqME4N8wTKOrE68ggHMXaUJ27IYYw9SAFTVDWM1SlXJLSmSvXNC8XA3jK6Dsgn4zTox+up1njdroOmxNQrCBkUX6KuIe+HniCQpiLIiIHULNA54P7qIF8ACAOj4aC7gkCqmIrb/UCQijPPwYdWVU0RMA9X5Mftbt8IPXf1SAW42bqe1UBpsXuN81xr1ZJoxTJSi8yMQreBMvR4RWTVbtB6wjMqZmK9ngDJbv+8Gf8McJUxx2CCjhxeyrjbYpW3y+YGLrRvrueFEoBnhNEcB9EnpoKeNF+4WMKTw0z4CQehoOZao40P0Gj3n4xAQBogRDaTlj7+vPeiSx+PCArdmttPmDjfKcrK5Ain74iAdEDa5ukejcVf3zCtdVhaZUsrEiZ0H7tVpVb4fvFo2PUiGzIQvB5QwRUDOFVUebBBYzXk+gnMtSiQgbMV6bR4rFoBs2K5fxOrVjSteA3BPiPFaQypelnNBgW7GatZcmMgVet6HgPRFUEmLOpqVdxYPmBJWtydPDGQ7v8EgjA9ys7FIF0WemF/0mX50Y30NKfEguiLBCJJ3cUcA0k2jXdSA4snNieAvBtO2s90Dt9Atb8uY3qUOcUjv7PElw2GVfsXv3VOhjruFIEpesbTLdKTgk8vCOL+URBBIoEKBaerHgnibk8EBErT0X1u4p5ShDwgwlFuxCpahzzisQFQJ/MiVtH6cBkH+QZ1imeoW0S3QCKrBmCk9Jpl5pSQUzbTQ9MlApXE73IzmR7i+q3jfjqmGJXYhJ3jIBMsKu1JvzSUg95bZFC4iJVwARm8fmwkcInViHf5ICYI4CeHbiVkJJRZJMIDgn4FbCPAQLK0lCCUWYQTAq5Xb7MVbH2LBtknXi4UGmYfE0bE9S22088jAe6DrDdn2IaepSlcIKlx0unw3sJKYUv2HWayrxhVu4m6T/iIJpe1b21N/xjbZnYph29e4jO6Plhizz4xO4hJkafcHkXMeLVk62MXnygghzlcb99ZRlLYSsvVZa9SViGmOFxvxxSP1lqtL+K83M4QU8ZgfWr8GEiq2v0WQHfYFIfrnTxX8drU1vqW5Pg8ngQDzOZ65jz8mKhNnVdR+lUzBbeDbK53b8vmRPMSvOOkVzeaCNd7AaWSesUdkNChqyyu96d6TPc+NxWUMndgKi2u95Ocz+lmz3NZf9E3aFHd/yZBlS7V7N2gq1AQAWuBSX0H0q0bjOtZRCE/5cw/EC4b13MYJKxvf96/iwfzhHI9EeQdUF7tJWTc+o3rae66w3+X8Up243qhCBPPkGXj59q+RevYnetBf13hatyHfztd3H60XV2q4UBemegSIEle8Sv+YFoSDMQzQCTGBilZltNVboYmdkpgzgAZt/bkw75PqlSeoderPQm8F61SN6Hr9cx2kfOPpDvoUjoPO+9vavSQQWQ41xM1D8h6vfdmlbRclMxoql7vvw7GLReQQDrqvDfwv5MitswB8f3cEe9BldKDMLVckPSG50929obGwtR6uuS8uiDh0mWwMLW6jmSEuhdztL4JtB4PRNO11i90lY+ACBKIIYIgc5LeSmREkGDi95BiJJCZCGJwEJOmCwII8xxvvRDKaSDaBjF7klhZJrzaweIuQp0QgDxhzlHuf427B75oIA0RZK9AhfUiMKF2U0QQt2+110kiSIfUejaI8zb2m346MsdKHwSx5GQXx84b24TVwnmOGIjcpbTWqYYJ657j0RjIqjO+I9sLiSYTBJmTYBnYQo1Qizj3jVni7nJYvyNUVZwM4pqyGSKIIIYE4jbTV2pNH3BobE7cDmXKKqed38QtsRxmtbiUxkBkgGzqo70jwKkgmgpyurXD4J58I3WEdpgn5qS8t/VBnpkgpC5d/S2Q7gAIqZqWHshUAJL1JCWWqFyf4tXKwV7NB8kVCEld55fXx5aAJPtnfgxEkEFMOQhN02DHQQwJZE52Wgd1JtupeM9YEQTvfo9qf8dehxzpIF0xiKLpserICRTKNstWg5QeLlZEP4zlJ4OEpB4pY+XnjyQtzDedtODIzroLRNLh71lfH9gvU9Q9KduUrEPZ+wv4xA0Fln3Y/9Hmn7+SeZ8tcI4RXDLDZDuwo6NGqKwvL5xQyW6pdyGgx9k/2nEtSCv30EHvfHZjGFL7UenxF75ScvI3pemngTKZqP3DZuTCFHw2xoI5U5w2HP2ez9KxqYQRVT5NtOQDcrqs1sePNsfdnCM71T/j9Dt+R/H4Dz1sMKm6TMqOAAAAAElFTkSuQmCC;" parent="1" vertex="1">
          <mxGeometry x="2118" y="140" width="95" height="95" as="geometry" />
        </mxCell>
        <mxCell id="2k7X5Uf9YQwkx91Mu9RI-68" value="" style="endArrow=classic;startArrow=classic;html=1;rounded=0;exitX=1;exitY=0.5;exitDx=0;exitDy=0;" parent="1" edge="1">
          <mxGeometry width="50" height="50" relative="1" as="geometry">
            <mxPoint x="1969" y="192" as="sourcePoint" />
            <mxPoint x="2101" y="192" as="targetPoint" />
          </mxGeometry>
        </mxCell>
      </root>
    </mxGraphModel>
  </diagram>
  <diagram id="1rLzhq1uI-qrYNy05waI" name="Elastic search arch">
    <mxGraphModel dx="7427" dy="3800" grid="1" gridSize="10" guides="1" tooltips="1" connect="1" arrows="1" fold="1" page="1" pageScale="1" pageWidth="3300" pageHeight="2339" math="0" shadow="0">
      <root>
        <mxCell id="0" />
        <mxCell id="1" parent="0" />
        <mxCell id="QE7oke2RVFD652N8FTtL-3" value="" style="group" vertex="1" connectable="0" parent="1">
          <mxGeometry x="530" y="911.47" width="324" height="178.53" as="geometry" />
        </mxCell>
        <mxCell id="QE7oke2RVFD652N8FTtL-2" value="" style="rounded=0;whiteSpace=wrap;html=1;" vertex="1" parent="QE7oke2RVFD652N8FTtL-3">
          <mxGeometry width="324" height="178.53" as="geometry" />
        </mxCell>
        <mxCell id="QE7oke2RVFD652N8FTtL-1" value="" style="shape=image;verticalLabelPosition=bottom;labelBackgroundColor=default;verticalAlign=top;aspect=fixed;imageAspect=0;image=data:image/png,iVBORw0KGgoAAAANSUhEUgAAA4QAAAH0BAMAAACX3f7gAAAAGFBMVEUPkMCTx0C9ysfRVo7+0Qoku7EAAAD////kAL6bAAAVMUlEQVR4XuzRMQ0AIBAEMNxghAQ/v5x9Njxc0lroSjkqClGoEIUoRKFCFKIQhQpRiEIUKkQhClGoEIUoRKFCFKIQhQpRiEIUKkQhClGoEIUoRKFCFKIQhQpRiEIUKkQhClGoEIUoRKFCFKIQhQpRiEKFKEQhChWiEIUoVIhCFKJQIQpRiEKFKEQhChWiEIUoVIhCFKJQIQpRiEKFKEQhChWiEIUoVIhCFKJQIQpRiEKFKJyZ1FK4z3dv2ih87NzPqhNBEIXxnb7H7cDs02D2cuC+h8B1392Y1xcNWOr8c+AmqSPfySP8OFWpCZOmv2KGCKEW8hkAH8Kh5QDgQqiI5TSFUBHHYQphU8RxmEI4JGtDCJvkbQih5G0IoRbDle9DeJK3IYRD/5oJgJSETRHLdQihIpajFMIhb0MImyKWoxTCk2RdQwiH5F1DCCVZ1xDCIXnXEELJu4YQDsm7hhBKRjWEcFq8CU1qCGEr9UfO0+wm9KghhPVXzrM5alBDCEv9PVsXRb4fnSAMwcg0K2HmSQphCEaihDKYpBC2Oss5CPPXEMIQnBtKBjWEsNSlRAmzE0LY63oLh5R/kkJYNwnz1xDCvkx4sSGEsG4Tpp+kEPZNQuUnhLCsEE5BmHqSQtjqAcKMz0kh7GuEcdnnnqQQ1jsQJnr9HsKm7MsQwl7r5mWfnhDCskeYfRlCWM0JIey17jycMZ+kEJ5sCSGMyz73cQ9h2SVMvgwhrKu5QgjhI5YhhO1/J4RwZCeEsK9f9oaEEB6/7Pk+AyGBEMKyQyhfQginIOSqeEoghPDqRchR4U/YP3z6+bn8AQDh8CH89nbLRwjf/+GMND2Q8C4thPD1gYRfIXz3y54WtrdbvtyFsD2E8PVpuxBCpSekhdf7XvbsQgj3QwvL9mXPLsxP2I0JaeH+3wa11ITswsjL6mVPC00IA/E4Ibvw5ZbpuYRzxAstPFqxpxFG2gIhu9CCMNLK8TfT2IWJCAMxLnt2oVcLAzEI+aXCjDAOxe/smFFqhEAQRBuhcg6RLHOP/OxvERj2d48QmpW+fkSEkWTFIWnJSPp5hEfxpq1WGHdhWwrLjWGuCu0oYoV6sQ3OoTBaqBmSk23yiBVWUOVHVYchuStUTJA5Na3w/HdhwVuhCicASB5ihWdUqJghmQEMP1QYLbQ/U6hck4HhOIVvdgCxwj7jC98lvjZ82UcLRz4B74es8GrxIvVXqEI+l5isoF4lbK+F519hn7EB1xKbHWG0cOQm4EriiUZYWvg/XqQXbEKyXPuPRkcYKxyFm2CGNzeFdgDRwj7vrJBYDuQ2DcaLVCHcIXc20+ZBEXdhz4wdhE4xtAXtzI1ooaKGVBR6jJAi5kX8Ix2xD3mzGacRfogIkvkQK2QFQImhxwhF7iKduRAtVFRAZo8Y2kIvE3cnh/EivaAKcYhhWgSovEzfhEun4i5kHfn3MbyWEc5MFh1yGC1UVOERQ1v45OUMetvGgSgsJDB13wDtNVW20VUWUOneS65CCyNXVgLka5ZO+vs3lmQ9M5Q0HDLkODWEpLBafv44fGRglYhRQ/d2qLKHu99ZljMt/FsJ81Hsy8z2rsX+/LezPGS0x82K8z/uR04hfGlsNcSxr3egGEu+P55dAN71c5W5vYXAalZJ8yuqHtXJfVFmeSgLVdZflSzzLYSHnW35hvs5xEDCxCUdPugA9hwL+/X6Z5tg0aN0lBf6p993t+fHhfJH2wFA/dgX50dJ/hdRRZmvIWxsCzvd3oECEkr2ikZVBoCaayFfRNVvFBTfrNxWVFWRr5Bwcj1qGmz/QCEhIVtDtTL4dC6kR7klxA+MkH67HJcRNg2zGfoGisG/9xLTI3UmiGqdLCR1BsEYCGnh60WE97AsaDP8qQcKCQ13XgTBya8XQhSzTn0UhPSUnS4i3DX2hXDvEyjGPCHnZshZlD4S4+NsIaFFRIRVz7RQNbsozfDpuhOONWkoiGxoqUPL6IVMDR+jIITKTAvfkCkY4d7vhGKUUCaTj4wtGrKP0RbyNTz1MRH2PcNCBHtmuH/1kHCiJqGhJBY0tjpIRi9kaVjFQkgb/3UJ4X3T8Juh3wkF+uD5iVjQMHrS0d9CvArqpY+JsOdb+H3HqWdo6CIhAgVKnL9yDwlRHr0Q1RkSxkMIkTnRHq2Q0QzBkL2WEcPMKQb/5DyppuxOKLvbLMNeFnTzsxCuQJiYCCsHhEnDboZgyA8Uy0WtSU2DyqXQ/cfxvFBl16Ydt7wo9tl7PdyKKgBCs1UU4/2KagOh4lkIW5TjCYVMJPZlhqfBRhuEGLVuZT8xJyy02jlv170oP5D/VnSfhtD0WJYa3Ycv1TLChCkhyu2EAnlQa4sW6V4ZBA2GNWkh/9VBoFvp2Fnm+YkX9PvFrIS1Q4rSB5otIZYvCIajhEnKmEflKtuWsNAusKyEwi78RwcpTVkGQqaEKG6qH3GNNfGbdWTMo/l69vb5DTYM3nIrjPC5MyctPtAI+cneGDvuCcUU5SeA2j6b/RC3BF1HC6HhkfhuAIS4GdgGQAgJUf+yTihkIqGgHL/ECJVOhi8mJlOV2qkXQgETliZh6Im0sp+0E8aBL2pplF9ZgQJzpxif5yuZ2krSEoYSFnI1B9cIFvb2yicu+2u/nD5M6MmQUEwXUluX3ti2wnqLb0dYyH6TKLgf3kIF5RkIv/MlfPvFYIi1DCQcr7AaHS5ubB3ZTv3uFgJ5tzS7RvgYPdysDYNwBnc4MBgi1YtJN3HRUJOQDPf/mYoQsnBXpJBgoQN3MRCipQdBCAkPHxkqOwkFsvwkJPZqiDNDmgfCPWEhE+Ff4Ag+kSKa5kEQPs87ckNZMnzSA4UcMz1yPZYzFMJHaLb14yO/F6I2EB5jWFgRyvuFisPM/DCWLo3FWkbMxKSYkwUkTFK7YE9I2rpbCIR5PIR08qUt5EvIYGicUGAxMxgpIKFMPbIWQl3nY1C1jrCOMJEqIlL45cIbSMhgiLXMZNvIbsR3VZK2UAHH5s+lj4Vf1hGm4S0EwjrERJpDQnuGOKHAdhrw4dBXkqkCltVkH/MY/kfCwrAIkSnyAAgRKLR63txsg4SXlodYeL7US9xYZbbcoY/VXIQ10QtDRHsz3H7uSQUCxRbD141UD2KDe7OGV/s0VghdJsEjF+FXP4TKE2HHRMiXELUZ8nFCgUyPJqitT8cnK0EYBnlZGB8hbv+Hh1DxUj2DIU4oQCzBGtQ8vbfJFB2JMHXvhWieIaM9jbBlImzo0gKFNUMECgh3QYdVzNgl6R02QYwKdAlgYaQNtopjfILLHV0IFIsMtXChzFSPY8HBQfP3SG1ODHsPhEcPC7FKDI9QOCI8cFI9igwXCBRaSXTCyx9hc25P0jiFsfAFcTt4tEcs5CG8Z26t0QzNVC8nz+SEcRZPCqCVuUeyx1i3n9oLEbe70BYCYcpGyE/1NEMECkATCBTXKxlx0dBmVGrSwvZzLVQ4SI+GMGcifGNvrdEMIaHSQrzQZ1R4iaMKAlDKOE/064VQg98NYyO0DRT/M3cGrXHDQBQuG2pfC4XmunVIfG0Dbf9HYelViSm5ugqL/35hkfuhivZZGtneCSEmYXP5eB49jWaUYPuPyY+nPDWUecNatGGnLfxZqHBEH0KnQy0Vpk0Oj+uq0Jci9AWuXjPEULhIejyFZ/7slgxyupUIn8pzocdbplg5zq3DiDB7gNfJLkIMIoEIOWvBiRnWpfRXGLZIzSrsus/DhZJohbpZAtFvjfAoXD0izGboA6MQDUKEI1EHocvNhd3dTdLRnmRhYuiuD+G51NVrhoFVgwN0SeF3FmGzvQo9/YlE8gHoAXEVX/hajrBwa00zHGdW5LywlmmoUxBFJ2cIVLgoF/o7MVeCEkgan7oVVDgWI5zKXL3ebPOBU8Pbk+B5FuFBIKyqQv8gOtplX/Bjv5YKh3yEJ2UoEKGOdC3TsDnKvgxHMGaWCuHikLlQ/7t20QCDzyup0OUjPJe4em3yPWsW8h/MQnJEhlaESoV6ziAqFLyFUfSbq9CXiFAz9BgKqkxsqtHdFKK1ItS5EIJKhUKGwihursJJu/oihkwImqHNlUJk2JALf2ykQghqFeqZF/2eKiTuS1y93qg5cs43iT94ib4OwieRCxG0UiHxKnDvkwv1m1SIUOtwhJILBpGtGp5d+KqBUFcqwJGD5S6P4UYqlGvSCRGWydCzwx2ddUKGkUCn1RC2C2fzhOkufIDoxLt0bxVO9yW1em3xoz4mHoKln6liC1dToR6oNtx0ffKBhRl02C8XEl64+uxgWhdzD93lkSITv77E83oIX1I5x/OcelHaEC/Tdr8VKXEUtfrSZBgbQIBh77muwopQnJ1BIIR77DIG1fj3QoZ7qnA6VxUhyZBTFVhAhwwZ7cyC1IxQHAslvvTZlzzdNWJK6OZ7pMRJuPrCZEhDb7SAocMCTU6bqPBD4sozm/P9x696kvD2Kkxl+N0mQpIh5d3wTek3rhseliEcnPr6f0tLQrBgaJtPtDhUUeEvkwqRYerqLclw3tWmSshjvH/aZjes6EBUqSm8NV21xvBLfIU9FxoReuHqyzZoLnLD1rtg5GeKDbnxNrthRQeighECyVGhMhnfdj07w6KUiFy9NRnGhXpsRezuM2gYVPiAbEwqhAIJmPA7IfTiwExRMhyD1pie10CPTXBafCUN212+jJSwqZD/Bon9EU5nYShKkuE59MPM4OJ3KOVg126jQlRjUKGeercXwukoetFKkmEgRsAPnLhCkwo1d4+Rs6kQECF2PZBP+FNaq7cnQ8q+DTtqYfrFzNMdKtxvrrmD0Pi6Vrl1N4STT7bW7MmwYQUaXprYDHZtZPJ5tSBshXkuViE+oN9dhTCMXb05Gf4CVMDm6PRlp03SGCuoEERPtVTIpJid+gvTONcSIcmQM1AMVP+7eH+YVlXhi2icN1gXKowVG7VbC8LJ4+qtwd3ZtBXyI4LYZ7Up2FX4UqBCPb2P2KZRW8XZjpAhlogQP+iaAJJq71oI21yErQGhZWhJXYQnc/wIydAhQoTH88JLRDFgBhU+1FYhut5haIkIDEUFZxiNXHN0ZweaP3PmTBblwlyEbR2EQ+70p6oIIWFNhh01iWT8mlO2Pk31VVT4zaRCbXZY+G4wwMsuQt1e0R3nuiAsXUMNI2/OpCUX1lfhWFGFuEwjQgyFPRkCMRlwgcno89rgd86Fes4GCF0mwtGA0CpC3W3oj4gwtvgHQ9LJ+sz1q9CXzSOtL0IihnBPLrzYiQtR9zYTx/MVqjBFGCLXJBUNdraLUPfHADHy9KJEITpA9/WFQL9OhOdTZYREN18jGr7dIXs30qBCpLyqL2T5bLjk4CoRApG+GEFQ7AEXq/B51d0Zdsr60qtGrgbhP/T0LnhCTVAM6yxW4WBQob4LjN/26174o1NhfYQsTy8QIZhTXTWsSDFetVTIMQDhgPKu3Xq5YoRAbN5gOrJuRO/LVTjWqNpLGwDC1nD5nQ3hb+7umLdtGIgC8CDAneUAzuwzbK60B+p/uOguiEC81gzg+/tF00RUS1NPvmMENcwcCPJ3TwJB8VhIcJQoEEECcDCc4tuZRjdzSesqE3/xEZSNjvBHUcLr2rBwgApVf8GmT/rLOGEnPgi2m5EQrzbVdRnEnrCTpjASdoCwM489Gfx9Qi8/jrlZEOG2/j0UiOntGXEKNzFm4x2hPCmqKtIa8aHoflmESsR0a6A4hT3SBe7i9ecHiuqSeehfIGEq2+MugPAPWt0PKvUyfPHSFN6yVXB1mV2DOzJIME1bJkuQkIc1tDhCPaKDEQl0Gk9hiD7JZrOUsL+qr9Z0DyFbEJl4YsLDWCuNQDszLyH3hHGslU/SOAbhIKKjtW8KHkzzhkBxkhoBU8JVz1E90cdFw94l2KnE0CjQ1toGECZdcSoy73ZVFW9lZsJQ13JE1EfLrf5NT5tNYZrkteFAtItG2RQOh2897h40DJM9WhczmRLCfm8uaa6BCMPnEirmGKB5GkhhVH1o1/4D/TPhZUAKQVOB+VN4/pgWqhEjCR5gJej6GYQdfGBMT+EVlJUyhXrCOESGWLAFKeQihLgboowQP2q+LSGFYJqojSFaeLiVJMzP4A5iwp8FUshlZ/aAsHQMUQpDAUIcQn4VE7L7XwifRYQ31bsQNyHyAsKoACulm0IYlkZYFyVkp0ghjuGJ3XRC0HlBTMi3xRCalFA/PQzydyGOIf3dTqYZFUfrUnJCPnxpQg7CFOIk+7hcMZAPQkF+lRPyYSGEPEpYs9TQaVKYqKSrS2Td6u3vGRCCo9Q2uSrBhHxQEu4LEoZyhLi3a3symZUKaEh5iq116JyKqQ7tVELe3heszPyEV0yoD2JcS5Al2cN9HUTRMdPPFBv6s9EUqj3RzJ8/nSGhBnG3eVdwVfVERlEF1eT/pv3RWt//oBM8wvcBAD86qL/JVbzarIS/2Luj1IhhGAjDZ2hvsAbhI/UcEZi5fvtYWCg0liMG/nlfAnxIyWQJLiasz/jJrd/Nf13k7mX6v6n42iAk24T1L2feM3UsEGYh4YfvFEI4bxMSCCFUCaEMCCHceTnzqYOBMNwJIVyFzf7O/4UEQgjTnRBCPfByRn+FQAhhuDd7CFcVoX2ngJBO0UWo481+yjwQ6nAgjBrCq22PQri2m30zIYR5mFCnA6EaPmuqDYRxlHDqeCBcJYSNexRCHWz2/nsUQj0RCFdFs+98PwphniPUI4FQBYRX6+MohGu/2at1jUKY+51CV+cahVBRcLzB1blGIVwVJxe+GgUhVMlhTa9GQQij5IyRpBD2EebWHn0bxKGnA6Gi6qymzDnVEAhzbwj7A6Fibwj7A+FyH0IIFXuNoj8QLvchhFDhfieEMN2HEELF3uGv/YFQ9s8yEKb7EEKooNW7E8p+jUKYVEJ3Qi33GyGECndBCBXujzIQKtwFIVS4C0KooNK7E2q4C0KodG/0EErDfQQhlOINcMoqEErjt+L4bp8OSgAAAQAGdhlY0I/1fRpBlFuFY+uhEJ5mjerufwh/CaEQCqEQIhRCIRRChEIohEKIUAiFUAgRCqEQCiFCIRRCIUQohEIohAiFUAiFEKEQCqEQIhRCIRRChEIohEKIUAiFUAgRCqEQCiFCIRRCIUQohEIohAiFUAiFEKEQCqEQIhRCIRRChEIohEKIUAiFUAgRCqEQCiFCIRRCIUQohEIohAiFUAiFEKEQCqEQIhRCIRRChEIohEKIUAiFUBsDLw/C4/lXFQAAAABJRU5ErkJggg==;" vertex="1" parent="QE7oke2RVFD652N8FTtL-3">
          <mxGeometry x="62.81632653061226" y="34.16535222222219" width="198.36465517241376" height="110.20479025862068" as="geometry" />
        </mxCell>
        <mxCell id="QE7oke2RVFD652N8FTtL-20" value="" style="group" vertex="1" connectable="0" parent="1">
          <mxGeometry x="1610" y="910" width="326.67" height="180" as="geometry" />
        </mxCell>
        <mxCell id="QE7oke2RVFD652N8FTtL-6" value="" style="rounded=0;whiteSpace=wrap;html=1;" vertex="1" parent="QE7oke2RVFD652N8FTtL-20">
          <mxGeometry width="326.67" height="180" as="geometry" />
        </mxCell>
        <mxCell id="QE7oke2RVFD652N8FTtL-4" value="" style="shape=image;verticalLabelPosition=bottom;labelBackgroundColor=default;verticalAlign=top;aspect=fixed;imageAspect=0;image=data:image/png,iVBORw0KGgoAAAANSUhEUgAAAQoAAAEsCAMAAAAM4A3QAAAC/VBMVEVHcExRnEJTnkJTnkJRnUNSnkJUoERTnkNUn0RSnUJSnUJSnkJSnkJSnkJTnkNTnUJToENTn0NToERZqUhYqEdWo0VVoURXpUZVokRTnkNUoURRnkJXnT1RnkNUoURVoURWpEZUoENTnkJLmUNRnT5UokRVokVXpkdXpkZUoENSnUJBhzpTn0NYp0dUoURTnkNSnUJSnkJWpUZTn0NRmkBRnUNSnkJUoURZqUdUoURTnkNQkz1Tn0NToENUoENSnkNRnUJWpEVUoUNSnkJSnEJSnUJTn0NSnkJSnUNOnEJUoURUokRSnUJlmDZSnkNUoURYqUdSnkNRnUJTn0NToENYpkZToENRnT5Sn0JUoURToENSnkJUoENUoURSn0FVo0VUoUNSnUJToENUn0RUoURRnUFUoUNUokRTnkNTjDdTn0NUoUNToENVokRTnkNSnUJUoENTnUNTnkNPnEJSnkJZqEdUoERTnkNSnUNTn0NSnkJUokRSnkJSnkJTnkNTnkJUn0NXp0dToERQoURUoURSpkNUoURNmT9ToURSnUJQnEFTn0NUoUNOm0NSnUFUoURSnUJRnUJTn0NTn0NUoURToENSnUNPnj5YqUhToENToERSnkJTnkJSnkJSn0NSm0FToENTn0JDlDpToENTnUJSn0NTn0NTn0NToENTn0JRnEBXpEZJiDlUoURToENToUNUoUNSnUJUokRSnkJUoURUoURUoERTnkNUoENSnUNToENTn0JToERTn0NTn0NRoEJSnkNSnUJToURTn0NTnUJUmUJSnkJUokRToENSnkJSnkJRoENRmkBSnUJUoERSnUJToENUoENSnkJSnERVo0VSnkJSnUJTnkNTn0NTn0JZqkhSnkNUokRVokRSnkJTnkJUoENSnUNTn0NTnkJSnkNaq0hTnkJSnkNSnEJSnkJTnUNSnUJSnUJSnUJSnUJTnUJTnkJSnUJarElaqkhTnUNTnkNWo0RWo0ZTnUJWokVSnUJSnkJTn0JTnkRVoESqKT6VAAAA/XRSTlMAKVqMwev////82ax0QhAsgNL1////////5qtSByae7//MYAUT6////8BEAtj//CVAvv96DSOZ+v/PVAp26LQ3UP/4lB0y/+RxFonxTARo3P+qLkbC/4IVpf/af+2+Pf+ZObbreBuT9lYIbeGxy+Cj9I+KGJH/3mmHrrLDSGHcyv//oCjlCucRmx8iltYMNbi7Plhc0fkhD/+P9p2hT28vxmQEhiqm8IRmqCv/AdRKTcg63nzzjJF3stBya/L7uC+IZqPVtxrOp+Ju4QgUSn6f//3dF/00gvHJz/+42frDv6zm/ej5/4nyecbMnPWn1B738P//uV73/9b/tO31WS8JDgAAGK5JREFUeAHkwQN2RDEUANBX5aVGNNa3apu/tve/kOKoNie5F/5WQ2NTcwtBpK1t7R2dXWCq7p7ePsYFwVtSsUw2ly+AgYqlMlMS7yGCV6o1Cwxj9zjcxSeo5wchmCSqxVzgs2jSXxoAYwwODSt8EWHOyCgYYWx8glN8jZicmgb9zczOMYlv8dX8AmhuscqX8B1IsryyChpbywkvxfdx+frGDGhqc2ubE3y/SlLdAR3t7u0fuPghqeceHoF2jk9OFX4YmSyfnYNWGi4ukxQ/w71u5z7AoyjXho/fhpe5FyFA3nlmJ5ggI4HZkTCASyAL4SVZIMPhCJgDIi4EVoRIKCIYAgYJJFJiCMSEjvQWCIQSerGhgAXQT5RilN7sYOfU67OLmdmdJ9ndZGY5P9tVrP9MxvspG7Zf42gIGk36Jye5sLLs9gEDIThEh4SxbvSBRY59pCUEgUGPOnn0kcsxeEgMmFzKY0MJg77jSFgqmNmw4SMopmyOyCLqkriR8WBa3R+nmLJFeVTbJxoQ/WIMGT2mi1mnbLekoA6GbfRkGkCXsZ0Io18tfdz4KDCdtKdG6//HKX3EjET42aAJnIS6BOnpiWAuPTInERH1OOXJCfC79mEU305Z2eIzU8BEQu/ledRjZafWmQa3iGk9nXWhHiY9uX4OmESbZ2Nli/5LcOhjuVDOjLxYileGm51pjll8Vgear63Ej8wHDQOfs/Ooi5cKCsHw2rcjHMUk0W42eDBnLnGjnix5Xtv5YGjxGYKkoA4rmd4hBjxaUL8pxWNlXTi1ziwwrJRFzxNG/wsau7ilzpJ+SQuKJb2TPL4UjGnYsq5ERD28bUAo6Jr4oI2n2OTi7loOBtR9hSxQzIv9Vq4CClHjxxGRZpNrdTcwmDVrRZliyi5a1w0opY0ZnU4xi7Pj1kcZ6zC4UZL+lC2LxRsqtogJ18+LG/kHm4FRlMzZxIqoR8h+ejNU0Jat2QLFJpdlyQYwhNLnJJ7iQd62fhVUWOSyETTLd0fy9rpQ7eY/0olQTNk7dqZBpXTZRbMN5naEhUD1itk9XX+bSpHcGYlQaYM6UoxtKDn3lEI1ithLnBRL8XsiwCepc2UOKdZ3i7pANcnP4CSapfi+GPDRgu3JFHuk1qQR+yOhGqTsfMHBoA4LebFtG/CDhotfJBaKB3BF1c/iUesfcFBM2fxLA8FPWg3gKWZx2V38clVvU/URUA+XtGmOX++yzaRYvjMLR7/SF6rMlLtbyFn6U3bTIQvAr3LqJ1Pti/c7sAqqRE5rnf2EAN453PBqi2yFZpMrFKpA49ccbtRjlwaEQkD0vlcWkGJP5JE2EGCFBwWKKdvRL3MVBMiw8aNYkeLAefqQOAig+Y/No5myi1anQQAdqjGaZShe2o9HQKDELZu6UH/K7uMuXg4Blr9HtKEuyTkyHwKi+1aKKVuQJ1fJkBNxmFDM4un/G4hZvN7rbv19lHD2jTfjqupW8NSF4RR7A2/tPwJ+dXR1IwdDsRSvygVR7mNDKWZxwbbiGPhP9Mp+rKi/FHdmJEKVyu+4kVdQh5LtengN+EnofTxPc+AVAVVu9lyaV4aj6ds54AcN3/l/+ofBLsfUDjFQDXKG0ByluR0z54CvFrQe7NCfsknss/OhmkxZ8q6cRbFGfrTU18NgB4d6eOGlUKhGze6l2Ge2kE55M6DS8kcKEupxk2q/eRx14DjFLG5lp9eJg0o5tHMHYfSX4snrjkK1e291kYOh2OQ63B4qLnL8OP3Sivz+3WugeqhHQIrlex93xomAHAYL2ff2BsOY+DTFvzLDjn6yG1RAr9cpDoNF9oH10WAgPYZvY0WaHQT6c7q+J0+xjP7ccv9f08BgutTYQRiaKx7NgEZ0ZnOHSHH31Ji3PPInOG00m1zPtgRdhc9t5ClexacTwKBmf0A5iy8Ar2bkUaz2wh1v7ZsFhhWze3CZFfVwbNgc8GzYPorDYItjXl4uGFrLZ2NJFuqR7B8OAg+2PE7xaElCx1IwvMJHqWbx5zungYa+i919FP2907mpYApzNlGcUYhlH0WASuI9ZS7U4WKnm+cjXAvebkqxLy6FP1RS/on6P6L/PJ15dgaYyJRnKM4zrUnvRMGtBg7O1l/xD2gFJjOR4sMYTNkT0bf2+z8beudOmpkZDaYT1VN/UWkpGwO/i5nMoleu9KKn+oIpHXpS94NbLr4x/KYzq7MUZ4p7gWklZnA6/2sUkqfALwbGWnVu9XQHU4s4LTvRG3ZCCfwk6ixBz8SF2/ZHgskdWTaCDUfPGOEY/CTBnuXtwEu1FDelQ7v+19srQz4XDQAlH8qeD7y484kQJOJHOj3fhGXebwYAvZ63ev4YTgIEkdntPN+EXbgYAOokebx72iEOgsqC1tM9rS7cF2YBnJNQAyO/SP+RPTPN4he1Z3FGbAV1L3GaF1YKWkFQCj1n51FDWR1IvGzVeCRemxMNQWpVZr90BlXsIyFBylKViD2ZA0Gs7+oz6hbW5tD4CpYnt4Ug95iMKpdhe5Kqz4sDIcgVvujC8hS4SrAc8VpDCHJTromoAk9ppJgCBvbfFP9NMSzyV7dpisiUXqGZH49ZfPClTw5/+rPDn9730sHPOm/fnzBoSrcet0eKmIZb1tU+3fWiIPA2mRBZ+g0hRM6WeKf78+Nnv3gqtV5OUKeImjL+7i8vi9msxDGKoqCaoihZVqeNtYkXJ2Vsb5Vj7BQxLRu2/EPD6yVAJ7q0/ukb9jKBsSioS7EwHCEXu6490MawKaLqv1H01S1OJT/dDCi06XC6E8tbs7ACFMZNpKKMkLrGTNH/a7v4Z47RiaCn9O7BhHdhJSgisR1f19CAKZqMkrC8b9qCdwPPv0hErDTF6Wj67AbDpWijsflBCnR+ntgZ4kLfiGyjdX0NlmL+BY0U34Jn0cN1LrdQEsse+M7cKTa8RDj0D54v7mLiFAlTWQX9hXHMLDRtit3v8uhPfXZkmjTFSTkc/Ut4v44pU5yUXehv4XJ/E6boL7vQ/8T3D5guRabTioHg/v6YyVKcaOTEwOAbtDRVipjJBAOFLehhphQnaeYJRuSEXzZtpB/xTi6cUVCfhdQxUYo1L4jojcjbbDYZi7re+eNW3uSDB08f/vGPo7qeqmXLttkkjkGvfihqY54US1j0iHHK5NrNg2PGb47f0OVoVNSwaIDoYZFRR9K6bIifuHLd3w43CGd5UUHP2CdMk+LlG1b0wEq4UUvmJE4DL65P7HBfsmxj0BNXbKlZUrRlPd4hv7E2IgYotNl/r4t4jMF+YZIUaTVF1CRdXHICaJUce47jUVv46F7mSLFSUlALCesNFTJ7ZnoWanLUMEeK2ixqUNiO3aCC3iuWGdTCT6prhhR9u3KogXSMgworGUs0W2T9MNEMKUJFC6rZbh6FyhirfcuM5JkhxceSonWFtDtUzhcENdjvnGaCFA+no5pcAJXUZBKPaq55g0yQ4qyMKkr2SqishPcZVGP3Gz9F3Zt2VBFPTYFKq01QTX7C+CnmX/g7qthvRkOllcZqXcMMKzF8ig3XrKgiFUDllRTIqOKumWL4FGs0U3wIPgixK1ie63KhSVN8Cz7oe8mN5SnSd7fjUwFrWVS58rE5U/AfgC8yBQXLY8cYPsUdpzRSWE81BB+0+dyF5cm1DZ/i0Cgnqsl1wAdReyUsr+wdw6eY9gGPatzU+eCDq1+7VD/osb3hU0ABQQ3yihSovJx/CFf+7Psa0cZPkSejFvmjLeCD3sPfvNXweDMs0jN5BbXwYsfN0eA/JkjR60UGNTGydfL2+JLbKEXclzx6wPDs8x8siphyu6SAzunomZWX5ZqT3xk+cEaP2yBFqJVBr0TJli1eOl375OzElCNBnaLHJzLqsogSkQTmwuTiMfsnTukWFZwpILOPgjQUhRElNl1gLl/4pHjMvvYn0qYFW4ojX9qwArIYRuTJN9muy0WTPmy7vXHh9R5BkwISBAYrTGFcIieRK/zlmndOWNSzWZugSAHvlGGlZblEQSKsMnhv7SGbp5g+xXvNZfQR4+Yl4qy5YnFIvUgzp4DSZAH9IEu0ybbLW/O2HDJvCoiItaOfuCTibFB8IM2sKSCkkYx+kyU6+AaLN68yZwoIfaBMQX/WYMO39swxZQpoOIC40Z8YSZ7UIcaMKSCq//1JDPqTwsvtUs2YAiBxpFv2cwyJf/i6GVMAbBkgECv6E8OOWGrKFFCyNONGmcCgH/GxHcyRQu3E1eZWVrAo6C8iWWfSFAAxE9vOtPYhXBb6h0s+aZoUanVL6x/s6rbJvFVB34nSSjOlUEtp1nrka9dssiQ5RQZ9wu0YZLIUarN6de/w8KejrollJJt3uq1MFlYK+fSIGVOo9V3e/cDVtZ8cr/m5Yr/CEskpWhlLBVvsNnEKtaguice+q/PKkm+//Oe/0MmWyU4X9VPivJRmwhT6juSsmbjy5GcH7/yccTocdqoe7EkTp9C3ILdw/NiMsMucRJwW9I6fFGP2FPpi7tiy7h+j3LIsohdZQnvzp6CS1qp1QTKxWdEjdon5U1Cb0vOl0URED/ibMUGcQi1xbBFhUBPT4kRQp1C747NwAbUofQ4EeQq1hKkSapHGGDjF8kUfFtzqw12F4AeJb9hRAzlo3BSDml6R/uzK0N7gBxNjGVSTPo02aopV932D5X39N/CHJ9JRbePNGKOmyPlKxPL4s6vAD5ppPRbchVyjpmhySsTyxAY54Afd3hJ0Uhj/qWBq5YM/HJZMlSLuTieWZxEOgD+cNVeKI3sFVGE/A38oMFeKkgIbqmz8Mg784FNzpYAnCKowF+PBd6vCeI3KdzYxbIrVV1CNPAm+u37BrTVi9TBsigPyv1FFOJ4DPmvWgkGd5Y+xUgysxaBa9njw2XYW1fp0Nm6Ko5fcqMYfXwA+itprRxVF2m/cFPCthBrkq+CjCJHRupNUauAUrVnUYD3TG3wSeTgb1biu7xk4ReG7DGrgp9cDX9SQFVQjE8DAKY7c5FGL3C8RKu/ARhfqvCqMlwLWpaMmeWoCVNa+MyJqEItaGjrFmn+JqMlu7ZwClXH9YVlELQtHGvygsDZBbS4yqs5RqKgFy8YRBrVYhAiDpxjYgkEPnGTSQ4lQES333cwWUJu8N9LgKWBCEnokkBv39R+YBjTi6vX8x2DZrqC2LHklGD1FYqdwrxfKbOKojmO+i++yoAd4ENWkTe86SyZftnk7PpYnrzJ8CqhRhl5ZOELclms3z/0t72qdZbMT2h87kXjixInEVu0j2o+vczWv9tnjN6z2dMmFXjDv9wbjp1jwpYx6LIzVKZFvyiTeyriyLv+slotxCVLZN0TiXLqXPL95xxQ39FoN5ZCSojA/cv2M+VGWglSyX+tmihTwF4nBgBJ2lJrlCuvYsiwMoPAzmWCWFJHFrAUDxiVvN9F19yNflDEYIKK8DkyUAiLbyuEYEE6utdk+GtO6BY8BIN+fCWZLAUtHlFnQz5iyTYVgvhQw/3WeR7+SxEeagBlTAKw8nsSh37jZfqkAJk0Bh64OLnOjX4hs0UPvgXlTALRZNLjMaUEfKU62qPMaAFOnAGhTv59ArIoPHRjZ9sYrdwCYPgVATMj5UxIRK1eDkeVaz+3vC2DOFGrz14+8xGfLFczB8MR2+d7tvUoATJxCLXdL5xU1edkmcQzqc3GSjeCm2j3rRZvxB7zoa7m5Q+3DDWo50mWJd7pFK8NY8BYM47K6nXZJZsnlNz5pu35QjKl/1o2++QNn7877x97jl07dYEThyh9YUaz1ec1RXx7M251amgL6fE/R0BDX3ael9BrUPSLkzT8ciIhodSI3BnzW8JRWiqvqFJ/7+6kwnA2fa6Xor0pheT8k2FPM+UE91CmQeQXLkz5IC+4UXT7gUaUWJMhZWJ69+XclwZti1YHjdlRxHYf8F/+DKrz9pYHBmiJ0gH0jqgn/gL7/dKOahXTKmx+MKWY8+6JsQQ1luwE+4VGLlZ26b1qwpYgZMp11eVja9gboX4banPLWpcGVIuFxB4fa3JfqAuTHWlGbInHnE4MnReJIp4SekLUAUPI/MnrCpO+ocQjo5Ro3xaFdo9MZ9CRrYwL8aI6seNsmG9UzCmg1/KdozBRH9o9yiOiZ7dNI+NGRT7PRC8G2YiJQKtW4likvgWp37HS2gF4o2SHws+7eNwgU+d0la4BKCEEVuS1Us3rFLllBb9LPDoNfrC1Dr1xscv8coPCZjCq2zlCtmvRPZhn0StwRD79KmyTr7qyHhYCuJl2dWJ7Ct4ZqVDJnJhHROya9A/yudAePOni+YzzoWNknSyPFSqg+pc8JPOpQ2CdK4A8RQ+2ow0KGPjYfvIm5aUeVLKEZVJf5jw2VLajD8k3BNLhV6lAb6rEunO51Fn+KoBrzYi+oHtP2TV9oRT0M+1Jd+LOJIyguwnCkXQR4EnHGimo/HO8G1SKiHeFQl7PP4jgor+VLsoC6bNz5E6DpWCMnaiAFUB1OnOdsqIthm44HDdHjHyAixV89euwUUGt8v3ZIMhaq3qEnR7MM6lFkMWM5aDtU437C0BxZLxpU/pFa4uZQSxYXUQ3bVOOIiLoE+Z6l4FlihmhTKGLcOLcsfxj8Kqpw1z89JRSLrlf9NpVkRy2q/Zg48GrpaZuAuqwSuRxW+2Rm4znf7V4Spnj+IpCCEqhSLe9uIWchzWSQC3rilr2VJKI+Ky9LP7PxXha/2X+BqhTTuqmDQV0S/9wgoHF90fOEQRrKj9Ab8fNcqEIhc1k36nI7XgsBWvkZYh8F/YBdC1Wn9EM7j7oYNvlkE6iAhK3EiT5jWoRCVbneeR6xoB5FZorXQMUcGT5ioYg+Sq+yl+a0v3R1WFGXU/5kM1Rcys4dhEFfuKrsoTi2lQioK9wxbn8kVEr+ebekYOWVLYYqUe91MVtBPQzZsSgNKi3itCxgZfEjukAVOPpQI5opW3KeTwRfxO0bwYZjpbjc7SHwoht/xIqoi5PvaQ++mt/5X5V6ZSjkSQi8VgN4HnW5HFNbx4EfDJogVvyVoZQVl0CgNVysPgxWyyIt2rYEP2l/uKKvDEtZxxgIsJiPB7Mu1MXzA0LBf2btm+rgkJ6VLY6DAEsNo9mmEtl+B1aBX11/qEG6oCAdXnglGgIrPoOTUBeT3mhdX/C73P7HicRQPRIjUiGwDlGNf0p2+Ov1ICCO9lwR7rAqOiHS5y3OhYBatX4b1TZV9tObIWCiuz98TZa97E842XlflEJgbX4wm2bKZt8YHgkB1Wb3g5it9YkFheGJMK5zPgTWhlfFbIVqm+o6BFyPE60LLgk2WeY5jhMZK8dxvCxLUq12n0X0hcBqso5mykZJeLQUqsj83q2LHwx760LXr2rdaHDhrS/PZqxLfXkWBFh0ZnOHG3Vx5GYIVK24lNzrG+JP5OamxEFVKHyJZsq2soP750BQm5/XiWbKlls80xCCWty+qawVddmzdaZs89uylXLKXhkNQW35XU6KtTGz8P4nu4Gxdd/ZMwcqL+2vLzgopmwbd9fLYGy9il1s0mupUEmRPY+zIs1e9j0RYGwpOxsRBlFyn+8FldH7rERzhutosHsaGNrRDlN/vUXLkEb9F0BFrVnyLtVhcGzbGWBofes8cMt7X0xql1DRw+DBLN1h8EAwtMRX3iq3DShxFfouSZ1Ls3MmJm2aA0Z2qPHB0Q5OUZ3KvFA/B+jE7xFotqkWNn07BowrJXXtCFm2ogY3CYugu9gwlGabSn731TuMPA/dPcImOxX0QOKK64GOuOFUU7bQ58FjYGC5//zaqaAXDEmuHwPeREyWBZop+439kWBkh2qmow6RzE0Fj17+m9VGMWUn3RjbBQwudFsZgzpswshE0NT3qRdYhuYq7chBYHzzl7hkRfeLem1dDqhEr/zIQTNlk3btwRy6U9xFENM3paoeqJdsVIfB04fEgFlMe/ONdKv+Xuxd9eAW8x+JpZmy5U6PtAEzuf7IGd3/LoY0+mM+mjVkuoPmMFgaUAhmEzpA/16wOz1sNvwstR3dNlXzzGgwn+j1o/QHJYmbEB+1Kv4fTqrPLBSt7gbm1CVvHtH/Lrk8+eznVFO2WLsXmFfoOf1r+C6ep5myyekEMLXoA+McVvRZODti2TAwu7RFQ3VvHOsfBu9KgWAQ35Hn0QcSPzIegsV36suV1DhHu9kQRN6rQXv7U/15+LcXQHDJn8BLWFFZMvPOFAg+ITPT/44VYuf/ZyIEpZyHGi1kkJrIjusZBcGq3l2chHQYx+i/pkEwa7/J4UZ9iuR+PRGCXE79onRGf5vq8S1wG6hX223T+ekQ6k8GB6sEb5sTFjIvbwbcNmZ1aOppK4PnCwrhttLymaEa97QZfmHzxtFwu8l/tVGSJDJ/ZBAFNjysw1G4Hd1R52yy+I1sFwSBJ1fE5L07e0fCbeu9Zj0XZWRkjPxidWZoClSr/w8EGtq1MmNUmwAAAABJRU5ErkJggg==;" vertex="1" parent="QE7oke2RVFD652N8FTtL-20">
          <mxGeometry x="106.66775510204083" y="20.080000000000002" width="123.99940065348108" height="139.84599072624044" as="geometry" />
        </mxCell>
        <mxCell id="QE7oke2RVFD652N8FTtL-22" value="" style="group" vertex="1" connectable="0" parent="1">
          <mxGeometry x="1100" y="1340" width="345.04" height="190.12" as="geometry" />
        </mxCell>
        <mxCell id="QE7oke2RVFD652N8FTtL-16" value="" style="rounded=0;whiteSpace=wrap;html=1;" vertex="1" parent="QE7oke2RVFD652N8FTtL-22">
          <mxGeometry width="345.04" height="190.12" as="geometry" />
        </mxCell>
        <mxCell id="QE7oke2RVFD652N8FTtL-14" value="" style="shape=image;verticalLabelPosition=bottom;labelBackgroundColor=default;verticalAlign=top;aspect=fixed;imageAspect=0;image=data:image/jpeg,/9j/4AAQSkZJRgABAQAAAQABAAD/2wCEAAEBAQEBAQEBAQEBAQEBAQEBAQEBAQEBAQEBAQEBAQEBAQEBAQEBAQEBAQECAgICAgICAgICAgMDAwMDAwMDAwMBAQEBAQEBAgEBAgICAQICAwMDAwMDAwMDAwMDAwMDAwMDAwMDAwMDAwMDAwMDAwMDAwMDAwMDAwMDAwMDAwMDA//CABEIAVQCWAMAEQABEQECEQH/xAA5AAEAAgICAwEBAAAAAAAAAAAACQoHCAYLAgMEBQEBAQACAwEBAQAAAAAAAAAAAAAHCAQFBgECA//aAAwDAAABEAIQAAAAv8AAAAAAAAAAAAAAAAAAAAAAAAAAAAAAAAAAAAAAAAAAAAAAAAAAAAAAAAAAAAAAAAAAAAAAAAAAAAAAAAAAAAAAA+c0CI9Ti5tUSRGawfnkThG2fKbhG1xBARWGiJxc3zJdyyQbjgAAAAAAAAAAAAAAAAAAAAAAAAA9RUXKRRtGScGUjXQj6ODErxBWSHkqxkY1zNTCaElO+/jOebifR8fWueHlw0ee1iSVo7EA2dAAAAAAAAAAAAAAAAAAAAAAAAP4dcwa4l+/Z6+MKX4ujx7TkeAZmJmDW7Hc3l+i3/4LtNVuI6/aLPw4/ZniaMvvOMx5mYedtTtJHOH7CaOLZHgOmGK6xE+Qr8H38Zt1OzlUj3ubE0IS/EdwnZ0PTtOCTsAAAAAAAAAAAAAAAAAAAAAAAFdopXnYldvyFFu3NX8L7XXAASIcV1tu6tk/UfLYVpwJuNUAB+7+P62SINmGW+N++pH2srZhvaa4efiyNB0xStVvnzrJPj67fozqAAAAAAAAAAAAAAAAAAAAAAAdT8X4v2/Go9duompHSaAAD7/j6v8AVOLV0i7W1q1q3unAAA/hKvHnc2pK9zjREt3V/gGZijx9WeYDmmMmus7yQltUAAAAAAAAAAAAAAAAAAAAAAH550vZ2jUi8HQ+uDVr2eegATIxjIcm/BdpU3sXBAAAAAnAieS5cY376mZaCuvk9GzOh3NjmjNxoofPb4YAAAAAAAAAAAAAAAAAAAAAANYTqtC8LPEMVLLGwMAALn1XbF1s5zhzQ3r+XAAAAHj75d4qjZWtROsNxwdxx4zdqdjagolc2JD5+rzAAAAAAAAAAAAAAAAAAAAAAANUjrIi2dYmCawk+QqAB8n189hDTC2PX33Mqj9Pz7yT8P34XlYv9egAD2ee7N6HcyYcH2cycYyJSbtTW3ye7x8n00x9JrdcrLTQAAAAAAAAAAAAAAAAAAAAAAMLHVdFyefoSqn2HgwAD6vn67GOkdvI1e743dPluj4NlY3BMzEpKWrrbwjLxgBz7DyrwdT7L8OysfEOy18gHG9X1411Kk+/5+pyomk3Wqqdk7ZJJyAAAAAAAAAAAAAAAAAAAAAADwOoYOwdliM6Slra1/0AHMMX9+xWpPbuk1aqtuk3Vc3eVqZZrS3qeb0L7Dlq9E0RMAJ6IglLYPS7XfTj+qq/T7CdvWtk/wBCi4FWvZ57cBrTYGpfCEv9n6fSAAAAAAAAAAAAAAAAAAAAAAAdWsX2un52gnd+oHs89AH6Px933qe2moFXGqr7fPc56nZ5w1OzslwZMVNKz9dwBYRhiWPyvv4r/wAyxTu1ynSWa4Gmil9aOung87ByjtwqRHOb/slQAAAAAAAAAAAAAAAAAAAAAAAUZSYn9fzqhXsprhbaa0AfR57f1pxarr+7k1T9/noyLhZd4CqFl6HFvKueT0CQDjersfQfMFMC0VdJDuL62fiHJVp9WXr7ItxPXS50xtjkvz2zGAAAAAAAAAAAAAAAAAAAAAAACFIrlHNrcVhh0k2PQByzG/e9TUiz1CW4NWfb56OU4/73vqiWgoKXEqv7PPQPb572ANN7WUTrc1gyhr862VXOd6R1rK13E6y2FqqwpLnZUHKAAAAAAAAAAAAAAAAAAAAAAAAcbOq/Lj84w7UNspAIA2c0O6tt1wnqkPa2tf8AQbJ6Lc26q3T5SCtdWoACfOHZU2a0W5rYTnDl5mplm6Qlra03faM3Gq34WXfuAAAAAAAAAAAAAAAAAAAAAAAAB1k5eP6bnqCd36geIBm/U7O5/V2xdE63NYPPz0WBoalfmuLkVxJviAAD9j8v0v5U6tTSutLXG4vWawsafdcZBjX6b71ptoAAAAAAAAAAAAAAAAAAAAAAAACqsfj++Q93VqRob1/Lgen3y/jTq1NKu09cNaN7pvIv7U5tXRztjWbCe11oAAmsiuR7NMDTTqX0mgz1GMh1Q8HM7BgAAAAAAAAAAAAAAAAAAAAAAAAAxodZsWtZ3hmpPY6BQBI1xHX26a2z7Tms5Xr3fPtl+CJmpX2mrj/QAAfT8/V8uoVotnef3nXxcz0HYaH7hHESrmWQAAAAAAAAAAAAAAAAAAAAAAADrkC4VtdbRpvJTvgeZigSKcT11s2ntp4+sTJmuycfi+/0tZ6d4Zr+TJFHk9AA5bjfvdaqxZCSuMJEoi/j+vJTfA1ANNzssQAAAAAAAAAAAAAAAAAAAAAAACM4pgk2NiYIrCz5C39NtOc311Smlrupl1G05AdpNscCqncCrVuqt0+0hLXVpwRt9YABODE8l7s8r0leyZ4mkx4TtMva3YT/AENSrX+4fsfkLl4AAAAAAAAAAAAAAAAAAAAAAAAOtuLZmTj13bdVf0z6jnbx1PbT14eW6OczZ6/H/f8AEVjJ/hPEuxwL/FOLV0DrjVW1F6TnwALIUHTDYthGXtKOq5vNOo2mOOO6qmxj/vqUdpycgAAAAAAAAAAAAAAAAAAAAAAAABgc6pwu+/XzuX9/HXz/AJfrLyW+O34+PruuOzDq9jsHF0i/mYmVTivFT3VPotEABbSrlPNUmB5nx+YVNsizAWpj7QAAAAAAAAAAAAAAAAAAAAAAAAAaulGo5AXNSomR8Hifw01LeHvkE146e6p9DogB/S7FVWyNP+JJP7NQAAAAAAAAAAAAAAAAAAAAAAAAAAAAAAAAqYn53vkNd3qg6d9NzwA+b6+b7FMLZUteH7DssgAAAAAAAAAAAAAAAAAAAAAAAAAAAAAAACsAa2kZd1qkaG9fywA8i+HRC5tW3U7PsBAAAAAAAAAAAAAAAAAAAAAAAAAAAAAAAACAkhfMSXFqrFzIHEgDNmq2Vpeidy9N/wA/u34AAAAAAAAAAAAAAAAAAAAAAAAAAAAAAAARulIElys/XavtM0UACZGMZD/AqRZ2xqTIAAAAAAAAAAAAAAAAAAAAAAAAAAAAAAAAHHzppTtQu05KhHcqqXHf3/H1++bHaPcXXKi2f66Lj+q7Zk/UAAAAAAAAAAAAAAAAAAAAAAAAAAAAAAAAB185gcuj9hyuhMgcTs1zu94vHfdUNsXJvUk9oAAAAAAAAAAAAAAAAAAAAAAAAAAAAAAAAB8BR7KyBkAyOSrFzA31B+X+nxEVJPAR09tyHEMnH2l5/eTWxXJGfNPtR6/fI6e35CJCR+Cw3s9bsbpNzMjGMh7nct0f9I/uy5TYXS7bPmn2oAAAAAAAAAAGPyCw+I9B95LIbaAAAAAAAAAAH8PWe0AApqWervkTDy57IelPmeLkx8dpyVXCwEI3lKmWa205vfU2LP14+L6+LBsMSxsBpttqV0egrXzrDspMfdvZ3gOaqeFmq9zOxbI0ukb98AAAAAAAAAABpcda4Xiz5jHhT9Ow6N/QAAAAazmtBJeAAAAAAD8n9Pz65O71QuxjpHbz9/8AH9QK4c4Q/gzbavKevztftzqrbdcJ78gD8X9fyop24rFZRguY4ZJQjuZyLpFl0jfvgAAAAAAAAAANLjr7js4gCtOawFvc4ofnHOz+g40caOfn1kQREQW8wcEP0TlR/D+nzHCjn58BxY5efSej3zrsLsVFufVdsZItxHX+QOM/v+PHP3/Hr87l1Qv3U6tVmfV7EACMfveKrVTrDWfdNt5nIukWXSN++AAAAAAAAAAA0uOvvOzhB6ijcS7kU5jM5sa/l78q1mnxnojDLxZS6NJS4mVtDYA5CcZJGSMox6ZRJ7yvObnkdZb4JOSMXveKqoWHgz8r9Pz3847q5KOF7GWSOe8yRg5nXbXWqP2OdILgewAAxPscCgNceqsoPAdtM5F0iy6Rv3wAAAAAAAAAAGlx1WJP8DjpImTGEM5c8BDkQvETR2ARscRymOT8oiBMkGYyyWCqIY/IKS/6bgHWtnZVH3GOzr1zsbAeJjTPwtD+v5eM3vOLgtluMbIUHTDV/n2FOx6o/cD2+egAYh2WvoP3CqzJdwnZzORdIsukb98AAAAAAAAAABpcdfUdnMACq4bck9QMPFD4uBFZAwgcWLh5h8iBNfyy8SMAhbIpiJs7FkxadXMWUQDExbK6LRQuSnHFlSCpkAGhPYcrTis7Xn4vfm7XVSye2vOb8ACISSo/golyMMhYWZM5F0iy6Rv3wAAAAAAAAAAGlx18h2dgAIpSumXhgQIEfxhkuqHkR/FRss3kOhJcQsF3M9BQWN/CKU7E48DrfTsaDkhigpzlv/bazr4rnVO7E2lFucgYWWBHp2nJVJrHwLYghWW4JZcjC7/VCy37/wCP6gY7zcOiDbyr1wCtNgq+MzRPM5F0iy6Rv3wAAAAAAAAAAGrZTUL54APEqFGj5y0+YvDFawi1M7mqxa7NvCgiWtzUgioMkG3ZxIw6XUD3EXRVJNkDXMt3EhJWeneGISZVjafOHpUzxqNpr5udTAhMMWWwK6ztK5HfdVsZ0hyFWU44nUiOT9gdNtdUei0UB0xRXzjDyr5NQrRVLbGwPgjcaraTn94P4CS/hOzm6iiSgAAAAAAAAAAAB4H8PYAfw8DzP6ARzkFBbuBThJWCccAH8PSe8AGu+71EcPb8fjTPw8w6zYSa8H2mW9bngYa2mujD77isQbLAzNq9hJzwXaw3SdHev261U9kPSliHZa/ye+Xrz+ffIy7rdhn/AE21AAAAAAAAAAAAAAAAAA+cqOGAT5zcYtTHtAAAAAAAAAAAAAAAAAAAAAAAAAAAAAAAAAAAAAAAAAAAAAAAAAAAAAAAAAAAAAAAAAAAAAAAAAAAAAAAAAAAAAAAAAAAAAAAP//EAD8QAAAGAQIDBQQIBQMEAwAAAAECAwQFBgcACBESExAUFSAhFjE2UBcYIiMyN0BVJDAzVmBBQlcmUVRwNGGh/9oACAEAAAEMAv8A1cYxSFExzFIWeytjmsmMSauMI1Wf7ocNMuUCWRZ/pruqw45VKmaafNQZbgMPv1E0kLxGgeMsldmSdSInYeTJ2KqpIEMqsomknY87Ypq6iyElcI5R0tu+xImPAg2FbSe8DEpx+0FjS1FblcNypCCFsKxUmMyYvgmab5/d4AUJ7edQGAcsHCzs2rLb3LCcwBCUuHapyG8DLLtTnaHhIsrbdzmBE5DrP4p2WL3tWtJUPGKfAvEK7vNoEiKaU/DzcApVMg0y7twcVexR0qHzQRAoCYwgUuV92FaqCrmFpiKFqm5vImYMtP1EFZWflCwO17K06Uqy8anGEY7K7MqAd9ssa3Edksjy/Zt7PmfbMLmkBu5TkU51J7a8xV8RWaRqjjTfIu4HHCpzOJm3tCRW9W4Noxw3lqzDSMnN5AyzmKWFivKTMset7TMlzRU1pEjSESZbJleUBf24gGPsmYcv2La5A0lspmUymNGWlmuLXZ1kNV+Dd0+jEGdf2XVhsBT2GwSD5VjtnwxFkKLivEdHLi3CrQvT8DrhANifDD4vRCAr6oSe13D8kU4t4I0eeybK484HUrFkXSNaMOZUxe78SI0kkS4v3cWiuHQir+RWzw1SuVbvMQlN1eUbyjD5luY3Bu5N6/x1SXajeLwhtjf3RNCyXLrxkAzisf4viEyNmsTAspzcTDtjnSg4xxIadbhbesI92YRjYoZ7vgDxHwwdNtxNoTEveYqOWCN3HRpxKWUhHTfTLJONbWUrd05jjGtO3PFF2SM8bxiUa5rtOxvhiF5mqLKNCwbimSJjpV2LUeae53vrkwigoxZFDNWRQHj4skbTHcBdGwh3tCOelhNxcUuJU5yKcMhi7NW7gyUTipVFwF+w1YvvpGtz0rIJuSPmzhVq9F6g6Ks4J6kdOyDH2uzxRwPHz8mgNfz7bI0SJzCaEyhVcn1C7Jgz6qTd5lra/WLoRzLVgiNfsEPPZIwDcFSIi4inuKsqV7K1dJMQ5wbvvmG5XJp8d0FVGNXInYNtGJQyHZ1J2ZS61fyBe4zHkKmCZEhfWCwzFokFZOaeKulvLjWgrXqcIkoUxIe43CExjXkUEEyC4sdnmrW/PITTs65/K0dOmC5HTByuzcUHPDhAyMZcvvUrrjyu5GjSSDMzdOQn4CTrEqvESyBkHPYAmIYqiZjpqY0zY4ZHbwduW6zTLWJoDLNeFM4IpStbnrhgLIwqmQOg8rNhjrZX4iyRKnUj/l+6m3qW7Kq8M1UMqxwvVmmPcXxKSpCIq3mzOLdZpCWWOIo+VJJVwsi2QIKi9WiIzGlH6joSpat1oe2+cdzLwxuX+RjTJ0hSHZWjpRV1XrfVILJ9bTctFEFF5WLfQki7iZJEyD3sEOPoOsE5Bc95LTZRYyye9KrpAWu2pFEAU2dWA8njR3DrL9RX5cqcE0lFB91fTXvGX253X8Stl+U9n8fO0UDdM4BwAA82D60WcuBHy6fO13DWjpMmNWbKcDfysNZFPWJIkBJrj4Hm2hJz8V7TxSIHk+2lOzMbhWXRPfuuYpvcRvVzB9vY+cRj7+T/AE+XXY/TptsPrbMyLIZfgRU9Q3IvBLFQDEPd5tv0QDKpuJU5eCmTZsZ+7TToDcyP8r/81hW5haa4MNJHBWSypUTVG2u0UiCEb2Vggq2euJh79zxwSw7Mc2tkaAlg7u44eny69/BNv1tOAPpZZ8dblBHr1gP9vlOPAhh1XSBWMZtDcOUVFRWUWXOP2kkllx4IorLCeNkky8ykc9IX/wCvcPmABMYCkKY5mNJuEmUDsa1LLkxxW8gVG2R8gtWJVNjnmvFlamEqmT+J7MZsxe32tJcvMG8GS7rjNJjzcB2gxasfiUHSqfIHy6yMTydenY5LlBXbIsEbmWMbK+g7k2oi1rj3h9nypk6qyCWp6Iey9KXhY0yaTms4Fq8MkmvOqmmHS09jSoF6ZncHHC3y1jR+r3XxlgGrhiurXSMO9hyNWcjJRryHfuoyQS6LvyRcY8mpBpFsE+o7qGN6tQYsr6TBqs/fZzpTJVRFknKSuktxNRMoCa0dOJDkRcjjH805J/TL+EOzAEWLu4rPxD7verNc6lVr5D8TYYgwr2LaPGcDAf5cPqHDUWmNF3DKNRP93ntj3+i96J9rzR3AJSL5vw2KxoVSrLTqyCjklpytbbWc4HenjWEMSOVm4sJoynhhMV42kI4nQiWZ22OpBrV75L4+YSZpGG3DQhGU9GTKRAKXybe4xJ5bHz5QOOtwVmWLMwld4nNGwGR8UM6+is3OwjtTEm2uF+TesGQMWmWXARuOJBPjwEPcHZt2hxbwUlMHLwHMJFcobimNSZLfYIUCFKQocC/L91EYauZrbTyfMRKT5LbikFyfb0ACX7I+/wAiBuRy1PrJJOtjGV0X8JexrZ7ExaCxaTUggzxvImj77XHZlDa3EsSr1Bi/APt+Tbq8TRssu0N+LcSwMhbIh9/s4B7+GscNgd3iupCHENwrno1Bs3AeHZwObgRMOZSII0x5jci7oQBHapDuLfliz3x+XvCfzDe3X1HEFTbOQS9PbjNFtGHodJU4GWsjA0VYZqON6D5CeqqGsh+mMZbRfwl7YdUUJeKWD0HMiBXeNJc/v8uL5rwK7Q7kw8EtwEAMnVm0u3JzraxQfkv8CI63GkEa7En/ANNYqro2O6xaRi8zXdlcS17HngLdTkd7VKQNUxk1lHKfJI/MNwtYC1YltTUpCndbKLGHRtdWUPxPnSHGMvazsC8qPkj0RcSUY3L78rqd1xnJl92i/hDtYhzPmRQ9+Ux6WL5wD+8PcHkA50zEVSHlVqUi0yFj5AFRKYZ2JXgZmShnJRKrR3Xc7jXV/drPjbvFHFYA7NvtY7hBubG4JwWzK7c5nztE0SIWEWbJm2jmbVgzRTbtPmDxqi+aOmTlMirfDLlbG2fV6+6OBSbi4XvELFziZeJ/JSUQcXKrom/Dn1cUaKdEvoHbTY80rbK+wIHHWen3ccfqtuP2vLgS3eDzi9ddKAVluCpn2mtxYpaiFOjLxCwe/LBAc42kTG99ehHFjmY2FbAPPkGyscU40fPkORI2zymnkpGz5PlUhUW+Zbp4Rel5fhrs05iISHQv+LiuScFdcpkxMmf0P21h6EbZq+/MPAmamBpXHzxdEonEPcHbt8rYv7C8sSxOLbcTPFdSsVAJH4k8rdyuzcIPGpxTc1eWj8mUQveQKcXdadwV4RrS5R62W1Ss8byCZx9dvdO5UV7e8T9d0twe3a6wmLa3xeHotTZUepQVWY8opfMt3VPCwY0CdRTKL3aRcC2HHalfcmA7rJsD7OXaZYlLwb9pg4h6DwHH020vlDRQeCCqtvrDyoTzyGdlNya4CYQKX1NRIdtQ6EidyAJHsc2vY5ySmVx4j5sIW81fsnhDhXhG2HHzKct1ftI8hVcvprWV1XaGyEepfLPE4ix05dp9NENqFGeWayzeXbGkot80mYtrORMlDvkwVZ4AmXGL80StOlFOmluIrXeI+OsyBPvfJjS+r0abKqfmUh7XUq5lKAQXSWTFWz44tlVWOV5GrO2uMoEbFd4dgokYUc+2EYmpJwzY/Iv5yHUSOmqicU1sTX9K5QSSLo5SzcXVisbDN2Z85728z1d3OXsmROPIB83Th6jBwNLrURWodRulHyNyqMQPLK2ivx53G4rDTZXpKXZmJoSdh7JGtpiCkWspG/Md3NSWq92ruTIkiiYVSWjstYuZOuYqgSsavDyb+JdFEi/bjnHz29yoEEDoQt3u1UwxTgcLFTSSqG6DGVsRIjJufA3lfkqbMnUeVpzBPlbPQKvb1Ulp5l3tXJOFT1pmrN1xRZ5HB6+vmYMXUo9bRzFIVneOsRMKaKEy9eLLzUy0Ss8FJxjGWM11I7Lp0rtRaOtzZUGWzq1HEAfXsEk4nZrUEuCk7YZqTVy9tUrUHUpSyVJ29RdbNLPNNbfK1ZPvLmE+Y5eobfI1CnK4chO+bS78tXLFK45nTKNgz/SBIslco9H07KXT5G6zSMWyAxEJSTqWGqUd04FJnH5PyVOZPsjiYklFO7UnDd+vT1shGQT5FnSKbV8IUcyXOmTVvyRYbNOGlEJB3HtsZWNe60pJeUAFnFojiRFkmo1L0S8uAo5J5c1XKpQPrcLaZNm5iq6xeKtEIK22SsrCtCy7pqKG4K6t0+C6UUuMbmDKdoWK2gIhqsenQVyT5ZG4z5nbnc9myLhIKQocG6Sdzmz7HK0DWX95kkhI8+ZbpMdvKLcWOVKwUzZniPIsLmKjFK76J5LImL5emvl3DRus+gK3VZy2v02EOzVU1AwtcxRUll3S6LZCLqrjctKLW6zO3TKgx1GxDjtIOlFV2KGWzbRIREyUWbv6l8yRNXtYpXP8HFU6mTN1kU2UYgfutYrbGqQjWGYF4JX/ANbrZPNtwbc8zYHX+lnotWtpkzzkek5cfQTQObm7ouIM8WY7iA6vgrERncuYoorc4LTsKkfKO7iXnUHMPR254ZngjAszlGVStdrK7RqDVq2Ytm7Jmgk1afMrNW4m3QUlXZtsR3GzMVfts2QwUaqqC0oe5vHNxYopTr1vXZOYzZiOrs1HQWaDV1m7OdgykIoMGzqMpu1/OcDARZaJaXKcaSw43pF5MEk4TBRdXbjXxNxRln6ZYvAFOYqFWendyOrVkDHeJYcwO3cew1iHIyuTq28sZmYMUL0PG5WMfNttacIqwvuGs3Td2mM8ydfqcm/K9kK3urYKd3VaXdxpPEe4q0KGFzDWkBhtneUZXirNvoOE1QtpNAqy6T+wKrXF+mmmiQiSRCpp/NLfTK3e4dWCtEYjJx9p2TyZXR1ada2KzOo7KXXeyr3i0Nu5/RvSfZD2E9nmHsvctlbdZZZ3RrMDMpMM7mse/DT5V+3WyBurhCGI+g7IQpXW7W6cWicfaGCOV8C2vHtRQuFusDSUktoZ+fFYhq9By3Kxh5tvrQW9FByIcNULktG69R0cwnT/AMB3lF44oZjrZ0bjjN0XWQi8t3sYeU48CGHWPS+C4oYqD9kdqbYktmi0zChecf8AAd3jQHGHHio83HZmtz0GVR1k9LpXyxF8oEFUyaQe+2uAruHZI/Hp62SR5FHV+mjE+9/wHc4z75ha2gGtkz3qQduY8dZlb93yBK+nDy1poZ/YoRoUvMO5qT8GxBKIlHlNsxiiNMbzEmKfBf8AwHMMaWWxbfmJidQdl02VrbrDAGNym3DxKjayx0ty/ceTB1fPMXJN8JBFrvUtKabKtVJJT+I2/wBfUreIqYxXTSTdf4C7bJPGrloumRVCpSshifLqKjnmQVvtZaZHpoAxVTMs8Zuo50sxfonbO9CIB7x1XalP2t2RpDMFVdVmCgcQ05y4kHSZADxPcVnFIpQV8LRRTbopIJF5Uv8AAt2mGnxnx8oV1sZw32/blEqu2b0+7nOMTLVPH+TmqcgQzN6Ydt1f5+ITkmCcbhXH0CALvUu9GtOZ8V4zZnQB+xOvkDLV+z7ONavXo10nHYGwq0xJAKC7Ok9tf+BqpJrpnRWTIqllbaCylVnk7jd0nGO/YnP2NFlgaxFtjU0MsbhF+Rig6sSqhaZuZvynRcsrb06bsvkHZu+ZDs3d9UTGdNxvH9wqsQkzHsWWSbpnWXUIklP5vpUIc6CTlaVcOtyRebgyrZzkJuReAP3laIIRW4quuDEJKRr5gMFZ4Kytwcw0i3eE7BEADiIgAWPKlNrJjJPJIHDmQ3ItgMYsZX1lShuPlePEYBASxm5CKUMUstBu2gVy/wBVtBQ8KlETLdluyVW6U6bs5ozsFq3Y461RSMxFiqLT9PKSTWHj3cm9MJGp9zuKCGMUZV1x+tDib91d6+tFib9ze6S3P4nUNy+LOk9Vi81S4o9auzTKRD9NwD/sHmzdkF5IyqtXjVzoxuOcHJSzJCbtKiqaLLGFHYkAiMCzHSmPqaqXlPAR/CyYGqkoioaIBSGeukbRjCymQBVRm/oltb3Ous5dLgVdddJsio4XUKkjknMkjOul4WsqKNYulYMmLCROTsTg8WyisP0SLIUpYgjo40KniXlGAjuEzhSjyyZ+mwNHL3PFdloSnirFdR7HYozId6s3rlpVDr63HfEELrCH5fxX6jInwTZdYPqcJc8lBCWBr3uP+rZif9hNr6tWJ/2NTUjtcxa9QOmixfMVb7RLZgC0sJSGlF1WGMbshkGmRFkTKCa38q4WdnTa9I2N+ksu1xhk+HynDu5mGavmiH85cwkRVOHvMHiV5EHPqDVMqTZumQAAnbuIhUV4WNmiJ/xW3F+sVSdjDc3Sz7dlGLdCqR6okWwbjpGQ/wCrZhEFEPd6B5HDdF2gq2cplWQyxQhpM0R3HcxYrDtzNa62VJ2fmktx3xBC6wh+X8V+oyJ8E2XW2X84E/JuoYN3WNFXKoB1doDpZSnzjQwm6Oln7FvxBw8aoilKRq/DoyDJXyKvGaH9d02R0WZiDjyklI8wkUIoHMmcqhdZ4/Ku2a2c/Ac4ParKRiH9aQZJCg+ZOf8A47xqv5DnImHMocpC+KxfMBPEWPPpRVNIOZVQiZfE43jw8QY8SnIcOYhinLoxeYpij7rvGuqxdpEnASnoOQIa2xDUxHSSMl2umbR8n0XjdJyk2i4uN6izNi1aDdny1nvkqfm6mq7FIwkJFxSBQKTy5dgCT1IlS8oC4wLNKMLqSP5uCG474ghdYQ/L+K/UZE+CbLrbJ+cCfaIgUBMYQAN1eSYt0xa0eJdJvHW2upr1TGzZzIp93d5R3B2GUn1KLixEyzqN225Js5CSFyvLtm4d7VrXHB167kJ4Z1D5YynhmfbQGSkl5eDhphhPxjOXjFyOWO4LNM1WH7Sj03gSchdumQ7a1SkrvfpNisrtIIRPmZ5FnyuZl1mPbzKMnDuZVn65UbW1v1Qaz0SfpayPjHMsXAWGXmrwL6AwzQ8n2yuv3tGtvs/G4wgLljuIsL7JNpCXRtmasi5VsilWxom4YRkdtaukqQHVnvjlu6c7ash1sBe07ITxV0rmi1tKfa6Rejrwd72r2CcsFWm3E5KPJVfNl2s0JmqMj2ljkY6Fm5rK+eLNJtKa4cRVPi9r1+YykTJLW9qvrMmaY7F8eVsgmWRskDR835jIE5ZbQ6r0MfaaoUnUQyXYe9zaWccCrpSfjK1jrWLcnRGToAkow4IPdZExnGXtsRQT9ylpfFV9q64rt2yy5WWSsk1s3SO/e6idx0ylwJLQzN4ETn+nvuUj1N5GHiLNBTqYKRck1dafn6bF4fVTILy9RAG9RD3B5p5PrQkulrHyhml/gxJ6DuO+IIXWEPy/iv1GRPgmy6oSN0cW86dBOonYPC91f/lvNeF7q/8Ay3mlqXuenQ7u8kZFJHG21pKOkUbBfnxZZ3nazKU7GkuvHmBuvtMozUkO+vL1Eqz/ALM5UhpdKBMpGQIaR2h21xIwUxWnKon1mRYatn5hPS6JlI6Dt1bsTNB7Ey7F0iAgPqHqGVKCTJFPeVoXBGa2H8dOsZ1pWAcyYSYZ2/Ky2a2c/Ac5rdlZnMPR2UO1VFI22WiM61QWc6oiUZfs3U0hlLVElqRQIWV2f/CM/rdCidxlsG6fHnx7VGdMqUNBNESJiuqRuiqup6EqzJXNGe3rqW53EUmmmimRJIhU09S0Uxm453FyTdNyyxyZxiTPzirFVOSG7XcLEvwEHsaydBK4eoMtzCrDFbHmNuLAxTHg5pdE9gq1txw/TOqddprFOSHFxi5CDmhKaYrxhjbzG848mg9QDzWBYG0FMODegY3RF/kGDAmtx3xBC6wh+X8V+oyJ8E2XW2X84UvLu1KoOPW4l/BtrMkbE8F0u2wiAQE2Jvw7P+YbTaDJ/wBDIeLarkpiRrPtRBw92mzcYodWpXhw20pjXcpWTdSJszqRT+mjPWOV0Vb1EeJRuNMkw2TIEJiL4pK52/Ky2a2c/Ac5reaioaPpCwceniRZJxjeoKo8On2bgHCLfFtjFYQANn3whPaz4Qp8+QhTe4v4S6nwMMHMgT8WHqtcLPaJtjU7H7Nyf0M52/5V19DOdv8AlXX0M52/5V1H7bL97XxFrmrexk3d1mntdrEnMMk0lnWNsxztvtDWFkmTBu38mS4ZtM02ZRcJlOOI3ijK+Q/KYQLlCHWrd8leUokJRrAlZqvEypDgZTy5rsRYSlvG5FOV5t9gTPbSvMiX7jcd8QQusIfl/FfqMifBNl1tn/OFHy5pqSlyx9NxbcnO82pX5u0SkMfSywNXfZuCyGyplIkmKbkgTm0umrw9XkLG6SFJRjnO5x+agpVlXYt697/UPdrKTGIf0GzpzSaB2mzjvHjFzKQT+H52/Ky2a2cHKNGnicft7hKKtd6A8TZJirJbZMuR7OM+j6zOyMXRTFOUDkMBiqKpopnVWORJLcllJG2CNJqZjSLPZ/8ACM/rPXpn6B0X8JdHIVQhkzhzESWVwZnxwu+TOnAtHbZ+2ReM1k3DbU5Msa/EvpiSXI3Z4hypk3JeTXSBJQC0qyxoTEDLRgl5tV6RXpttaO1SmIeLkmkuwbSLJUizftyjNIQtLmFVjgU+GIxWRvcccpeJM10Q1mhiS0ejzyuI8jDTZA8XKGN4K1dN3rdJ01VIu37ZWVYQrJeQkXCbZrfLa/yTaEkY9NRRtjempUyuN2IgAvtx3xBC6wh+X8V+ourF1J1WcYMk+q6wViW+VTJKU5Owws43ye/WXNui0tKqXDHrjwmcjsp7h6YmEbPU9afBfN+eZwndYPHx49ap7e7rdpxO0Zbk1VCsWLSMZt2DFAjZpnDAnt64LZ60uRhZYa77jMfokipaqq2VmfcLlc4dNDFT8FptpuDzTyRUlFhWK7inGUZjCuliWZu8PbXAIWmuy0A4HlThqNnrDkpIlqDHxBhhubyZPNZdfI8WSMNkvbTXbi+VnIBx7OzLbEO4mufw0DcxO1HCmc7WJULfkBRFla8U1jF+ILWlFp9eS2flMFOnDD7sv4vu1jy/E2SHie8xBfcHZlDFcDk6HFlIkBCRj4/cLhY52MW2G11z6xWVRDoBi193t9Wc95ucIt7KT2YrWOMcQWNoJOIiEwMtrLeIl5VwrZK0kBndVyDa8dOjsuCndovcRXlyF8Tj3bNX6eaPy8eq61K7iYBAhvC4507Vm7HcMqy6aREVXJcV47JR4syjoSqzPv8AQfUMmYULKLLzlVIRF5X75dsbOhj1yrlbRW4ivOCFCUj3bNU+d6MUvN13JtTO4uKSIYsLFrulZu1XLIzsxVRdPk8ZXCPpVgFxKxibgkXKsJlkjIRrlN013HCAWGF4iAap2a3VQgmsGjFN3RPrJSH7E119ZJ/+xNdfWSf/ALE119ZJ/wDsTXWMsrOb7JvGK0cizL+q4a4AHuDy8A/7B5cr+0JKJOuKu8WYzO2fLUhZ0ZauW+YF5Pdm6jI8e3gy0WNckcy23qoOKjjaKRfJCk/8vKXjx5Q4+SYqddnyiWWiGbvTvA9FcnEySDloH1eadzce9yfBhguhsx4rM1n+oqBh4RIEYqOasidsrXoScTFKVjWj0r/BFFeHMZFu5YaDbtUOPHv0pwY4JojQQFZq4faiq/CwiXRi41ozJk3DjOxFWma+mmzmcGVS4RDt67klXMdETFUr0+sm4l4xu+W+jakf28x19G1I/t5jr6N6R/bzDX0cUn+3mGvo4pP9vMNRNWgIJU68TGNmSvyUxSnKJDlAxb/tiSkZdWx0OXPXJFvXd1MEQGjWcZyqLmr7prEQWj6faxDbHW2eMgJJKw3GQPZZoAAoAUoAAf8Ar/8A/8QAVRAAAgECBAIEBwkKCgoCAwAAAQIDBBEABRIhEzEUIkFRICMyQmFxgQYQFVBScpGhsSQzQ2JzgpKys9IwNEBTYJOiwcPRFkRUY3SDo7TC03CUteHw/9oACAEAAA0/Av8A4uG5ZiFUDvJOwwjBXp46sVlUhZdY4lLQipqEBXtK2+nBvfoWWVvUta2rpUdLfVfa1+WGveapyufhJsT1uAZ5esRbZTiVlRekQZhSpdjYa5amjiijW53LEAY1adVBmVHVjVYHT4iZ7NZht767tJK6xoo72ZiFGIFctS5dxszk1oWUwa6KOanjn1pbS7rbttjvjyyAD+3XKcd7ZZTkf2a8nD/gK+gzCKROsQNTR000G/PZziU2j6DWpmkzbFv4tlvSp1Xq8yoF8a7XlFLltNps3XEhkq5SdVtuGPXjrajmVdWVrty0aRTigVLb38q+NNuFS5XDOnMnVev6XJq3tzttywjqzRS5PQRpKAbmNzBBFIFfkdLA+nGmx6BU11DPquOtqmeujItfbSPXhpAjTIIMzoo0OnxrvG0FVZSTcLCxsNr8sWu0MU3DrIrlgONQziKrh1aDbUgv2fGoFySbAAcyT2AYjGl64TD4Ao5GVtukQtxMwliNrrHZN7cS4IxOdHwPkonpMrji4plijegy/h08oiJ2eUPJsLsbYk31186B/WyatYxbcJHM9j3cjj0001v1MDkGEqavptiLfi5bWhX27UCyB8L4th7oI583o7agbIM6jrIFPV8pbHApljocwikqKNOkBGU1GYUql45wz2bTFwBz9lVtHkOVcWmytIllMiA5dR6KeQQs33yUM+wu2HsT0uQSSgH8SMk3x2impzt7XTH40CW/Z481J4ZFPtIUDA/1zWzi3cIwdd8C2qOjEcUB7xd04lsL+HrMwrB/ZWpSP6sDa0lQpP0vOThuyGezfTHMGxJ+Fo62qNtuarLO6Y3Kw5lGrL6F1RJfFKS0OdZDPOrxDddYmo3E8HV9W2EAiGYIkSZ/RqiIkeqQmGLMUXQdRm8cS1+IeWJCUZ4tSywSr5UFVTyBJ6aYc7OouNxsR8Z0sklF7pM2py0c2Z1MbGOfK6SQWdKCFwVlYbzsLDxflsRJS0VtFZmSc9R1C8UDewnsxTJZH0xiplt/vGvUTufWcLcCeXxMTekK2lrY7NSyO37S2O7gyfvY7eHxFJ+mTHnPC6uB6bdY4fbgZxTRBd+y9UmjFR1xmWSy6Q9+6O702n1LhE8dmVVobMKxwOtZ265Z/kpYYFwtTVeLiPpCdR7Y7BFCWI/TL47jTx2/Ux29R0c/Q6jBsDNAeLGPTpGprYljKvHFLw6uMEczHcSoRixd8sqq+cSDtIgKyIpHo54gYpNBUSzrLGw71dr470qp1+yQYHIGpedf0ZzIMedJp4VVb1qUjv7MSjS+WZgEvJfzU4g0TX7hhg0hEK6aCtltsJYR1YifxdIxBIi1+W1KmTK84pY5NWmaI+LmikFwJEIkS50sMQCOLOcmldWq8rq2XyW5cWll0nhSgWcDsYMo+MPdM8uU5babh1NLTNCxzDM4FUiRjSoyoCCNEkqn0HIJklqA+4rK82khga/lDzj6sSx8HKsujsvkjSH0DyYI7YkPViLHo8CebHFD5ACj2+FRMkmZVAFtS3/i8bfLkt7MLD0fKcsVus5UbM97sI1PM4YnhU+o9Gp07Ejivp27+fhRkMktPI0RuO/SQH9uDpjjzdB1l7B0lRtb07YMOuhzal0kSg7hZim0qH6cQnqtY8Ooi82aFuToffQ3SSNikiEcirqQwwSsNNmz/fIfNVao8ig+ViOEy5Tm8aqXViuqNXcbyQP3Yy6Y0ea5dNqSmzbK3kUyRXt5EoQNHIPJcdu4OcUMFdTm6F0EyXaCbhs6rPTvdHW/VdSPjD3LxpkNLHqfR8ImS+aOI2VQkhq7RHnqEQN7Ww1D8L5lJsGaWdDUHW3boDWGOK0FBHfqQ0sZ0ppHZxLXPhVMscEMY5vLI2lFHrOKWjNfmc+2qSfh62Hp7gMSOy0cBPVp6YE6FUcrkfwM7+PpnYuaTUd5qe+4A7Rh4OkZTmUeklXtcRsw80nYjsxRSGOVGFr/ACJF70kXceAyM+VTSNqZNHlU5Y7kd2GMuX1cqqOsF0tDxCBzu5xkGdzxxR2+80NegqIBq0gMGqVnPMkeq3xfHG7n1KpP92M591ktdUNYddpK16qRtKgKAT3bYqI4cvgtsbdUED/lr4eSJ0rcdXpJvwfajLirYVVcFP4GM+KQ+hjf+DzGULCZD1aGqfZbHzY5G+3GXQ65uELmrofKPLyjGu+P/wC299c4pENu1JJAGHtxS1+Xzxnu6x1D24WpyBvpXN/8vi9fc3nbfRltTiFqmoPrWJ/7ziavaZvUkUo8PMqp3DW3MMarp37r3xTzmip+7hw935x/g+wjmD2EekYylOjTB9+k0RGmKQg8xpOk+rGZE12XnsUSHxsN+VxLc+r32zqhA/rcGagj9pJGJa/Jowe/hR5nf9f4v/0Zzz/8ZU4FFVafXbFqg+27eFbGX5DJUt6+G81/7WJp5pWJ7dcrN9hx3Rxs32DHymp3A+zHcdj4Z5KoLMfYMHlIKchD7ScTt0WvIiuqwyHTxH35Rlr4yiVZgfO4MllkHqA9+KuSqb1U5Vr4r82pdu8QHUf1sZtn+ZVsDXHjIESlpA2xJAE1O437vi+vyfM6OMvfQHqaOaFNVgx06n7sSdNpPzgr/u4SqkpyfnRyP/d4Us8Uf6bgYrcnjo0eQ2jQSU6oxNu4YRVL8a0VIrdtozfYH04jFuFGIzJt80Nvh+p4+MLG1+y5W2+GjMlHX0WnhTNa4EwXZ1bFHK0Mq9l1NtS96t4NZKsUQ7Bfm7fioN8RxiWtzSt0aYntdhFq8hFxGbcXK6Bpqc252kuu2GkWPejFwWbSNSmQEYnyozJrG+mWLWtx2GzYt72XUT79zz7D9XA49ZIg/wB5oRL+1cD3P0NXOGtcVGYx/CFQNguyy1JA9HxecZb7tK6j16dGuFqyaBX03OkODfmcUVVBVA/isNF/ofwvhKjv6uKMUdHEywxeVIxjGgfirfmcP5NFROydQ8hJILazb0Ykr4RmUtyZOjM3jGucSwqUqYmTVpK7PxQOeDTGuy/iS8U0U0ZtPRh7m/lj6MZnTvFMVH4Wn0hSfSwbwctoLxeiWVwt/wBBsRxrmOZUyMV6Xpm08Akc1Mf14hp1EmWtTqK3Wq9ZNFrOzH074zHN6COnpgoU8JZYk4kijYPJa+DS01Iv0Kn2YsPer6rhRHt4cIG/qu2EzGhyIyDrLTrC7VFbUW1KGENPdrXF7WwihQO4KLD4wzaiyXOA21uPRP0OcJYDb7jU+s4zD3OU1WnzujRzf3YXqn1jbwUqoH+hxgZPFJ9ECnGkfZ7xGngJUOEA7l32GJcwWnndmuzJP5Wonncriizan37oZY5tf1qPBqsuV4/SUlS/1YrMqdPVJHPa36K+8KwSf1dm/uxUV8akd4Sx95yEjUc2djZVHrOMlySSvq2G2oiEzvzt1t7Yymnq5lqHPk5lnExgpSBqux6DFP2ED12+MctzGvyedd9ZOaww1UDcraE+C3vvzYYpYqzKaheZRIpJIIb+uEDFLmFSo7OoZGMf0r4PHi/XGPgJP+2XGlfs9+KvpmH9YMQ00NSvrFt/7XgzydDmvy0zdVb/AJxxlFQJSwFz0eUaD7Ovf3jJKv0phcw39qj3svkXMKna6+IOuND84rj3QzLS6VNj0OP7+LfJdWtj3XSLnMnyly7RpyuI2dlPimaXkD42x5fGOW0ozyiLlxw5csJlmYaL6nahMygHa7e3AkgzanBPkxqFp5FUel5L4zmkiqkty1whYH9pK38GfMKSIfnygYNFTU/tZAlsWH2e+aunA/rFx8FRr7fF4t4ETrLGe54yGX6xiqy9svrF5mOpiUwlm9OpdWKCpeLfbVHe8L+poyDgZlBH/Wuqf34p6uCT9Jh72bPpp7jcUkXJh85r4o6yHKDPHaWOBVJmzLMNJdFdaamBJFxfTbFFTw0tNBEoSKGCBBHFHGi2VURFsB8Y1dPNTTxSKHSSKeNo5EdWurKytuMLm+ae52qKkiOQQzzRxstwpKtJECLgYy+p4Mp/3EwP+I3gtnNET+bKpxNXUiH1K48CfMoNXoRTqZvUMV9XS0IHaQyyMf2fhZz42n1HaOtRQLDuEiL9OABSZqEHNfwNQ3pGy+rEeZ0LD/7EeOi0kw9fUOK6eOORh+DguONJ+amMty3oWVx7WkrmiKQdU8wZtzhp5crymaTQw6TVHpObTJqBlWSOJ4kDbDTIw37PjLP4qPMQy6bLX5KaekrY1C2Ya4RE+/MufZmmQw1yW3tOsCzkfODrbEbNGw7mQ6T9Y8Cmzeidz3Jxl1fVimNNX9XfxSeMdvUFxb38pgNPT3GzVNQd2Hpi4f14oUarqVB240luDf0qt/CpZUnhcdkkZ1D2G2KukaizGI7tDVopQse46hrGIM6o0iP85TvUI0Ui9/i2GDT0sA9fUXEw6NlmsfggPGTrf5RJHsxDV01PLBEygVGcV0qRQ0xZiEHDuu5NhfGUUEFPJKsYi6VVadVXVuik2kqags53PP4z9yWYRV2vr8Q5dW/cNXBGouraqh4HN+QjO/Yfc5VSUtnN3lpKm8yGx8xNejE8vT6U2sGSp8ZJp9CSvbwOw9x7Dg0TZXmcV97iPh8uYDRkYSR3o5iDpnpWYmNlPbpG3vMQqjvLGwxHRtmWYOdvGsmshr92KypkaMfIhDHhr7B4edkJpJ6kdYB4uQdgL2C4yrWKhbfxhRdob95STGbVYqswKc4MuhPXkNuV9JtjLqDoeU0+w41aU0w7dt5jdsR1FTBkktQGPHzOq19PrI2L3ZaGnbhrdSuqTY3T40zShqaCpjJI1Q1ULROLqQw2bs3xU11d7nqrc8E1NHUSCGVNYXqyPCLGw2OKBui1TDtppTdb+qQ+DXFYsxgG+gX2qEHykvhouNlebU9i8LEX0tbyoyeYOFJ0VtHG00bL2MwQEpt34ppun1iOpXxNNYlWB7ycZ1MtOQp/1KMeP9Pav8BE6yxSL5SSIdSMPURjLkWCuivvKF2SpTtIdefpxX6IqQtsuX5dHGn3Ol+V5QzE+nFLmlPlMNTPNw6KXMamZYZquZxfxMOsDtPV2xlFHHTRniwBpmAvNUzFNCvPUzEu5tuxxp18Oszigp5NFyNXDknVyt1PZ2YvbxVFmsq/ppQlbYq01wVdJIJI271PnRyodmRgGU7EX+Ms2eGKvlRW4cWc5OITSMZAdKtWUMfk7X4LHffGbZT0epvzizGFODKxHNbVKX9WMvqZKdwwsdKseG/qeOx8CldTmFXbyl5mnhPLiMPoxSQcDKsqiYCetmUdWNBz3PlNyGHAElLmSXg1HmOPp4NsIoWabKjRySxq/mytT9ZdVu3EEbR07GaWPghrXKKjqtzbEHWqqKTrT08fbJGVA1ovtPh1cqwwxj5TG1z+Kvbgw+OKycOkiDDeMILa9N+2+K6mnojX5fJG8tO0iFG0t1wri/rw0jOJJ4ZVnuxuS7jTd747Vj6Wxt6OuRjtWN4o4m9eqIvjJqWStqKSqdJIZ6aFdUmg6Awlt6cZlQS1tRDdmp8vq6T73X20sIjMPEtbSHLLe+lfjJ4DWZRM4W9PmtIDJSurlJDGJd4nKi/DkYYrKiXosFTdGps1pSYqmmKSWMbeLN1+VhgtPm4Qd3ViqGt3Cw98FXr6y3UpoL9bflxGHLGWwWRBpFRX1WnZF86SaZ8B2jy2gUsYaSm1HQqpy1kcziZ015nWU8tPQxxMetIJpFVJNI7AcU8PSc1zF7CWuq9G9r7m58lcU8h+DaanmeNYkVuq8iqQJHa298aZqCrZhtOUGguRy62KWvnWIDzU1nSvs8LL6FpYr+a8hMd/oOKinasq+A5jkmGto1jLrZgt1w/3yNpDNDL89Jdf1YH4R45FP7QDDHTxoKWdoI79sk2oxpbBF0yylWOOip7/ACyF1yMPXjNYWpM04LB1oKSQaZYpCt7TyL2cxj3UrHBlcbrIskWT08jsZ+tpBXMZtLLt5EYIPW+M83r45K406pGmXe6CFRKJQI9LFM1WFpG2++h7nrAYjpugZ/lrkFxIE4fSAvMpOOtfsJxK5enqoUMhpVY34VQB5IXsOGYCaqZGFNTITu8slrbd2KOnaqzXMptIeaRUu++xPKyrjLaySk9z2R00mh67heXW1R3Fpb92FXrS1xillksN2PSmk6x9Awt9EFBCI4L9nXQaAMQNqgy+NuqW7JJz57YDDpmYMp6NTR363X5NJbkMU8fXfzppSOvK3pY4+EZv1j4UVHDEPnGRT9hxCnDhn1sk0aXvpBDDa+Pk9I2xH1uNVSM2m3adUmjEQK9Byo081V1fNMNP1vpxMGifNJDeueM3U8EWtFqGIanjTVFS0gqvdHPG92paWR/GdG1C0s35q9a5Wkhjp6amgRYoYIIUCRRRRoAqRxotgB8Z5pTtT1ETjl2xzRnmk0EgDow3VhfDSNJlteEcZbn+V6h1JBey1EasFljvqjfvUqx0AVVLmpVaMvbcx1Eni2DHswF1dFyd4Kipk7rRU9ib4pZykUY1/dko5PVyiyk25L2YFQ0mVZjN1abxukGCeQ9WOxGx9OJ0DLXUVVfiKwureVJER7MfJOg/+AwhB4c8iiE2+WAoNvbiGK9NlFEY2raiw6oSBSZGF+ZPLBzGrpqOC+pxTwmyNIe12GPhKf8AXPhPmEcAPoWCNvtxx8uyvKqalq+CjSzU9O2jdhCt55eZwF2ag0V8Om5H36j40d9uV74uups1rDli9e/LpU9OHG29r27carHpVfJmFSwsDrtRRTx23tvJfbERJWKvp46fJxstmbLdVQ07qQfLkKb+TcXxGoVI0UKiKNgqqLAAfGsjLIqyXSWnmTyKilqEKzU8y3tqUi4JB2JxJJKUpM9hnpZ6WK/iY+l0i1aVbW8puHFy5b7IReh9z6yyT1GzXU11bDCtMFbT+Ck1C/Lnjo/RzlvD6vyukcX7903idfjX4mvrXvh5dcWVZ3FK8cKEE6UzSnMsraH8nVDfTzYkbr17ZDnizIdyOGafMRRzXsOxbb88QnQ89VklTJHfVov0lPEsC3Ig2PZiUhJJZ4BktMFe/OWuaK6bb6b2xW5tBQSUlNPV1fBeqiqJ9RqamKHX/Fzewwua14+vHwlP+ufCrq6om9ehjF/4Yps5zap1pby8ppJ2hG4bq8amAPo/oEvutyr66LNMLnNZ9ePhCX9Y+CFJ+rFPk1dWn2iepv8AXikoM7ronuerLW5glNq2NmvDUuN9t/6BUOf5HVLa1rtNLRnXsbroqz3b4izdz/WA/wCWDVlv0i3gyyRxD/mMF/vxTe5Tg93WlouF9ZbAjyqhik32SolramoTnpOpqeP07f0Cpvgyr/qM0pCfqOKatoZLflkn/wAsTJDL+kD4MuY023oSRWP1DFV0OiUcr+NiBA9mM09006cTfr0tFQUPAFr6epLUS/T/AECf3LZvNEtyPuikpJKumPVIPVngU+nGYZZ0xQTszUMipb53j8ZhR8HX2cWnsNJ9JB8HJomnkfzeK40xp87rXxPJJmtSg/2ca4I7+nipioy45pUmIffGzSolrYGkOlS0q0U0Snu025D+gVVBLTzRSKGjkimjaN0dTcMjK1iMZD7oZ8uzOK4s8K1DQzxMVJVk1d222GijzLKaoWZeLo1KNQ811a2Kd2jlikBUhlNja/NffYgPUujJTQKebvIbXAHdiCJq7N8wchePOqX0R3tcDyUGKnMFaU9bRQe5vL2Bne+iRIXngjstxpM0gHbiCNIY1HJUjUIgHqUf0Dkhij91FLAjtPTywLohzgKC2qnaFQk1gOHoDb3YhCseWZt5bUQNhwakeUYB37kYkTVFmOWzoKix5cRojrPqbH83oQ+zXrvhd+LmVV4rb8SRtGI1PCyrJljkllZRsLxeKB9ZxUVHCocioNTtUm5tUZhL1UVVQamLnhxgXvYYzkRSZ1XR3MMCpfg5bQ6gD0en1Es9tUjknlpA/oHKrJJHIodHRhZlZTcMpGJmkqJfc1WEDLZJCAeHlVTYNQmRr2SQmK5sDGuKYa5Jcs49bl2gLrMnHoGno2QLz327cSMsaImUyvM7sdKop4GpmYnBXWTmlQ+TUum4B3r5qSMnreSN8SKr/B+Qss9YHOhitVX1kEtMCvWUiNXHaHxIE6XXSk1OZVzooXXU1kt5LE76F0xKSdKi/vxjU8kjBVUDtJOFOnTQR8WMMOYeW4047GlqtJ/RERx6Kor/AIOGsC8Q6VGp72PUsMecI3HEQ9zpzB98cydgMLe9LQjpEwI7CAQBjzZKmfhG3eYxG2O7jMPr0Y5M9K/Svbo0x4P+qzERVC+uMn36mHjx9Hp+MNGpl3OpbG64n1aOPHwpOqbG63P8oooXnnYC5EcY1MQO3YYUlT9y9o/5mP8AhR/7cf8ACD/3Y+VJS6V+niHHnJDKOKvzoz1v5bQHTWcJiGq6j5JI5xqDyxUgSUuWwnQ5j7JJ5fxvk2wPOkQOx9ZtjltAo/uxYmNojqpi348PV54pGWRWjZuj1sF+qw5B45AMEcKth/maqPaVfm35YiQvJI5sqqouSThHMDVUV+k5g19J4endYieXfibxqw2L19SG3u1yvB1jt3wALy1h40jekkjH5Bf8sMDpmom4eluwlQOtiF9UeY0oaOop99uNGpOm3ffElo8vzRjtM3ZDUE8nPYe33vg3/GmxeX9b+UfBNZ+xfElNmEzQhtHjIk1IbjuOP+Ib/LH/ABLf5YK2SanrHBRuxtNutiaXiZbmKXi4vDIL0dbCCUvb0m+KmERV8Cm4p6+JV6TED2hWP8HlsPGljpwGmZfxAxUE4o61qF0ro0jkMixxyXUI7jTaT+HWNyPYpxU5/pl1fJ6RpsfZhIYlUDlYIPAo6oU5dUuzQzcwbC9l0YPBqVDKwsw1BtNx26sVicfMXRrFafzIjb+c/uxG5TK6eRbo7oetUMDz0kbeDMjRyRuNSsjCxBB9GMwkM1Iwv9yVAbUYgeyx3GMqtS1NzdpEAHDk/R2x8G/402Ly/rfyj4JrP2L46Dmv7I+BR19NJC3aCdV7Yps11xDzQ0+viW/Q94cxLURRn6GYHB5BKqFj9Ae/gD+dnjj/AFmGO4VkH7+PlIwYfSLj3ugtj/SKX/tKX3xzD1UKn6C98H+ZnikP0Kx8Ac2dgo+k7YY2CdLg1E8rAa73975UjKg+liBju6XBf6NeDyZSGH0jb3mBH04ir+nUzEWDqWEikei+IYUjq6OVwkiSKNN1BPWVvAvfhzIHW/fY40nW0ESRkqN99I9GKnNhl9N2/cyS8OMD1IcUVHBBsLaikahnP4zEeFQRHMIHtunRvGy2+fGtsZzRzRup5CSnQzJt8onbHwb/AI02Ly/rfyj4JrP2L46Dmv7I++NyTsAPScdIWpzNoHEiQBNo4LrcNI5OM6lkzV1fqmKkkAanEgNtLKpN8cdqGozSKPjSyzA6XSiHJFQ/hLjE662gWearqIy3NZNbBL+3EfWjFTxKUXG4GqFnIxM4UVc3jJ1iJA6RTVZu0yoPMJG2K6FJ4JUNwVcXse5h24rxH0mtC8SWDjkJFBTr/Oyaxv2Yq1E3RopJaueIP1gsoldEVvQDhd0L06BWfs1FaglRiebQvHklqKSdRu8J4t+jTlO0DGY0bjTfemqtJRkJ59STERnqJsuOY1kmulLsyx8J14Z0r2YhzJ4Kik6ZU03FqhFE7S6YFKm6MBhfuqKokrJ6haaCFSZN5wNN/RjWYVkpRasqFDEdKnqlsaWI918TAM6U7y1bLfeztMU6wxD4xIp5ZqRnK7hV4TMpJ9OMppD8G5lHqp2zBAbAqyW8aLcwetiLMkjjlrJ3ndEtL1VLs1htgLlU1TSw1UsVLw+HrnLIrBesBjLal6OCoSaSmpp1jbR0meZLNM0vO2+nFHmFJV1ERqaw644Z0lkVSY9ywXtxWxEUNDq6kW1hUVNrkIp5C2+Ky0kMMZkptUR5Gnoo7R2t2m18AXVmp0CF+4kVBIGEkCuZnlq6XhnzJkkuaVm+UBtiC0eZUBa7009he3aYmvsfeplPRa5FvqH8zOPPjP1YjPUrMska5tyO2l8Jtw80ppKgWHZqmuBjzp6aZo5PT4kJow2xM8YMd/WjMbYPmpINfq0GzYWlnP8A0mxLnepvTu5xbwpMtrU/Sp5Bhc3en/NaYxn6sfBv+NNi8v638o+Caz9i+NFWY2jKhujgeO8ogeTj50H/ALMfOp//AGYk6slq7o6aTz1cKTcYikFRFlkTO8BmG4kq5XCtKyns3GJ4ly2l0dQxCZWW8duWlVxXVUtJQyyDU0McTePZb8mka2/v5bTSZhltRp8ZFJTqXkAbnpaHVtjKpUqKRW5pDPuyj0B2wtVl1YNQurU6cNXZew8I7+zFQisgWojEm4vpaIsHDD1Y9GJ5qWeCsZA5gennSU6djbiKtsGsephkVdAiR1F47WHnb4+D3+w4/wBIpf8AtKXHugruDKV5tTUwVpo/U4kx7pB06eoYDix0p6sFKD2IhUn2+/kkqhp1UB5aN/LjkPnAEDHwon2TYqaHKKdLc7zCOK49WrFNRQdKZRvPVtGpqJmPaXkxDG8rn8WNSzfUMZfmNTVPHzj6Blsxhoo+4K7ohbvxGoREQBVRVFlVQNgAPerYXgnhkUMrI6kHn2jGaVMuXvCxNninUyZfsdrxzSAeoeAefGp45P1lwfOoZZKSx79MJUHHmwViBoh/zRrkwWvTZhRSOIJGB5XFt/QcUlHNpnAC9Mp+GV1lRa0i9uKbPdDnu67L/fiw8KHLK2Q/mU8hw2ZTVf5qOZj9WPg3/GmxeX9b+UfBNZ+xfHQs1/ZHwRmkHE9Wl8CSpD/lAy6/f+CMyv6uhzXx0Efto9P1Ygv0PMac6KqmJ7mFta/inbAN4xOZaeT1XphbEXkjp7VAt+SqpLYLCMtVUcVOnPzamiFuIezWcRPwa+ik++0tRYEqe9SDscfB7/Ycf6RS/wDaUuI63NFfuu8NPpvhsogtp5bFgfr9+SARrf5bHa3p2x8KJ9k2GORX9mg40j7MHK8wC/ONLLb68QRzvVVF5FM0a1AVk8WC33w4/K1f7uPytX+7j8rV/u4oMxoqyeaTpDTzR0sqPo1MnPStsUMHFVJb8M28q9t8VFNUS8SBpNeuKPWoGrbfwYKV6mBiBqSWMXVlPZieR6aUfLRuan6MT1S5vRkbC0r8bSp/EItiWliSqHyKqNAs6H1P4WbWoYF7TG5HSNuduCTjJ6RkjYjYzVK8Ir6whvj4N/xpsXl/W/lHwTWfsXx0LNf2R8GOE1lIva01OrEKPWDiKqlqMtimPDLOWtU09mt43Vbb387p3oqGnDDiKku007rzEfDuPbjO5FWl1qQxpoRpDb+a5GPhepoy3AVJBDKkvwf4zSPKfQPfTKKyYGfTaOeOF2gkQtykWQC3pwKKk0c9HH6S1j8nicG3px8Hv9hwPdBISvbY0lNY+o4ylxmVGii7ycEapYV7byKMUNQ65RNVMIozCbDoLM9gjwup589WGF1ZTdWB5EEbEYjUs8kjBERRzZmawAGMsbpmfVtN4ynvFsItYupRb7nlj4VT7JsXyP8A8MWH2YdSjDvVhYj2jGcVs5MtiIzQZnKZgUPkno08i39AxURrLDNEwdJEYXBVht71BTyTzSSMFFkW4W585zsO84oXqqmpgXLqQaaXrpQw9J4XE1yOBfe9jisoaiFR+O8TBfrxlWYGKpj5HgiTS6+2MYqolkR0NxuNx61PgVNO1LAt+s8so2Cjt5YohJVTG3ki4/exlKs1lHXnpeckf4xFsV0oEmq/3FU3trtzUXPWxMgeKWNgyOp3BBHgQIXd5GA5DyV+Ux7scTomUUigkvdrcdlHfe9+wYn+6K+TvnceTfuQbY+Df8abF5f1v5RVZdUwwR3A1yPGyqLnYXJwKavQzmaJ+tMlkGlWJ3PhNKaqpo45GgWap8rpFLIhHBlY8xcDFMojWqeklklZU2BMlCuh9h274m6qVMlFWKyX7R0leDt6ccQTPl7S655rNqEVo/E08N+YW2KWJIYIIxpSOOMBVUD0AYp0UOpJjjreHbhnWtik6W2O2KRRFDO6NPMI15AS0vWk27Wucd8lHX6MSSK00N+jxOAb3m1Wqn0/J5YqG6RmVcR1qiosBt3RoBYDGZ0U9Lq+QZEKq35pOKprSCIwTUtVHGx4LmOTVJFIFPm2JwJUTLoAiKGit4wkDf6cSniS9HXTRzzc+KUUXik+bbCGycWrNRt2WFYZCow335KWZodSdqlaXSr+3FXRfd2b1Nmqqhrjqg/g09Vr4fNRY99uLfFOcq4tVxolt0fTxeqzBuriw96BWOXZmg8dTS2NgflxHtGInvHD/GYgn+6G9XHt2DbHYeg5jwr/AEcscUO1J95h097Ri087Due4w9pK+ucePrJ7C7u3yR2D3nGqvoBtxyB99h7NdsavHZRmKugUjm0Oqzp7NsW62i0iX9Frm2Pk8Fr/AGY83i2jjv6dwbYVrUuXUYbolLqPlyty1eluWK8K1XIOUK+bTxnuW++DzGJdUlXlvkxVD82kh7Edu7lhHtJleZq/D6v+zSMNQHzTbFhq4dpI79trXNsfJELX+zFjpepISIHsJAIa2Iwzrl2XxuaaBFu3WWMdaw+ViQ9Hepdb1WXG9maNG8n09uJ11JJGwPsb5LDHwb/jTYptXjmlILajflrGPyzfv4/LN+/j8s37+Pyzfv4pafjBo5Cxbfl5R+JqSlaqppqdUeTxILMgV1YHUMQ1bVNDNV8KKWop3ARqZFUIpMDR37+t7+YTIa+KBtbU0K7LFJpvaSVj5PPGaF81qEYFZIxV2kihkU8miU+F328E83aJVl/rk0yfXj5EExIH9ZqOPk64v3MXvapma3/SKYAt4mFFcj8aS2tvafAYWvNChkt6JbcRfpwfNppiVHq4uvHdqh/9eBvaomYD/paMW0+JhQOw7mktrb2nAUvLAoCQV1vxRYLKcKZKc5VUA/dM424sat97RT2i18Qpw43mBJVLk6RuNrnHzT+9j5h/zx8w/wCePmH/ADx+T/8A3iVdDvCtiy9x+JmBDKwuGB5gg8xiSQ1BplaRIROd9UDRFGjBPZe2IhpjeeWkvYct26/04l6spglpvJPPrR2kHsOEcTqs5eSnWcb65DMXeYqe8kYAsANgAOwf/IH/xAAsEAEAAgICAQMEAQQDAQEAAAABESEAMUFRYRAgcVCBkaHwQGCxwTDh8XDR/9oACAEAAAE/If8A5ceQ4WLaQBjLNefYwNmFYukqsG+DnprXlpip47/EhIaoNpJglIKiTY7GPQqtQwUtcqFuislcJ36iTfwghr8uDuIeSomoNNxUzisOc0/H+OwwHLEKeX/HZIeoX8BV3IaDcMhFiEod7RikzAWUlqH9sGgrAWBWEQi7G/ddRPZsNRbqBxJG1NWDTEbSom4AxwFokg2g3hj8SJrgL7ZHSGIi+JOnpRylDCCJ0O1npKAJMi/qr0BHh0oQALclQPs2SMizWUBA6CFhCEMYsE0Dmlb1kbgzvDeIbUvciEnzrm1YZTFJVI4JIFzQZQtLCPa4vC6yvrNS1AAiSDCzYd8IuTQT0AgTDdFkYGP9gReSgwWkjtIsZ88Wrl/bKXLivllH6ywWN2/3h9wGkXIlQLdcZIcAr/IE/BnO3rLo5ciPaEU1xiU9CIqfH4Y4XDpG7YHknrAI2ZFVQhDyuTiVEgMQi2WbLwvq1CGleDJxwDSK1MPQOFJSpMx+orFtBavGUBZ4HFDpiDXzEtfOkNO7QFrAuoY6FxKi4weopnKKAM08wdSfKPEYDmdT455GG+puYrnB4LAs3IMhl+vR2+T8kGKI3gzf4GCI7X24bVXOdY80kpQMTWRio9pg+SZOhv54DkUPgl3xmRyw4hmqVnC0fJ7qIm4yujENfbJilY6bo0EOpvDyYzCFiM+7Mgm60Q+EYHPoMPNlEMCQjFEMMVO7MNeb3sgDInIZqr1wPQwO03XFWiBMMJNqmOH1Elo7k8wQWj4dowbzIH5CJbPzRyiK+KJ1HB2gKjJWBiYtE6xMS79yRVqoJkeiQuJ5yxsTYkQUxnkQDK8U+Q+XuHy0etJEl4CZeV4LnRrzsQGPfdG279Hlp3jTzLFOtyB3Cw16kRY3ylSo9OO756bHSytEG3IcdWw5ug2qayT1/IEppJCpWhgnx0RWGQusugfUANhtlLkFJCxlD7Vriy4iV+0Vhz/LSn4JA+Z9xuitkkAXKYRl1YFWW2QdjJOaopdrFpfP/Ag02dOA7XMWEpu10xl5oBmuO73bTiMEvQly9yN0+oBCR2OS9V3GJUtvzvCUNDaQRaCcYU1bEyQA55KPp660IHSl/GHKQqvAxQLABwRhEgO3BB/JnigD3QOn2E/LVh98nsh1K1Hzpyf8c1gnVEZnTCaHBiQYMAnd2EvRgyaR0jSJSjhH1ThJVJIHHAM0aKAobzYCMkKxI4kzH08wLCU6hUXgG3CuYG+8uzbTYWup986OggOKWLeV8yOf5L/xpJtRCiBWrhLMlN+uewADzWIkjsvDUpiPD1UNI03phoBiJ68nmsd8IQbIE8xD6htTDlX4QX+Ms7gPij+PdFGxxjvMCy2+auBklp2rU04SjnUn+MKNnNK9zwybVIbBD7MPvbIcPh0AuHWeSw7AMfbCDdawsGBcHgMncw12EebDgyD2T6A6AiJBovicExHQMVbHJGZ5R4rHqBHIO0Qi/TkuQsCeM0BMJjhy4SLPFNxzkZrp0JUvuUnNf3QYhn/UV7LCax1IGgQJQXmQnHESzhJAK/LN73CZ6WkJYUMK71fZ+SMa4vcyQHYpSPtetFqsvWmJK+Mm6ASIEapo2sZNHZpJRDBHxgncYotsCOBogjATb+EJ6c/Vf49JOtlJJEXnAycnWrcdqRmhly3qO0QkBKtv04CLQR+EjEKGgUkq6IUDtylxEBO1GAzZz7WzoT83gEL6IPddvYgyackU7pbm24iElxO5Uz24qhRs5wUIszjBJVpPGBaAxHYlRLRHmfaLd25MzjzJhDrdxI2h6cQZCVxwQxNOE2yiSaSASnE5+yoosPsyp/wj0EOiksxB7JjPEtSYIuhZFa0wfgHEAgBwAfUDUmMCRnAQZKstxAQJO4qp1NzgCGHR6tfs9v8A63GyaP8At83+R6ZunGjLlokJbxjVkxmy7zBM5Oe/lxD2hj40RTB+ObkzOK3D2yZdRPeSFlT7V+zhfwEoH6MgT9SOI5Uy3l81b8g/ViNY7lhrQyeSY+otMhsh94cI0iIAyxOdOsUU3A8eMEGBUbFB0p7TC7H84fgvD+c6+qNSK6QP946Cx41HPBjIyD4P8eyPd9FEF+wPLEh9DDncXARBNJJ8OBHKye1PzeDEZguCCel+83Ij42HGRQCEVMnPAfZgG1SkM21wbDrT9RmJiIDNEDMYGtOZ4R1+uJzD9xGREnqe9ouJKO2CyWGXzv5UTKD0X4Hq/DGNzkdEp38fzWfrP8exuoV0qsfjxYrqYxbsUbxkKAOFSiD/ALYywmQJVftsXaIbEwB38ZNT4nLUOSNBGN2/jgShCvE0kZVrTDHAPx6AgAAD6iPBSFRUnxBEcWz0GiC+QQcZLS+E0WC9QPthxQt0kZ98l5Ghqej94aPj1XY4Y5dHUGAMSclhIbQh7pCC0RIkpARysaYTLpdELkfiYuwnHhs03vsH/bkW65y371c5wYX/ALMxtPOW47F6ECw63PvqaW7vopoS0M6ZYTAvveiE75BHeJKUm2mb5PYBKSbQSHoBhNJYKMflHFKdh/J6y8RW6i+TytXXlR9P+V9zMAFhJt7IPjKtFYCXcoeFMKXhvI7zRuecOVa9Sf8A8MkPHVOlAakuL7Dryg3FgbiYb6VSAgDZSTZd/U3dTm0MRRXyk2w2jRFrsk/psnaPlBYfCQ+32Igmw9lYeRxkmHBeJHITvBMhsFQBCsfHoGaDy0Yg5ZcKt+coanbX3xjarcIPo97e1TDggFgPvMnU+AyZLC2GXgzfTSUq7aLywq4PFFyHZDF3kbQwN8CxFkkgePqY3EScx0utQGxnA7x2mRhbPNEKwZjizcqx3Bv2p2xo6L59MbDJS2gM4eQQBlOMjUUN92Z9qZtMO5YIEi/jEGnMDWMaTkEAdV71a7tAtLs2QVVigQx0bwngVGD+CmDtA5ZaqHBv6zpqRQXFi8/Qs0B1Nc53HqsZehBIKus2KdRrMX8uC5Gycw9Ho2ivRBPqR8pQWKyGlOaGEWyqk6R2PPeE91kagnpvh9gDA+wJkpIUO7ZsFcwBJYrZsvGP+bCxFHy5dTuaCS/WImM5k6uxYjHY6ynrCnPuFVGCACxs9x2JxWReEDK6MvYdia6lTCsTZkw4A/HiM9YZOHMxS2lFKm3JNM/FijXGAFsQ50375BzVu6yhytMiqOZNGS4Lkx0H1JD2aSUk9JAkbx8rLjTOpGAYXeKAVQssBhsHejN2c+kqd4XbKUDHvHPxQ5WnCOYnCwCGgg6U7uXIw6mKRHFthyA2rVIi6QwWXyPOWAARSmRN6pa2eTK/OHIaVSwHgHuSLQDNBZ5MbbV/5EQZKTGmRLkc0UvLBwsbAUGOWJDgR9qQCJpnk4hP1uBuU+x8Ruqr+Wg5Gv3cZEwNW8hp07NGH1KeVphJKQdUookTpQGxK0Uk0tmNxpjYhrJYSkjGH56uByFN8nLZwGKKezAby5oqgxRFinKCseImpF/gEjI01LdBpNj4zefPusTWca8YLPD68IzdFlzdDJ0T4unFK/ge7mEZK4lpgy4MkFRUZpscBk7Qv9ZznsOOr0UDyYgV5IJpYu1OANwqK0FOcimXEuUoKSrNq3wTZ17MLHAQAPqZNywLOOJtwBCJlmTm1ybZC4BwFqcEHRBDTYSd4hxiSLlqkucEOmUdDrqGntOKHOIYCeLWm8OEeOqhsAagY7lOSjOpMO+niVW59jLMGONKKYEq2FmrnEfZaNHvkmQLd7NzC54xoxN0Exhyxkz1MBShheVQkMQkgKslPWgunTppJLEpROVKjLAE1UQq51GW6azLCHUwZPjWcKjigPqtlmyqoCMpNKRFDBVQFgdtIGQmrF3TT4pEYUlY44DQFQMVZKXX/wA/WN64v1JHwgtNgy3QBUbqHOo0REpB5VwJhNh+DrpJkxfj8MI+gPZpOyaDoUgCqlBBiJ4sAaXqufO1+fcqSs6RCZnkjEkMflfkh2ayhGz+wf5GCYrvR+8cRru9r/4WScUHNbUQi1xihxR5rzUQlsiQT+waPnrCtgwIpUC4kQlbaPk48Gv8I9o1ycdouGgJD6Gj845G6pdbCwhKI0SWf7BcpKPjEH2xHfReYKnKSYA63Nn23hrkmftXgJ609kYm5jMo7aUwk+AWkBdlgj+wbLIyoSyFY1CESTKCRAEWZbhUyiWhFIJYidT49sHNjUuTWmHWWWyISOh1avjIBccJL98GzoKD/YQZk4Ij62QIjiCBKqn6GGUqxlOTRQdotodxjdTukmqmSkr00AfLGNO3OIposokuKPjVMbN8iVjfMoWR5d62KwR4m0BxcAT+w+bWV5VOelJhkjX8orB0m0PAjBYvjipgEXgxN7J4aeTjxrDyu5LhzKPxx8qTzjw6QFZIXAgSghIQV0hrV4tgFyD/AGI0sFctF6lCJCY51m7DgBWNGFocokPj7jjcyKQRhgNrBQUioAtXGkohqp0huQyUIGAzTCZ1jBKbMIMaW8liksJvzS3qvFIBqVICseBJT2QgUPhyfhBt3ywX5xa8THA+VTj48AlODM+ccsw+UK1+fVEZJQA7VoMjkeJ8+ePOS4VAK8EgricD4skZogKBUd2UHzlKiTJYmN18L6xfdLL5ihrHXWHYcAt+f6ifu3amgSMNOcygSHP/AEWTzXxkDwC6w/If9ZCYgbT8QA/n+nj0H2PcPEiMkmfEIHacV3UZu3rv2VzeQoUFPuVErjKTEpKPnGrItUMFZFzNZaES09FYDisqhXWYQHl5VThahYNiygAxx3dEPWjaTF4wIvkyGT3FJLPGA68EYcB25pVI5/zg53IbClADxJORNgZaWxUuyc0p1FUPHDOyrBEEREkSxHk8Z+2x/i+/9TifgpDJMOXBeafjL4n4PKTpQ0FkJB4XINxPLbAxDsZCG4BEpWgqG/8AjUzQfLj7qBiSynD1jQud/wDPxGNblBH4wm7bHf4BDCvLTANIOvZdQrR+Vskp1OCMa3m0kRvwJLOwOFJecRVF8QtQPzE4AAAAgCgDQHXsODI9angRWV3QaUivC8JGS5AywN82j5Gftsf4vv8A1sLkhmogrsmwYvHBJE0D6RUT6I6BCHzjL4WxT7nG7Nes6K7DR8me9gxIs+DfA7LpH+HT0tBf/dga1Rz59JYtoLV4xxK4C/yfEPM6Cr7v6COkfj0U6nB/lwZu+QypYBmTx6nGJAJCnWv+ThPfAz8Kr0Lci/AhxrX+qYOmSJMJFCymiREkjBEERGxLE8etZvVf6hpJOMpljTZCCTBWSsDD7+HlLC/UdO5ReX3Cu42NU521846pwRIkNMb9tj/F9/6yEiOA6mAbUgAx6Vdxcp1JRrHnEXTFSmWWRr2trzzssgwgnLThBgzw8WlZVbuGi5LlCicR2iWE4VgQwmBpg5MDY4tI8ECOmBdkcNBfx0AOY7EYpDUU52EOQciOGVfC5tPsacPsyJa6mkdO4wz2jKLuSMWjIdcpzrmATdZFO4cNVqjrbJR/kOSwT0YoY6en22FSrcKZMeXYJjo8IHKWKGdRego61uXI4BQUxYUZUuyKRmoyavGBc+7KhTCMVY8EOgLmJmaDlXuBkUxshIXBzl8jR73oM2RyZgUqla8hOX1G4IVoJiVLnIoCPpaVqU88+keLoEgqnI5ZZyZqH5BOYEEfGAoEiKW0D7DIHVGhfAFvnHIrgGXX4gwlaSD5vblPjP8AueyH94lOwuR/q5+g/wAe6WbIl/k3jiaC6Tx+2x/i+/8AUwlqiQSMZi/XOmXz8w6ijYXHBlgKjQzbnzwNOmGOcAjvJLophKdk6Lr1iztBXgK4OkxhRtxyMD5CKqNxL9t1dzgR8GbHYTYTlgAgmlSPwlZdMAWoB5Bxw4+fYIhBcZ+714VnOdWiVvumcaT5ChIPPkl65wDKjQmGGJ16bvG8gzGDT4cyKDTLPjFO8PDF9sWTt1xbzS04ThhD2lCIHQB6UDE9KkGJpHY4H8WJJe5dt9RB2D84WQYtw+UcQFliYHiM94imz43hkfxnD5zqCWzxCcVu4cMaELShc4xTJBWxmYi8uWaU/J7lgFs0B/pcugai7erH7bH+L7/1MJJHzP7aSmUBzQnKCaf806Z9WkAI3XIfbPw8HaX1k2lrkPTJflyJTaPr4O/fFEuJkBqJWeoxECH01EbIOiLkUvmyMVixhCSH14VmpjAFS0/MVjpuyp5E+Hr3AIfQ+geC/J0/gfsz+Z6ZwNc2wUcCtSpvbrIGOzPOz+dn87PDNUKxjso15OXDZjzPqgwwudWOgpB+1thYEuDbvAglfZSDyOQwgyljvGK+cAWkEkyHEb7gdJBSFG6Nh3iw9rTg3Ufj9tj/ABff+uhQhfRJz549mFZqUnWltG9Pq5EDcplMW72MowjMuIBi04TEqGaEpLa5GbnBAIKBEsR0jyPp8Q30y02m8MMGwNkl7DLphWPh/tgETbyhMPYZYPIEIAsIQbyTz+pqrOoVwNRwgSlMoOcuygYoTDuVx8LwUEjTncLwh9MFh/KMfyfTC0pXph3hMPdKlMegCOiYf1xpZ5UI+gbPKNAFBihtIxVX+Bippn08BcNc7D+R5bdBiTlzGQ3bO6pWJignsTLHAIjaKMImn1IAE8EuIoBd4cC4BPBg0IHZzfZSGAD1knIaNPsEuqRZmBR0wW5FZkpU/QLkXlwlAhgkjzMP5Gftsf4vv/Ude/hJiYCOrrmT+E09qARBEhGxHYnTgh98V0gh9h1gjYkNBj7xK5y5iGJ1J4KZrGRg7VgEkUjkzDFXbBSv9hxRmJwta0+/TeUNCJknaxt7MHUXP7CHeQOZ5BodhF2X1gwAxAqLUTdDU5KKYZNPMPKx+Mow53sQjQazXZ/GiCYuGGxqEsysp5IxW3xqNQYTggxThQzJr5k4CYvCJBs4ZDZrzME78TJ/BcVU9+Y3SB1gQ3YT8h6EcQ3tBiy2T4vNjgCFYER70j1m5uQljQr2ZMp07FMTrkRzcZEnAWmbgigYANT6PItD8QKEVnMZMXN8KiF+5jwYSD7t2XM7WwIGXEcpwZY03XdQjITol2lYM7zxATAz0FKYgEACISI0iNImPsymVmZvJmkmshI1PuhfBCzjGHI06yWQWEfwVcg9UiE2RB6wrUuP1bmW5uSAzZC1gg1ErhIAAGyyFeQNmHKk6UMWYgznfABHx7SvXbtGcBoiCQ03/Vodg/JOGgHwB7f/AAD2r8C4Sny+ZL/eNm134R6gS8vtLODcLhrCcMPGiwuBN37v8QifzHtfpzlzPhxPF0xILrFd/Fn83wjFgAaeJBlkjfqcX5Z7JjMBFCIIUdDCjk2YD8jATJ4H94kOkkgjNypgASmYExaHHZjGJD0JRgfyQLvIJmykuEuyIUec4RcGmJsP59PwHrunE/8AQYKTyH7zS19GPR9A1EkEMXwft6WyqLAbL5AVCCVHJcFtLJ5UeAdDnjSJwWQUwDoOGAEAFAH/ANA//8QAKxABAQACAgEEAQMEAwEBAAAAAREAITFBURAgYXFQQIGRMGCh8HCxwdHh/9oACAEAAAE/EP8Ai5B49sACpcqgZPNFXaHIEvNocd/CckGDOcx2eSp+PIKtoDTNY4B1dw/OEg1/GKKwZIRtYRIBVILz6IAeElyGHyBiix823gVmVQnW5kk391/IyqSAm/Q30nFCSQqA5ToIOxxHFY+dJEcimCnxSYRE6U8mQWIMydaFmWhxwO0t+Vh4NluxXA1IFkdyzypXkgE2qAyL3XcKiRKJgFjDCKQBD0UIuOIWw022FztRtFflEUysxN6iUQArh4zvO6jUuzowA3YwhCVnXmiAbNeQDOSuw2wrz/xDUIHnA0q7A06BKi4wy27gavkU0XAuibaiEkoMiEBQqufkIMMeHlRz+5PBFOHdBuuZ/cMiL7YgZdKCpHDsGnBcOJ5Zsjg97MKl3WHzid/LmMkZEbRsNJjdsqUyh0p3GJ8XXccjjYhgyzFdtim5ULgpaaGxKUIHbcHaou54Hb9Dj8ea7isRIFlzcfL606PgQUyLO4lF0/PJRRTF8UcuMdE2tTJPG4DZEeM/JR8iAKAFAABVV0AYv3sZW5ZY4CHkA9usIFA2dFwjggAs2DXzaUroDKKTshVgNDuzLFogtuhgh8ZrrJIoHghAnzgA/m8xySlfWW5GG7oGvXMwADEtIC2tZpwGYhYrbgN+ZmsFiXahGEGllGzo/gd0Qt1jqddrrVeOH7MLwzkJI/dw3OwmAkDiPjEoqDpoM99lsyap085ZxgR3gQrWSaHm2F1DeRcSjqBWjYxhNJg1KCAjhDH84sA9gJQfoaYsPy/CUkQedcLzBdYXXyQadbws3dDNMwwQVqYHFq8k0DzD09hOMeC9RySo/I4HYcD9Pl0louWxOieSii8wnlNtIxukxVSKEsGuKKKqo1DBBuFVgAQAPBo9unqh4J0EYVoU4zf5GBfpwn3ecR7s3ia4KSwmAAAADgNB9exB0lPnCz/SNvdE268ZG3Q5UvIhJQq6wp7kN/cyYqvqAmMOudiAierc00fWdEPmQcNaGJpgDQtYWQhtKc5skIY1hvaTBSK0psPs+sgK0bAjAXoqFBPTQNX5BcJw2ksQFlJmTzJHVSC+NKAMeg9zqTq2M2t1r3PMyVely6Exl0cXQbAu0WGc4XohTUSukYrHj+gAgIRARPCOkwDgYCReNNLugamzyKW1+Srq+gjlz/8AWVEEZOkd+ocDoCiPnIOfqpHIAIVCjgAcpcBEGAVbbwYHg3brEdh2pQH8cCJxWCDPQJgULGiXsuChgQD93OEJlCAFDrNiW49qG18q+5swHp4pQs4mGtv32hcIENqGAABoAA8BoPoP6POkE7HY/CcJik8MrcKcQ2T8ZxlAI1q2sapHGbBCUZXKqI6J0nqdnRQ1iCyk4TIFBaxckQAY9YsURVh8HFTb8eho8mksdETWAhG5WqfhA3GiAIoQ09qj9nuWC+N4OGL0LgVnHWnKC8Y3KPSQWeP6euESojBcTxDYmGZKCrWKK2tJ7mW1PvqthCRI9PVcQ9cL4tzPgs9vwQXTFKaQQD3/AMJfx4UzlxE4VU+Nj5tzySz4zHzae5+fJ9uAP3cYI0wSm+z/AImJXsJFlHaxMCvCJS8JR/nHRPUg81IM4QzG88JhH494zSMwaFwq59knwUHBiPmQhBJmGXYyQLqksADTQsHCN4AfSX/304NW+EZ0DlgLlHryhCF8YsACDD5wYXs/j1Gv7Cyrzgy6iQXgONm/u6OrzcTxNB8awL7rlUCi1oXduIZ10hAsgwbwNhRe++IlQGOcfoU06tOxvDVvreQEyQWGHXY06gyAdnhgAqGh4KLot+0CQsgUkL5MmAwNqCHrekIK7mAPXxsIzwdmdf1BMYmTt4MEBNUhlhFFcL38/wD5v8eg+eJkBkkDHesU5T1iT17VOnA0tZbcUQ3qLFP4+EShTuqRO9OGhAFsNxAySQhWU8biLJKz/C4AEoBHyOz/AB7Zz7dKS1mqTLqg3iDgAIC3A5OEEwooToDDeaIaT6KXQngwIOnqFZSEkR5yZl1xcfQUAdMNHjks1AKCu2e1VelkqS0SKcZO1ltKBYFASDL+mTG3koc7Cy6t98saBpRCaay5EI7DKHzV4Jh+AL+D6SWOGrdBolGayRKFfWfnoiyRAkm4Re0HA6PyCOBzsDTkm2+FgV+JhGsBoQt8ZcRhOVxfr2kPYhJzT584YiwaxBL3UXNn8r/OaAQESI94gxBEOUOIhlEXdxtwoxLbmzLgG1m+4revbBni4bsUaK6vGWAttBEHwV58YqUp8C4NrmfmzHHJyZ1cILu7QwIAcBMdlwKyIqMAxMBfi5DwB5LmcERkNt+FilBP5ABkULSs1TKABMvYdRSqFBE4cCi0nXkjQ+Pb/C+3g8d4ouNH7T/b2CXPj7zQx6Y82rDgUI14F3858zP/AIew648BpxhEC9mAhkNE0Cr/AK1cRKgTyFH9xxpiQWk1O9tMSOO3JUfa+itFEYrxqfB5xan5ingF8UYV+lZJ1ZLIhiJ+QvnvCEeC29zYYqNQVVIqIYG6XESlNYjQEkdvt0CMleJR5uP3nnNG/OhMFLn+GH/nqEqmtU5ybHWSm+bDn5NLNP8AV09juDvR1iJzPjL8lfn+03N5Q4FL0sJGiiSamGLItqpRaa04sGvNnb2DAJaBCXQEuU3eKLwAAx8mCTtXlENoqSaRCi9Fb7l4nAAfkWCHhP8AaCycIimM/wBRCCubEIKFhsJKclNCnNNXOfr2FSFnbnmF+hiaUd6mBA8A/g9Z5z5fFFh16uST9ectQOn3hoDwB/BPbH8KDbRyBDt87wiQ2lG4Lbq3WK37DE2TE3EMPPbnM+55cu87gQHM2QXsySmdOv6khJIJmMVvqIb6aoJsfyaJe/EjNGcqzYSMknwuCs5YOHOGBGWFLdIj7JwmeLR/lD0Y5opNDAC0CejJbwV9A/8AvrQdPs0/IpNOskx0ZBSBQQTkv3JJzYZ9EYQ9rE6wxBAaYpCz5OgX+whigUZMDZLmK4lTY8cQ1bKvO0MR2sSTcYADX2atMKWRfV4TjIcrdX5JavVF2r1wtYlwpwEqdLxDI1ABmjVwcukFprRp7NDBoo2JkQVM30IdTjyE9KHC0kbY5jCAqTfRMY/EF82h6yLTp2esPCLxhr/psFu/SGt+8ayWNyQk2gUwUgoCiWI82YHBgi1wCcmtx2CMQotjLH01hQb3nDohozCuaJyflFz46jGgnRaAAS4mWoNeTtS4swPrmx4QOr1cB4wRBNiUfh9lsTeC523sRSEc4ygAMi8I4sCtX9aseq2AYRm36QRq3H4QcAx4zwQpYQk0OASQAD6173raDJ89ibwzeIC/Rp00e34GiZu5nhTa3t9iWNAF0SgKMJIMtQEREax8uWHpcWCcmNzAdjFAA1AYkdK7Yqh6CYX4hsampCQekPyIie5dAUhG0NPCuZiWTI7FIMEolTLw0QkiqZwj7DXSSFua7BoKzITHO/CIjonbQTAGvrpIAgTajcuOEG4OFS5xw1jWXsS01SC8RlpzuMigMQmQb5xSYxPI+5RCi1gjzRiAm8QBAbozkeBp4MTeUlpB0A/JIxAA2eahM7HpcEEoao8imFlEMJxA0a11/wBC7xZWZ4YSR20npw2CPI3icVjEb/IoB+oecaz1gjllqj3CARLJo2Ap9RgigRNCYCAQQCJwjsT4T0LAsTsdpAK16OWiNNll0iBkxqAYEDewomEDF1rAAkbKYACwQ79zD5O+tBAR7crDbid1mFzhSRqtBcNDKNr7i0wTwxrUGbpBWRD3G7qDtA6DUvWIg+TqY3oizhx3yWSOajibX25OYkdUTuBuAXFSuzo97SqkQxPxB7diL6EjNmKYh4/DzoSAFIMDJvPiwiZH+T7GS8nLq0Jn3CaHmrTssK8qG2YGRjF2E5pKD2wBWhRCMhRYpDeNiG7gtkbN4EFclc4oxIeCgEUIrrwXZGGdne7wGC9jL9iZ3AmY99Gbh3IGESHAtFoGQFAkgiDOMJ1PJyNO6zxnOsSK3g+75QJH4c0viOLK+s7R42nP9qJ+HU+cn4PSaXEyK1M0RMKgkQlyG84iEu08KC5t9pEwIQmrGLQ83KGAdoAMT0BaOAA/JvLwAz0wjGNUEvy9CCBT9WNxhChWC3v2qyFBXOM9ajUA881Zzl20DjjMUWwTDfikij+xfBomsiU/9sDDptxxBfayN4Y6+MBnAs9UKsmwwG8MH2uixBBecrA/IuNoJER6ylNUf49xoOXBI0PLOeF9i3L75JtdTCkdolPSDLdKlAvAR7mgR8ostQxr8nKVeOccFQrKWplFdsV7cxnwKcyZgcsAAH5XSGWK7lY+AxE1aDNDER11hllakpn50rIMkWINUwVZJRR9FNXIHuyDSgSOjushsUL4hRNEQiDIP+hoDxR+nUKGUlPiE19B06MxW68StqbhazFXAh0MGqDidcZRREVdPwPacn3j4kLWPlcXJmjRmKHmcgAhJH9hCC8Vb/Y+9mK5Qg1A+25wRJRHgZ+1gOTpzTJ80y7qw3vk9Cb4xeahaTMsEiWj+wlGqIGpjBaIIbQxDevBwJvRTLTkOAbConn2qiIEqLg+XNDwbVRGcSzyuLmMtwgJVXTMA/2EtBvJeHnew4tw2rEITsX/AH0/8h8buXur7VabIizjeirlhIvTqjQ1ToMuRz5oVVru2AP+wjMisqNTS/rupSX4zjFgSVAVB8ZZdC3bMQDQtRe1rO3XzS99pFziQjUyFLMAB5ZV4eIFzDk6L5f2ChAVWhnSxOERTE5oCGk9V5fRIrMS9Ye6V2Ci640MnB6WQqrUj0/ZTCT9DtuBVjukFMZlk4xbKigUSAgFEiQeBWuy2LBBCufRSWZiDJIDAOA/sMsDtJbYJoA/x+07wWMpg98gcibr8510GlHcJsxopMWh0bTNLziY0G4blQqVLMpXqBo07gClMlzBbXDQjCvGTWGOXev7EcY8F5ByVRp2HWIiYfviOjklM+cTJGFtTTInl1CHi6dDloP2POAVMNjc6UR3hRy0V4PZxLkTxBU6MaxTUg4jT6+wX0atygwKkB7wPR6IAAyOTIXOSHqwdMmsPg+/lbAL+M040PyoTLaihjveFaCrBxIiD36voIXByuAO1zanV6A4bEd5gpg6xGwC8qzNzYElPZTKnxhfOy6oVhpZ0yPGpioG034wCIIiJRNiPZ5PRSVzpKxDo51jWrsoqnLGtr+o3qzO/wBNCQpcA1OBoZqeExO7PsX644kw1Ls4TJwOzBUMC7xWV6KK1iruAH9MgkQR6eMEVbyG/wAhfcK9J2xrwEjqu9H0Ih7VEtDrB8QU5fy57O5ZjLTwoBEiu8BvdhhDdWjtHTxhWe6WE9P6bVvDOmdrjvU1Uh1i8Lc3kohfeJI/EnRxyxMCkTFWaTlMHKalO2gQqGzKn0K44QtIIEmthrJWmhpNGmrMNXBY8ZuWWcDX5M6TSOJSL7aRFEQc4CYCAAohRQ6cA2B/U/DFF2Zi5W0L8Qx2Ted6Xgz644qiLLuxfP7cZgWBTCxWqAZm3KU470LjTf1locFdtgfKBOH9OoK2qNepOHJwKeCDtIxQw6/r1d/+zGS4rVzWdgrajPrC4pMGWUCD2CFkKvGzjuJTCueNTgjlqdqGTyCQ/pD+PTEBXsLxGgBYm26w6DjwJAIADR7AwxIklkKcZavs4kZRrCUBxgj+f1GeO+U3yfr14N5hUSdsmF9CdMtzYrQo3gD5h6EB1RLOY9PrIZxBD1gDhX4wQCCgRGiOxE0ieqv+bCNIY1LdmvhspfFzVTl8jkhi+fSomjanAW7Tgw6FYukKnk05RsRmn4+/GAFACgAAqq6AMRYlPPEA2/GLH+IMAqf2xQFUA5VgfbxnQBzQz+MUOUPvP9PAIdzbmumFLtYpwAVX0Sn+kL+zX85+6+weNHv9Z/u54/yafQOKA+V/Fw4W4yECN5UkSmFTzZogolGtusBMggIbFFET1dqj9jpqfKMx1B407cmVHxkOUNAfOpZ14wG77SsiLB20r7oLUUMmrhlzswmRhsxNkYrnU/VrwbwLMWOwsOV8HqLHpLlUjuVQMlOWyEP5aysPOF+m9CrlBBBMI+TAFIVx0rFuita3U3l/gUcFm4mVAOUBkHFRn5NT4JR1dgNras48DzJgkcsCJBlLLU3fWDdzb2BQJQeFzncrfTQdyUMHCcv4aBqaxlEMMQSW5T6NeQR50H+foqSNQqE1iC2b82diMha8GV/QJoBwmlKzbAC7Z0gUneWmGyUeTXMgFLtwIVG4ukNJ5CcdGpSGATZmTQQrpbHSVKZsA0Yux5me271drvESVk+uUkQkayHUDjL3aCg7c5tmIhkeQOgkSHdaC3NnyJQNpvBNjrvviF9kbmE8cM5zBYpaDwo5E9JtXbmAAjnRir7wciAtXVIguciMluWaBs4Ybcrl0SemqsIil1zbBb4TMR0Wonu2l2jF3+AUOSDuizmCizmov2jDUOsREFbracIEaAT6B7hBCSFEmp3c2oANGjk4Gz9WvBvDzP3qNGMNFxHXp547oFt7IuuwjcAyZNjdxwS3biDTZUBAdHCGCxcPV1cY+YLe/VRncUYs1QGqSgjE6trrFhOuphKyUlQirZUcNzsZp2+xQAaYDOaIZ4UKHG0dNLcUZYrnzbHKg220ht9WUhZwSBTAgK2bP8Ko7+KrLUmi9+D1OqIYskI00tslaxY4ZYJgELiYBu7P2xD6YUH6N3vaGfui1bd1tOfCpX0sWGQ3KLQVc4DCwMAAPRKy5ayDySyMREHDnUOEqmlZYJU16gQDwBP4dY14BNcgezecnuNhuldJYI4zzUMxVzZwrgjqIzY01IWKZPASY1YZIlnZquCT4CbTCNhE+cPahr5BT/D7nEkeISqwMndJv3IDRvev1a8G8EFA3yOP69qbzAMTYGgHziYSW8SZAvDpz6p6GQAdw6DbCmBvhYrQPCtY/Cgb7cmZaqLZQhE7kiqCa9MXErqqe/ZjwtLikpjggioAwo3cS+cUoEKRCALaeuUgigiVIE8LYF+sG1UgvNCi0vz63VD4N/dKqmGB4/2ucD4YBRFeb4PBB8BhX7VR0GDa0TE6uXsOaCaIbOPZAgQCvUNSk0NqgNY6Hi5bFJLJMKmYHjAy2O77WxkhFgmiiiXBEiJUROgDHJrmirAFKTj7Ylb1wjftAHk49y7xY7ZrRpEqYXK6RS0lfCA/gF4N4xHanL0mCkxvcw/gwE/RyJdkDT6niicbRQu0BzL5rwCjobRtUwgEIFBzX90NuPYU8DUCgGic+g6nQOwhnRsYA3MMztXayg9byl1kDLQnQqvgDNYS+X3chEHuZBvZgUrcohGJ6bX5vh0y0Vmgsf8A8CQCECiYQEBofKEhAGKrvteJamY1oyNXGNCPmZ40f9+igTw70uftEfhwGTYlID/CRlhi75VzCld0dO/Qh0V6FwQPQAKhmyGGwbCn92l1MOhf9EUfAz5x4m1Z50kY/I5t39V+ZpxRET2W0YbUFFJZxl8jmJ6wp2cANafNjDbD2iTAwoMhJEUZCG2pSg7ZKw6I2wtHT7IEp3qLoBFUdGHNk7EplSCRNgNKG7IeEcA+NV/VLwakjMYDLoAVQMDw1T5XhwXh7XDOOAEQogxO8AcDW7QNRJbBCmNkPr2AM8k20uancGKZ3MCmu8c3KE887k05I7MIJruyhCCFam1XBJt4tLckXyKwVN/2RwBELe2UCYmNvFwIjvWTpIo2mgDY5Fbx8Ty2ykwqBKFVTmzXPK+IOHWPoHFE4cwmURADTnxSRU9TnfGRzOCRz84qpK7xkNA3FiSTogNAYRpRKgGf9Kl5PAiKulwvq6+w3QjpQnqU79H+cFpNAmPLC8bTWA9ADwET9k9Dc+eOhKY85BogQwVk7wuE5djwyqEGAEo6At7sxJRhKAH6YkHAEHBIq0WtA12Ih5FypfGeUsoCXOgVc0ndaAGu0GCQscpcTRolrzhWzNW5qOgnnhvHujE9GiEZZvGHQF5FYgOQiyt7fWOdsShqI7mH5Akf2YgiOky4imTlEs0TxDoTfDfGGKMdew8TDBOSTiDbsrcUPxdJZw3JrLYOERlWlMwsi2DJUKEvoA2YUEywPzhjwqnjB0V+clSGyZMW5EFkTsUZTLUx9kzSB6HtkrapXXVyM0b/ACAfqw0PeQA/dHDgDOAwniB7EHkH7Lm67PO7XG5dYAcAfXsagpjESbAJazWXYbQ8f44WvLoRKIj2cYoFUDysMWcoGJNTqQc8VztdfzFrAHb2oOkE+d5/qh/swJo0fHsakCiOiKMnWubmbhpWt6r2uF662a7455idSwe4DTHm84D2RMGfBflvs6xYOGEjGUIoI3VQyK8XOJv/AHlkVvC6GmooGtJs7zyG91aOXLYybt2yrQ4QbdUrkykiYi2AgXYB26lLGakNst3fozVpt8r/AN+kKCASMoCJc8rlTaSXlEcnr4/DOeY5WKlJEREyUw8Deu2LKepyfo07y8iFfIORy3f3KKFsSOm4sNevUNyaTXrAUuzECQOAAgf8gf/EADsRAAAGAQIEBAMHAgQHAAAAAAECAwQFBgcAERITIDEQFCFQFSIyFhcjNTZUYEFCJDAzQCUmRGFwcYD/2gAIAQEBAQwA/wDggiSig8KZRESxMmf6G6w6UjZBIN1EFSgJRD0EPX3iLhpOZcA2jUTqqxOE5NcgKyy5EQbYXrSQB5hZdQw4eqAhsHmA04wnAHAfLuFyC+we/IUTR7tNQZTG9tigE6jYyiSqKqCgpLlMRWLh5Kacg0jETqrQ2EnapQUmnBUtNcRU9uUAWKsqYcV0kQ28sYNO8N1ZcP8ADHXSNK4SkUSipEuCLBIwM5WXRTyLcxBp2T4T5WM4zboqNztF0CuGnKO3Mkgf0OmmIPa7ASBOB4zbnCZw7XHwCeLMdqtZceWGtCKqyfOZe60imO7dIcsu5I+GhIyvsisYtIqaXTerijUokVCCAydYrMtfpo6yxhBGDgIuusysotMCF6XLZs8RFu8TIqhccQIKlM/q/wAqlVus3SHwsnQHMyhphhPxxJONOB0PAQKYokOAGTveKkXZTy1aJwuVEzpHFNQBKp7k2QUdLkbJBupUoBCtwKMakAAr0qqpoJHXWECo2GSf3u2cDcBNqtwDStRKcY1AOL/IvdCZ2tsLluUqc1WrFL0GdMg5KcqUdINJVinIsTAdr4AIgO4d8uUxv5cbPHlAinuWLosJO2ocYbpiO479WWJ00RWRaIjs4wtX+a6WsK5dy/5WT6SSfYDMMCf8WxTcDw8h8BkTbMPG1Niu6y/bn0YNhEPcsGtimkHjwe/VmWS83YyR5B+ShxIQ9UatxDZX/KAdv/WU6sNfnAk2BRKwx7ZC2WuJqqDu+8J8wEgHpx7H9TiPuWDALyZAf7ukgbmANTZhn74oXcRAiYJJkRIHyqKJIhuqcpQK+YqDwkXSE3/f+nUIgUonMIAV3a6ywMJXb9sQ94nabZK4sySftjO8PzRo6xjHnN+APp4XtyDSnvz77D7lgxwXzD5p/d0nPy0zqaiJJrG2okq+Ax0J7ME/KKGSiCg2bpQ97so8wqbtcq+OL0zT8x5VYdVnIVhq78GsoZRVkxfNZNmm/ZG4m3RISDWKZKSDw3C2st4sFxkBaMOYRm0xLanSZVXZm7fSmE7IVMVEl2hgpSR0bk0QN9ZvqHwzHIA2rBWf9/uWHHoNbYCJh+Xt6dL4BFg4Av1QkIrYrCWJSOUh69jyt10gCRIF3koZ6SKcDFgHnzZCvLJ8POcqgvd2TifqDa5vEAQlMKyxnUO4i1BETdGZ352tcRaJjtrDMCkaLdzQgAPpmkZFdTJklgWX1GMV6zTjNHiorOccoGfXhFTuBu4+GbJMF5dCMIPp7lTX3w6ytHO+xREDfMHboVLxoKE1RT8q+t9G+oddtOIGEdufNuWqJ3N5ZFeU982KAawo7MjZVmY/R0ZtbHVgWzkv04TdlWrrlp/fuO239LwuLapvVQHYcLocyyqLiHhuUvzKDsnbZY03YXUgP0+5IKigsRYveDeFkIZq9L26DjsmcdUoN7820b6h8ZNMFoxwkPbGKxm17bFDXbov8V8XqjlAobq4bmQYWA8YsOyW23oPfIhRPTXgBrCJyhNOSD31kObCDqrhQo7OBERHce/ueJJMH9RK2Ed1eh6qCDFdY3047TBzfEDB2HuPi7HhaKmHtj0OZfmgl7D36BKRQopqBunY2Lml3M4pAIBESSMxFoSiAgKdsbg6rL5EdYdW5Ns5Q6/rtrM0/wCcliQiI7o+6YSlOTKOIk47E6LUqKFYkFS/Vh5Eq1uBU3fxs70sdXXrww7Bh9p5u5lcCHy9OYK38TiSTbcu7vDNo3KpWXZvSSICka5SHtjk4oXpApe01KoQkWvKuNuGRfLST5V+4ERV90p8oaHsbV6UdigYpwA5PUvjPtRfQL1mX6sWPAjrokiqIAA+g7eOZ5wGcIlCJDsvhSHM2jnEyoHzdK6CLpA7VwHEhYI57Q7cPIEQBtOtpepnnURDl43TM5vCKhO2Z7NuqSstTenupREogYvoNCmPjdUauzDuv4gOw+va5xTmoW8yzbcqdan21lh0pRsIcetwKAmN9Nvk3FvuBiN/mJBxSMJEIRaIbB1ZXrJZqC+JIF3fQtzdxNbe18NxTxqdKCbPre7D8OSfuJR+rIOjCZf3bCk7yHi8EsP4fRe6ejbokUybFk67ZJvH8ydFQpgTgLxXLCkBmy5E3F8mAhKm6eEMAK4dhQkbIaUXDiR339es5CKEMkqAGSyNTlaxLmWbgIxUjYRdQjWCak5TT3eElFoWURkkB+aPfIybBGRbiAo+N3ubWox4nDY8pISDuUeKP3pxO5Ic6ZuIgiBlZB8ulyF1lTowFxn60mZKHV5adGyoSddFiZwpUnohsOw9+l48bx7VR67MBW93yS8s4HjGqRCRSzdw2MBXBDEN7xhy2AZI1Yen9fC0WZlVYs0g6EBWm5p9PyKklIHEy3hFRbyZfpxzEgncVqjQsDEhHrIJLuL7BpVW0mRjxEqFffHkoNq+U/1OnMT5RrVyoJiIawvXmDpu5mnaRVFpeuQc8kCUo2TUBbDNVXPuiZwQH2NMfQCQuJhyoQlmlqwfdjWGYJt/dWbtwwckeNTCRek3+NtDQiLk5EZmcsMTXGhnkmqUurbaX1qlDPnIiCGmENKyY8Me3VWGIxJaZAwC6IVshUKNF1BITN/xZCzWiLqrEXT84c+fnHdilVJR4P4lO9Kqx6s4L8MWzb/1gbfP1sDEiVxTR+924cO3NJu9yPcXwCVR4oUjh26dm43Sh1De7kOdM3EmIlMq4XX/ANY5z+NfyDZK2iDZiqUWqecJkC7KtkTGkcyWZ2mKbUEkNPpB7JLi5fqnVXL9QaqPpWGQdWcnO8gyaB2/gZfqDVRHirDEerMzkFraKAfwQO+qYbiqjEekobmANZHcg7ub1UB9P4JQVObT2JukTgmUyg9p5x5qadOO/wDBcYL8+mtumdclZwjtyYdgVOKipjj3/gmFZFNeCXjd/wAXoyxMkjKuZoAgDj+C0S0Gqs8R6bcWbV03fNyu2ZwO20ACPbU3Y4avNhcyixS6ultdW6WF6qHA1/g1cvFgrPyR6u7YM4zXBsLRuJ5TLVtkQEiapUE3b54/VFd6odVX+HJJKLqAkiUTKQ2KLVKlBVQhG6DfBhuHd0+ADmwa1EPkfCAyOEptAonj10Vgl4CXgl+RKIHSP4AAiOweowePLRPACjVASIMsGuBKBn7wpRHB8eIbA8PxSGDpBMomjnaaozlNsNfMPxBuYEvCt0WdtTY7qKBIUp2DfV6RPGSHD5n3nFNMasY4s++IBn13yypGuzxVfKUyzq/Wx4fjVeKhpO52dM3EV4tvB5fsUeqUskJXTRurX79BAsJSqs7fW16vNqxqnqiiiq4VKiiUTK0XGDGIbklZ4pVJC1ZajIUxmEIQHDqQyXbpA4mM5FMgXCzAO4PFt4vKlsjlAFRYF0avkKCuCfw52QqT3ImMSNEjzdfL+DrCH5K61lb9ZuP916a9P98iUDqlKPYo+RqYGb93BzKLnOf1N44UlVUZReLMb/D5vZJCRm/LtzcO1VN2sexPS7pZauyrP/lyMPwrCO/qPfxQXVbLFXQMJVcdXEtqihbPdhkcm1YtdnBUbBsxwh+SutZW/Wbj3ko8JgMHeqPm8/VUDgICS402UrckoU6ZjMe3oPfwbunDRTmtTmTUXkJB9wpOllFAqjRGAqDcu3DqakVZaWcSKwiJ+nG0yaHtbY2/4OYIojyqme7bq4Q/JXWsrfrNx71Sb4/qC4kAObGxuQqfYEQRXUKQzui0adLzCIo6kcIRam5450qkMlhuytAE7QyTgklAy8QcSSCCiYsycbtImrGcGtRciXsPfqh1OVKtldXNMrmnOwP2wh+SutZW/Wbj3vtptKyTMQFquqmMfk24x2xU3QqEjM3uymAss1IYkNYa5eGZipgRXWQ6MjWJBGXitwjJooPqkuBPXQ+g7dUMkK8u1RL3vKoM6a7E2sIfkrrWVv1m495qkU2m55vGPDGKhesYxFar6kqxVWOt0UOUcRdnaqomEAyQ1I6qDoRD5qBKJTtQb8QgJrbDKQM+5jjhsn04rhDS1pSXOXdrmaYK0r5IsB/Fwh+SutZW/Wbj3mCfjGTDZ+A7ammKNnrirZMQEsgwcxjxRi7KJF/GgRa0raGyaQCJcoP02NRXIYdj4rtxYGTGOem2j8kUgtnZBIMAD4q4brNVjN3BRIt4x8c8lHZGTEhlHFPrbKjV8yr0xSr3m0KWibO7D0Z4Q/JXWsrfrNx71jfJKMeiWDnTCDew0yvXZuDvcvmJDCk0icRYLJKp/dBbOLh4U9R2E5hY4DILpppRMJWceRplDHKmOQrse2SAEbbliwEQHcO9DyoaPTJE2ERM2mahVby284iJBcSOFJpE4jHrJqpFxFbTG4RImAReEpFQ4GlHBE0omvVekNgMmCaJ75WntphuRHODEPIRzyLdGZviGTcYQARhXewas2K0LLLqSyrg6ZvuMZ/u1NfcYz/dqa+4xp+7U19xjT92pq+Y7QqDBJ4kudU3usXY5uGNxRrlVMG2XrcgXhUOmqP302fh25bfd5lu3ug2SVIjqQmJOVUFWQXUVN4x01KxKgKRy6qRmeXrc1KBVTprCObLKIbclvu7y5bnIbJKES1ITUrKqc2QXUVNQsmuYQxIuZMZWLy1YqzJNkmzEqa8lGWKah0jIRrg6KX25tf71bX25tn71bX26tn71bX24tX71bX23tQ/9atqRsEzLpgjIuFFU/8AzV//xABCEQABAgIFCQYEBAQFBQAAAAABAhEAAxIhMUFRBCBhcYGRobHBEBMiQlDRMlJicjBggpIUI6LxQ2OywuFwgIPi8P/aAAgBAQENPwD/ALCNAjQhXtGlJHT1o/KCw1mwDXB8qfEd9YjQwHKPuHtGlj0i4KDe0C+X4+AcwLQQxGsGDgKhpJsA0mL0orO+sRpU3Jo+4+8awRyMfKqo76hCVVEpdBbTYYsE1EtLfqDE8hCw6VJCWI0ECNKEnpB+kJP9LQbA9JHFzxgf4iKwNYrI2+rSyDMXcBgNJwhIrLeJRvJVbXuzpoIlJwPzEYDjBXSnTSKg5rAufAQBWpvEo4k27LM5QYpUARxs2QHJkmw/YelcBTTJK38OlL2HhChWL0n5VC49pDEEOCNINUB1KkixV5oadG6EliDaCLfU1qCRrJaKIVMN6lkOX1OwzkJKlHACsmJk3u5Sbgl2HuTCQ61XqVeT+ChPhUKqf0q6GAujOlF6xiBiLQb4mpcEcQdINRzAoCakCovYr39TlOs7LOOflZofo828GJQoS3+Y2kaqvw5CXU1sxAt1kDlE9TJpeSZYNTmrXmHJlkawKoB9SRJCRtUM+RLA/UbeDQtHeK1q/Eyk0kt5V2kb69sSB3czS3wq2htvaMlmcoc+peHdVnPE7LAkbwnpCEJA2ACNJAjAKH4AvNQgXUq4QKcuusqFbDWzRlKSnRSFnaqSUfuq9TVLCtxAzkoUdwiVlJWQLSyiRBNVGtZGuFG0u3FoFfhLkcYCmXLmPSSND2ERNSFJOu46Rmykkn2Gk2QosiVLdyLna0mFCybMAVtFcBJPx4aWhGUUS2ILHZV2z5o3J/v6nOlFPXpndwvlE2aQVG4PXrMC1cwPXoF0Jkq7oXUmqhKq0qBZ3saBM7uYwamk/Ctth3xIWCl8FO+5s2fO8WoB+YhSu6lKIeg6fi1vwha6poUe7YmovcBqqiRk0wqU95BLA4CyBMWs8T2yZbnWr+3qYmgHUausGvNMtQ4R/Ekf1Q57HekUh4TJKkgCoFNjb4m5Mr9wKW5nNlzyDtBiVlAOwp9z2d02+qJcknf2AOTgBbC5pA0AVDk/qaFA7i8TJCTtYPxzaB5R/GH/AFGHPPtVJUOEKmKQdv8AbNQmmn9NZ4RlKCG+oV9G7AkHjBk9eyeky0Y+KonY8H1TJZhQdRdQ5tmokLO4QJqlbi8P2iUrkY/iSeeaoEEaDUYlzhMQcUk0mGwtE6WDqPmGwuI7hR3AmFylDsyYOr7zdsDeqzpbj7h/wM0ZKttqTCJSzvGYiQptZsiTLXM4gdc7JalNegnoeEE05L4+ZI4nXCsnmD+kx3ixziSgkDFXlG0xNWVHaelnqomgHUosecKAI1GvMmZMsDXRLRMpS68TUBvzMoXSVoQm79T8InGgk/SPi3ls6YkpUNBDRLmCZLNykEu27wmF5IsnQoJIIO2AtatlZhBpzWN9yTqqO31YGEJ7tegoqD6wAc3vRNlHQ78C8FIC03pWBW+vsAc7IVNEqWNALVRKlgHSpqzn5IHe8ovGy2MoaiflNithEZNLKJb+aaqwca4mrKidfsKvV5wpo+4W8M2SCZSsfpOgwFUZslVhGIwOBEG2WshJBwD27ImJ7tBFfiVeIyVJV/5D8PX8BQIINhBqIieaUs4Pak6jZoiSCpf+ZMJPiP6WAGj1iUsHWLxtETpYUG0isbC42ZkwHu0YfUrQOMTFOonGBeKjDvRUpRD6iYWoFXhBpNiSDVC6kLFSVHA4E7BnyklSicB1il4anWWNr3PoaCHZQIqxru9ZBKpL7ykcT2kES0XqV7C8ws7ALgBcB2zFAADmdAhaf5qlJBJJFYBuA0NDpmIA8r1tsiZJSTpLW506aAdQrhCwhFIOE1AksangWECioaiGjAEHpAD0VLTSOpLAnZF81ZJWpsLgNnq0tQUCMRCQykKLUyL04vhAHhQCCpZwAgVIRclN1WOPZ9KSeUG0rNY/TbCwyphFbYJwEEeCWD4lHVhiYWqoXJFwGqO4HLOVNJ2AQsupNRBOMY0YNyWHR4J8yiefrGILGB8xJ59o8ikggaiGPGMa/eDekVjVXCrSovDx3CeWcmQVbSoj8iPHcJ5Z0mSlO8Uuv5F7kcs147wD9qQOn5F7pt2alJO4PCp6z/UfyKkqG7NTIVxBEFRPH8iyZtJtCnrzcqVRAvYVk6qm/Iy/BMGKTfrBrhYBBFdR7QKkAutRwA94QKMpHyp9zafyPehXiTsBsjFzyZoNyEgHfbBvUSTx/J5LAAOTBDvMLHYGrjBKOrx9n/tAuV4CdVtcXEio6jmHzzPCnfDVhKX4uI+0e8XBYocXMDzprSdo7ZaqJpKo1sDgcYQz0S4r0+tTvgexCcdZxwiWWXNVWHwSOr7IwBYR9xh6walNoVXEwEEECkhV40EQDSlq+ZBsOuFFgBaSYKaQQfhli2vFWOEIqpWS0kYN8TYVQfKjwgR9xgWpWHfbdCgxlrYpV9pNuphCa5koeUfMnRiOzv8A/amGHL1kqAiXkdTY0XgrJO/Mmy6TE1BSf7wKSCxFlTcolGjKBFRVedkKSDNUDWAbEjXfmpLgi0ERJTRWPnTY/QxlHjToN43x3/RMMOXrIMKk92rQbDClkoWA4IOLWHMa1JYw9QUomvbEvJu8V9xS54xNmqVvJLahnTld2oY0qhuJeMlmgjFlGidl8d/0TDDl61MPjln/AFJwPOCK0TRV1EG+UoJ4Ji5Kkgj9zvA+U18QIF5BbfZBmJ5iE5I3LPTPQdyhH8MFbQHjv+iYYcvXB8qiOsC6YAvip4vUgsrdUIbxS5gFIDb0eJk1LptoKd2fA3QvI3G4HPVPljeoCBISjaRRjv8AomGHL1maqiSm3jCJiQygGZRa7NXMCVC4g2vCAFJ0EQiWZK9aQznXbCZhKNKCfCd2dk38xR0j4f6mjKpgJH0pLvvqjv8AomGHL1mVOSo6gQ8ZRJpJP1M44xLUQQcyWsLUcAMYmkITpjKSBXYldx0RJTU3+InDTohBYghiDmLIAAHE6Io05yzdU9EHgNMI8MsfSL9tsd/0TDDl60Kpcz5dCtEN4Z0ogvoU1R21xpqMY0hF7VmCPHNWRTW1wHQWxJcIHzG9R13diakTfMkXBWIGMEVTZRD/AKgOoeLnqMY0hF4TWfaFMDNmEUlE1VE2fphPiCQfBMwBIt0VtCCxB/8ArI7/AP2piY3hAFTbI+0e0faPaPtHtH2j2iYuixDdB6tgCSn9pccIxUn2aNR94byJHV4J8yiRsFg2DMHyqLbrOEC9aa+DRqV7x9KR1eHfxKLbBYNkEsFEuqXtvEEBXep8qflJFpOBdoUXITeY1/8AEa41xrjXCS4CjYf+tf8A/8QAOxEAAQQBAgMFBQcDAgcAAAAAAwECBAUGBxEAEjEQEyAhUBQVIiMyFhc1NkFUYCQlMDM0QkRRYXCAof/aAAgBAgEBDAD/ANCHkGxN3qiI6zrmLs84kVlhBKuwzDcqKi+aL5esWNrX1IFkWBWCFZ6uVwXKOsC8yn1ayAir3IgMRNU8pRd17heA6uXbFTvwBckPWCE5dp0Z7OK7PsZsVRrJDRkEUZmIQLkcOytYFTHWTYFaMVtq7GGqjqAKRZOqGUmduFRCampGXou/tDV4i6rZGH/cMCRK3V2CVUZZgcJYF1T5DGc2Adr0yrTu3+KZTyjmGZkkJXAk94w7SFZ9LyJxEvbuC7miSztWp1UvoaoyxayQLH85o8g2GIndTPVcvyyLi8HvHbOnWttYXct02yI4hfDhuKkyiyQb0VK7IchrMLqWiEiKa4urK9lrLsSK53hAc8UqHivcM2LapGE5sLIviHkmJU+XwkmR1Yku1qptLOdXz2K0/Yiq1yPYqo/DNSTRnMrL93NHY9hGIQaorPUjmHGC45V2Hk90W/ujTyLuLwsGQpGhEnMWkgQsMxnnkbN4v7uTkFmSxkqvL/gw3NJeMyEAdziVOQUVXmtM00dWKWdCk1swkCa1WSexU3TZemmGWG79MdnOVzPUtRrJa7GDKxdiJ5Jt4tNKZtnkKSipuDVq77uMKjCvn/i07y99LNSrmu/tmpWKttYPvqC3ean/AN7MckOi5DCO3qi7oi+paxSFbBiRU6eHpxpRXpGoXznJs/NLJbTJZJ0XcX+JeNN8jS7p1rpio6bnNAuP35BDTaH2UrVfdw2J1Z5MRPUtZFXvYKfp4Xrs1V4qGpS4WN22yvIpHuK9fiGMhV2E1zldCmsTd4SI3f8AT9fEiK5eVqKrouN5DNbzRoZ3Mw+nyuhvgyyQjpF1SqEn0KTmJ85F3TfswyOsnKYbETdPUtYwKoIcnz28LGd4Rg+LSvkz8bfWw1a01NpbSVzGltHLIOS0w3H28ikjBUOfYbKJ3HtIk4yHBqPI4Sya5GDmTIcivlkhS28sjwQoUixljgxE3Pj+HUeKwUlTeR0qVqbjcYiijNOfgertAr0YQMlq5cRpsUkmb9DfpTs0qgrIyF0tU+D1LVWIsjGVKiefXp08ETZJoFd9NvcCoqN1mRqvbeZ1f3rlRxFDFrmw32QPeSr7E3BsOmREUQBqHEJYKTKJGKRTKav1arGxrUFgNERPBpNCZIviyn+a6sXRG2Man3csKqzDBI9S0oVEFLGaDIcqSTFEgo+eGSFh5WdFTonZpFXqKrNYOTz9SyuH7dj8qPtuqIqJsvXwCdymG7jMW97hR14TonHXgF1cRQLFjySsj4dLdEymHIcq8auxWlx8UtPr8GkUho7mRHd9WrsVRX0eV/w7Jvv+uHhSRk0Map5atG7vH2CRexUc74WJu/GKxtRRRoKfV6kYaFE4S9LiKsG2kxHdfAzzIxOMt8sKPw3onbXkUNgAqddQxNkYZIcvCdPBhNl7ryWOdV2HqtVLNo2WAk3J5L5p0wVyNyuKq8avNX3QB36cYLULcZKAbk3AiIibJ09T1OrlhZQ46JsLwRBqaYAKdc7f3GGGT9U6J2xUVZQmp1zhe7wmUjuE6eBHPG5CDXYlDMj5bibUJsq2cAtXYmrjpsTGTez5DDLxqoHvsZ7zjfy340npPZax9uZNi+qavVvfVwLNifH4MaGhsihDd01VK4WMKNvTtx2I6dexIrE3XVKT7NijgIuzvDpZf+77N9QZdo2rGOfEzIYreID1HPjkTrnbUNhxnLxUVprixDWh+qBDFAhjhgREF6plNc20oZMRU3dyqxVY76u2lkpDuokpfp1IiLPxMhRoqqnmm/bpPTLLtyW5E+Tq5aIecCqGu7fCExYxmyALymo58TNMXRTIirIppFXkzaYqfMz0jY+HGY7rpNjqtG7IJLfP1VURU2XpmlX7nyWTFamwe1U3T/vidlHyjF2iPs5+QUsjH7QldIReXjZVVGt+rF68GL4s1xvhdcWRbi0NYm6+LTTIHVNz7vMu0K3xOLZ38S8XZCagMJcnh4vGVeeBCDXQhwY6IgfVtXKbvogbkTfmeDDcpLjFmhH7rX3tDT5vVNKNzVfd4fe0RFSQFzwYZVLb5NHiPT5eqlt7BQtrgrsXxte8bkINVaTA8qHkVW0Z1RLOBRpHt5NxIf3kn1e4rRW1aavN9M6GWumlgHRUL24hikjKJ3Iu7a6DCjV0RkKI1GR3Ma9OV6IrRQYYCd8EQ2Fu8UpMgI0tqLvCZjpw6mjus6dziQ0XfzTxRYp5slkOK1XSMQwCLjqtsZJHOshHCdvMB7Xt9Y1WxpWkbkURvl17Mcx+Zkli2DFRUFT1EOkgMgQmo0XZZWMWphEnzHI0GQZhb3Vms4RiBDhduXJMbaWds413DbAuJMMf+n4dK4Y5OROMRN11au5sc4KiKRwxVd9cUpFLWyHjUOrGRhZsZAPWHqDnF2TuKqONzserMiZtLyGWpD+qyooJsd8WS1HBy7CZ+OyXGAxxaqmo7K+lNi1w3O4xnHIeN1zYkdEU3E22ra5OaccQks9T8chNVIz1ObKcxssoIjT/AC4OPY5Y5JMSNCYvcUlPFoq0dfET4MrXfJJni0fDzWMs/wCl1i9LkCtfZhR5fuvxXm37t+0TAsVhqjmRGOeCLGjN5I42Mb6u5jHpyvRFaMAQ/wCkxre28wegvyrImDckkmj9UrtxyCtbB0px6M9HyVIbiHBh14UjwhtGFei8ZQu+RTPFo6DaDLkr/BF6LxlCbZHM8Wk8dRYwhlT+CL04y1NslmJ4XLs1V4wKOsbE4g18l/gmas7vKJbfCjVe5GJ1pQJGqY4P4LqIFRZWf/p4KaOsu3jR2puom8g2s/gurcB4LkM/b5Xg0zqX2ORJJVPkfwXNMcbklK+I3ZJUiOeGd0WU1WSOFVE68VFDa3p0j1wnO4xLGI+L1iRBrzSf4NfYdR5D8c0W0hdHqnm3SUfkr9MsYgqjiDcYkWHFhDQMQbBj/hxCDCxSFcjR22peN1jlEx7jmPrG3m2jQ1VrNYpKL8cNFSDq7TmVGzglEtXd1dyFD1xmEZ2KqIm69LjOcdpVVkgyPNL1iAiqkGI5yJrDO5vOI3lhawwHqjZ8Yg0p8ro7tv8AQnapOy/zKmxs7I9kpEJTXEO9gtsIPN7P6zqVlkmZPdSQ3K2HiGmQ58ZlleK5BRsKxqK3lHFGvD8Ux4jeV0QO1zpdRThq6Aix5Jx3eFXKiRyjlYvfhyOoHYD2QpSjCNxSqjR5jqHMszvraVXDg43plY2zWzbd6gjQdPsXgtRGx0e5cWx9zeVYgdrLTfGZ7F5BKEuR4Nc4s/26K9xYmC6iOkkZUXjvncawfisbjTX8qA9ZK5Wjc5OqokzJ1Q3QDGjAxjfJvbq5WjLWhsmp8/R+URr5UFd+71UyV8ULaKI7YumWIDlf36wbzCRETyTp2mCOQJwTNRw88xVcbskkQ90g6e5G69pkHIXebrB+KxuNNfyoD1lyczVavTJYZ6TJTN2VHYrldbfwGKwjWzO08cElndyGNeMMKFC3JHEwa5LJLd5Sdyea1EEdZWggiREb4c/qm2uNHbt83SyxdEyRIm+w9YPxWNxpr+VAetZdhcLKAo9V7ufYYLlNGVShY5zY2ZZjTO7txS8QNYLFnwz4wyJA1Wx6Ts2ShAvr7qrtGo+CZhOJTuSMR3FE1ZGUR0d5qnitGd5WyB8Ym9QZXG5ONYPxWNxpr+VAeuHroEpNpIRvSdp9is/dSRkY6w0fiuRXVklzXWtHfYfKa56uHxguYmyGCWsslRbGocsPJwq9dlRd038VsVA1kgrumHsWVlkZG8awfisbjTX8qA9ZyWykVFKexita42G6h2mQXbK2aITA+DM64FljsgRkRVwGQ+PlEdGr5ZtXEp8pPsmzcYtWXNJHnNXd/h1It0rMbIFq7SNJ6p0i7dYKny9YPxWNxpr+VAes3MJLCqPDVN+KmWXHr8ch6bOgzAWEVkyM5HB7c3sRV2OSCEVEdpzCJMygL2p8GpGLuua5J8Ru87AcvXHZawZyr7uAcUkTTgcjhds6dFrYzpcx6MBlN9LzG7aOIjlDh+OjxyoZF8vadYPxWNxpr+VAetZ9p+WcV1xStRZFFll9iEhY2y9zB1cqCt/rREG/70sZ5d+Z/E7VyqE1fYQvISzt8hzqeg2tc9uD4izGYKuPs6xVEVNl6Zppu2cR9nRojZFVlOSYaf2QqP7mBq5UlaiTREGR2qGMtbzcz14sNXoA2qlcBxH2d5kWXyFa/nK3C8giY5bd7PAj2QZ8WyjNlw3o8GsCp71jIqpxjupBsfq2VgwMe3745P7YfH3xSv2zOPvjlfth8ffFK/bD4wvOjZTNJFIFo09VsKGotW8s+OMnEjS7GDO5hseNPulx7m37w+0TTHF4y7kG4vEGrr60aDghGJvbPqa2zZyTgjIkrS/GJDlcNjxcJpJQb796faNphi4F3IN5eINTW1rO7ghGNua6eR7drrGqRo7HTGiyGvOSRNc8MCwoam1I01gFhSfY3Gv2guEw7Gk/5QXH2Oxr9oLj7H41+0Fx9j8b/aC4gUlVWEUsADBE/wDNX//EAD4RAAECAwMICAMIAgIDAAAAAAECEQADITFBURIgYXGBkaGxBBATIlBiwdEyQlIwYHKCosLh8BTxI7JwgJL/2gAIAQIBDT8A/wDQjSY0qT7xoUD6+NaTU6hadkC80B2UMaXJ5xqPvGhxzMYguPWDcvu8Swg2EFwdogYmp0AXnVH1KoN1DGAD83j8I9o1EHnGKajdUwoMQCyhstEWmWpan/KQQISWKVFTjeY0KUPWB5iofqeLzYptjDhB+RdC+jHZ4tMDS0Xk4nQIJoPlSLgBZTOlEGYrHyg4mAnJlSwalsdGJgmiX7qRgBZnA0KSRyt2wWAmi38w9YKXRNS1dBa0QmzBQ+pJvHWLCCxG0RQJmm0YZWjTCg4IvB8TQkk6hGUUoFwSKBtductQSkYk2RLl5cxWKmc+wglkD6U3D7FZ7yTXI8yfaCjKlTBjgThcREssQeBGg5hBMok1pan28TmsgbbeGf0YZWjKu3RMOUtsBYOf2c5TB/kUfQxJS5b5kerCuYOkIGwmsHxJU19wOfOWTsDNCFZCdSftOjjJL/MiwHdSJ/fl6HtG99nWeko5ww8S73rnNEropUdxMKWo7yY0AxiUn7A3CDfk0hRyV0oxo51R0dT6WNvWmaFH8viYmFO8E5ylgbzE3o4QCbA6WMAVeiAdUJFgZ+Dwad4MDBDoWiwnS1oMS1EEeo0ZsxQA99kAOuatmBvZ7AITfKlkp30h2+DHbCpDh8CHHXJlnerxOVMCvT1zu2Q++JcsEAXlqbINiEFqaTfCpo7Q35JNYUmigQ7YvBRly3L5BHxIfaN0TkEK1pbNkyqayW5QEiZMSC2Wyvh3QlFZZSMtxaGvMTukICU6AQHIxNsFCUch1zZjDUP9+JmUSNlYFM0TEnjH+MD+mG6iGyQotCpuSo4hVsS56dxBfNXJcbCImSCNoV/HV2j7oXNA3dRoNZshMsE6Sann4mpJG8NEucobHLcM3LHOP8Uf9YbrTNSeMJQlQ/u3NWrIP5qDjHR1g0+k09X6so8oE7qlHtFYd2oG1oHinSJYUNY7p981c5A3mDKSneGhuszE847ADlmpII1ioiZJMtYwUBk12h4lLI2XHaI7YDeQIRMSePVPLJ/AP5fxWStj+E/yc09JRzhU1I3HMVOS+q8xNmJRwJ9M7pFUvcse4hsma3BR4CBOQf1COzQeUTVAHQm87oloCRs8VMska019ISWOsZiOkIJ1PWEZK9gqeGZIRkp0qVfsbjEoFatZs9c5CgUnSC8TJZRMGCwGff3hCekoA0pKgQRsgoSnlChky3wvUOXixhSstOpVTuJbN7Pspo0s3ENAUSg3KSTQjl1EsNsCV2kw6SHMTFltAegz+k00Bdx22RIfK8w+XcYnzMqY3yy02ngWiUgJA1f1/F5RyVHymzjmzWExOHmGkQUvKmptSTzGIMCxaAVAjGlm2EK7RYOCbo6SrJ/IPi9PsEkEEXEWGJICVjFrFDQb9MTmSjySwB3Rtc7fGJiCNRuOwxJWUn0O0McxBHaKx8o0mJaWAEYGsEM6UgHeBCUsk5RDPgxEJ+JBqUjEYgZ8xQAGuMmtWSHua9tLwCzgg12eMlkzW4K5DrBBmLuSn3whA2k3k6T1y0uSeQ0mEH/jSkswuJxOuGKFm5TUfbCJqgNAegzpUokaCaQtBWvJLE1YBxVoNoJcHWC8YkEesG8JOSNZdhF0tAAQnXRydviy0kEHAwoulQD5IwVqxglipjkpGJMEOtd6lX7OrzKA5xgkU32QkumWDxViYB78wg5KRrxwEITU3k3mO2PPOTLA2uISGCqggYRhlUgXqc+rR5QBy8YwIeNAA5dZ+ZJL7i44Rs9oFxNNtIAoEhurtlc84zgn9IP3F7ZXPOmzVHcW9PuL2x55rRkE/wD0SfX7i9o+apQG8tCZKB+kfcVQSc1U5NNReAAPuLOl5L6U+ub0ZOUTpNANf3GR35ZwULtsILEHEdZNVEMlOkmFd6Yv6lewsH3H+tNFbxbGDDm8C9ZJG6ogXJAHL7ni0mggXSw42mMSv0aPxfxBvHeA5RoNRrGYPlR3lboxUpuDRr/iLyk5XBhH0mihs61pyhkpelmOiFWZQY7vGpR77Gq1YahC6plihIxUfTjGkOY/CIajfC+lNIllwR8K03HSDBDLGChbshIck2AQCUlQ+Jd1GuwxhVWtWp8bGeBeupj8Ig3oLcISXExLhSfxAWa3hVJcw3nBWnA9XY/uVFefjIBhfSmL4ZUBIA3ZkuZkuBUhX+oLKDi/+mJgypjWhNw2wktLSbCRarZdmqDEGwgxNU6PIrD2iR3VYkXGOx/cqK8/GSITNy06RbCUgLQSxBGGOZgQ4hqlIA5QvpHZp/CCw4RKlpTuFu3OlJ7RJwyaneA0dJlkHWkONsdj+5UV5+NIHdWOSsRygGi5ZP8AuBdMSVf9o+pJY7maD9Qpwg3A13QEK5QrpL889UlY3pMDpBTxaOx/cqK8/HPMkGD9BKOAaLkrDjfUw/dmIJyT/cDEuWWVZlpa3WL4R0ljvIz0yVnckwZxVuLx2P7lRXn4zKS4BspC0KLgl3AcW5qUFSTgRCyUnSDCpgmobSXbZCpYCtCgO8N+d0juJGIPxcHjo8tgdKgzbo7H9yorz8ZmSlDaQWiRNZQ0Ox4QtIIIzFoKUi8k4RKBUYkAmlqk3jTExVfIrH3hQcEVBGYgOSfTTGVkSkY+ZuOgQrvLPmPtZHY/uVFefjR+NH1aRph+9KmAhtIeo2UjRURqMXPQQCyZaPgS95PqTE1is/T5Rqv6lVVLuUcRgTANZUwFvyk13Fo0VHrGDGLiqg23wHPZywclIFat6wrulRHel6QDxvhQoR/bY7H1VCCe8TbxjWfeNZ941n3jWfeEIynB/nxbEiu8V4xgk04vGDj2jzE+jQPpAB32nbmaQH32xgk04vGse0eY+zQzUAfabTthnKRRK/YwHT2SvmViAbAMRbCQwJuGEao1RqjVGqFBiQLv/Nf/2Q==;" vertex="1" parent="QE7oke2RVFD652N8FTtL-22">
          <mxGeometry x="67.59967346938777" y="35.12290962962971" width="225.32740740740743" height="127.6831837037037" as="geometry" />
        </mxCell>
        <mxCell id="QE7oke2RVFD652N8FTtL-24" value="&lt;font style=&quot;font-size: 24px;&quot;&gt;&lt;b&gt;Elastic search is running on his own instance accessible through a gateway&lt;/b&gt;&lt;/font&gt;" style="text;strokeColor=none;align=center;fillColor=none;html=1;verticalAlign=middle;whiteSpace=wrap;rounded=0;" vertex="1" parent="1">
          <mxGeometry x="530" y="780" width="330" height="100" as="geometry" />
        </mxCell>
        <mxCell id="QE7oke2RVFD652N8FTtL-33" value="" style="group;rotation=-105;" vertex="1" connectable="0" parent="1">
          <mxGeometry x="780" y="1140" width="260.42" height="250" as="geometry" />
        </mxCell>
        <mxCell id="QE7oke2RVFD652N8FTtL-27" value="" style="html=1;shadow=0;dashed=0;align=center;verticalAlign=middle;shape=mxgraph.arrows2.arrow;dy=0.6;dx=40;notch=0;rotation=-150;" vertex="1" parent="QE7oke2RVFD652N8FTtL-33">
          <mxGeometry x="-16" y="89" width="292.46518793107157" height="72.79040394567404" as="geometry" />
        </mxCell>
        <mxCell id="QE7oke2RVFD652N8FTtL-32" value="&lt;font style=&quot;font-size: 24px;&quot;&gt;&lt;b&gt;Response&lt;/b&gt;&lt;/font&gt;" style="text;strokeColor=none;align=center;fillColor=none;html=1;verticalAlign=middle;whiteSpace=wrap;rounded=0;rotation=30;" vertex="1" parent="QE7oke2RVFD652N8FTtL-33">
          <mxGeometry x="87" y="119" width="115.8487105526967" height="31.19588740528887" as="geometry" />
        </mxCell>
        <mxCell id="QE7oke2RVFD652N8FTtL-35" value="" style="group" vertex="1" connectable="0" parent="1">
          <mxGeometry x="1500.0041776686232" y="1151.8641776686231" width="275.7716446627537" height="275.7716446627536" as="geometry" />
        </mxCell>
        <mxCell id="QE7oke2RVFD652N8FTtL-29" value="" style="html=1;shadow=0;dashed=0;align=center;verticalAlign=middle;shape=mxgraph.arrows2.arrow;dy=0.6;dx=40;flipH=1;notch=0;rotation=-45;" vertex="1" parent="QE7oke2RVFD652N8FTtL-35">
          <mxGeometry x="-22.114177668623142" y="102.88582233137674" width="320" height="70" as="geometry" />
        </mxCell>
        <mxCell id="QE7oke2RVFD652N8FTtL-31" value="&lt;font style=&quot;font-size: 24px;&quot;&gt;&lt;b&gt;Request&lt;/b&gt;&lt;/font&gt;" style="text;strokeColor=none;align=center;fillColor=none;html=1;verticalAlign=middle;whiteSpace=wrap;rounded=0;rotation=-46;" vertex="1" parent="QE7oke2RVFD652N8FTtL-35">
          <mxGeometry x="86.82582233137691" y="120.63582233137674" width="106.95" height="30" as="geometry" />
        </mxCell>
        <mxCell id="QE7oke2RVFD652N8FTtL-36" value="" style="group" vertex="1" connectable="0" parent="1">
          <mxGeometry x="880" y="920" width="680" height="80" as="geometry" />
        </mxCell>
        <mxCell id="QE7oke2RVFD652N8FTtL-25" value="" style="html=1;shadow=0;dashed=0;align=center;verticalAlign=middle;shape=mxgraph.arrows2.arrow;dy=0.6;dx=40;notch=0;rotation=-180;" vertex="1" parent="QE7oke2RVFD652N8FTtL-36">
          <mxGeometry y="5" width="680" height="70" as="geometry" />
        </mxCell>
        <mxCell id="QE7oke2RVFD652N8FTtL-26" value="&lt;font style=&quot;font-size: 24px;&quot;&gt;&lt;b&gt;Connect elastic search to the nodeJs server&lt;/b&gt;&lt;/font&gt;" style="text;strokeColor=none;align=center;fillColor=none;html=1;verticalAlign=middle;whiteSpace=wrap;rounded=0;" vertex="1" parent="QE7oke2RVFD652N8FTtL-36">
          <mxGeometry x="110" width="520" height="80" as="geometry" />
        </mxCell>
        <mxCell id="QE7oke2RVFD652N8FTtL-38" value="" style="group;rotation=-180;" vertex="1" connectable="0" parent="1">
          <mxGeometry x="880" y="1010" width="740" height="80" as="geometry" />
        </mxCell>
        <mxCell id="QE7oke2RVFD652N8FTtL-39" value="" style="html=1;shadow=0;dashed=0;align=center;verticalAlign=middle;shape=mxgraph.arrows2.arrow;dy=0.6;dx=40;notch=0;rotation=-360;" vertex="1" parent="QE7oke2RVFD652N8FTtL-38">
          <mxGeometry y="5" width="680" height="70" as="geometry" />
        </mxCell>
        <mxCell id="QE7oke2RVFD652N8FTtL-40" value="&lt;font style=&quot;font-size: 24px;&quot;&gt;&lt;b&gt;Response after compute from elastic search&lt;/b&gt;&lt;/font&gt;" style="text;strokeColor=none;align=center;fillColor=none;html=1;verticalAlign=middle;whiteSpace=wrap;rounded=0;rotation=0;" vertex="1" parent="QE7oke2RVFD652N8FTtL-38">
          <mxGeometry x="-20" width="690" height="80" as="geometry" />
        </mxCell>
        <mxCell id="QE7oke2RVFD652N8FTtL-41" value="&lt;font style=&quot;font-size: 24px;&quot;&gt;&lt;b&gt;Response&lt;/b&gt;&lt;/font&gt;" style="html=1;shadow=0;dashed=0;align=center;verticalAlign=middle;shape=mxgraph.arrows2.arrow;dy=0.6;dx=40;notch=0;" vertex="1" parent="1">
          <mxGeometry x="1980" y="1010" width="560" height="70" as="geometry" />
        </mxCell>
        <mxCell id="QE7oke2RVFD652N8FTtL-42" value="" style="shape=image;verticalLabelPosition=bottom;labelBackgroundColor=default;verticalAlign=top;aspect=fixed;imageAspect=0;image=data:image/jpeg,/9j/4AAQSkZJRgABAQEBLAEsAAD/4QBWRXhpZgAATU0AKgAAAAgABAEaAAUAAAABAAAAPgEbAAUAAAABAAAARgEoAAMAAAABAAIAAAITAAMAAAABAAEAAAAAAAAAAAEsAAAAAQAAASwAAAAB/+0ALFBob3Rvc2hvcCAzLjAAOEJJTQQEAAAAAAAPHAFaAAMbJUccAQAAAgAEAP/hDW5odHRwOi8vbnMuYWRvYmUuY29tL3hhcC8xLjAvADw/eHBhY2tldCBiZWdpbj0n77u/JyBpZD0nVzVNME1wQ2VoaUh6cmVTek5UY3prYzlkJz8+Cjx4OnhtcG1ldGEgeG1sbnM6eD0nYWRvYmU6bnM6bWV0YS8nIHg6eG1wdGs9J0ltYWdlOjpFeGlmVG9vbCAxMS44OCc+CjxyZGY6UkRGIHhtbG5zOnJkZj0naHR0cDovL3d3dy53My5vcmcvMTk5OS8wMi8yMi1yZGYtc3ludGF4LW5zIyc+CgogPHJkZjpEZXNjcmlwdGlvbiByZGY6YWJvdXQ9JycKICB4bWxuczp0aWZmPSdodHRwOi8vbnMuYWRvYmUuY29tL3RpZmYvMS4wLyc+CiAgPHRpZmY6UmVzb2x1dGlvblVuaXQ+MjwvdGlmZjpSZXNvbHV0aW9uVW5pdD4KICA8dGlmZjpYUmVzb2x1dGlvbj4zMDAvMTwvdGlmZjpYUmVzb2x1dGlvbj4KICA8dGlmZjpZUmVzb2x1dGlvbj4zMDAvMTwvdGlmZjpZUmVzb2x1dGlvbj4KIDwvcmRmOkRlc2NyaXB0aW9uPgoKIDxyZGY6RGVzY3JpcHRpb24gcmRmOmFib3V0PScnCiAgeG1sbnM6eG1wPSdodHRwOi8vbnMuYWRvYmUuY29tL3hhcC8xLjAvJz4KICA8eG1wOkNyZWF0b3JUb29sPkFkb2JlIFN0b2NrIFBsYXRmb3JtPC94bXA6Q3JlYXRvclRvb2w+CiA8L3JkZjpEZXNjcmlwdGlvbj4KCiA8cmRmOkRlc2NyaXB0aW9uIHJkZjphYm91dD0nJwogIHhtbG5zOnhtcE1NPSdodHRwOi8vbnMuYWRvYmUuY29tL3hhcC8xLjAvbW0vJz4KICA8eG1wTU06RG9jdW1lbnRJRD54bXAuaWlkOjVkYzhhZmYwLTdhMGUtNDlmZS05ZmE1LWFmMmI4MWQzMWEyYjwveG1wTU06RG9jdW1lbnRJRD4KICA8eG1wTU06SW5zdGFuY2VJRD5hZG9iZTpkb2NpZDpzdG9jazo0ZTkyMmRjNC03OGQ2LTQyMzItODkzMC0yNGI3YzUxMWJkOTU8L3htcE1NOkluc3RhbmNlSUQ+CiAgPHhtcE1NOk9yaWdpbmFsRG9jdW1lbnRJRD5hZG9iZTpkb2NpZDpzdG9jazo1NTM3OTYwOTA8L3htcE1NOk9yaWdpbmFsRG9jdW1lbnRJRD4KIDwvcmRmOkRlc2NyaXB0aW9uPgo8L3JkZjpSREY+CjwveDp4bXBtZXRhPgogICAgICAgICAgICAgICAgICAgICAgICAgICAgICAgICAgICAgICAgICAgICAgICAgICAgICAgICAgICAgICAgICAgICAgICAgICAgICAgICAgICAgICAgICAgICAgICAgICAgCiAgICAgICAgICAgICAgICAgICAgICAgICAgICAgICAgICAgICAgICAgICAgICAgICAgICAgICAgICAgICAgICAgICAgICAgICAgICAgICAgICAgICAgICAgICAgICAgICAgICAKICAgICAgICAgICAgICAgICAgICAgICAgICAgICAgICAgICAgICAgICAgICAgICAgICAgICAgICAgICAgICAgICAgICAgICAgICAgICAgICAgICAgICAgICAgICAgICAgICAgIAogICAgICAgICAgICAgICAgICAgICAgICAgICAgICAgICAgICAgICAgICAgICAgICAgICAgICAgICAgICAgICAgICAgICAgICAgICAgICAgICAgICAgICAgICAgICAgICAgICAgCiAgICAgICAgICAgICAgICAgICAgICAgICAgICAgICAgICAgICAgICAgICAgICAgICAgICAgICAgICAgICAgICAgICAgICAgICAgICAgICAgICAgICAgICAgICAgICAgICAgICAKICAgICAgICAgICAgICAgICAgICAgICAgICAgICAgICAgICAgICAgICAgICAgICAgICAgICAgICAgICAgICAgICAgICAgICAgICAgICAgICAgICAgICAgICAgICAgICAgICAgIAogICAgICAgICAgICAgICAgICAgICAgICAgICAgICAgICAgICAgICAgICAgICAgICAgICAgICAgICAgICAgICAgICAgICAgICAgICAgICAgICAgICAgICAgICAgICAgICAgICAgCiAgICAgICAgICAgICAgICAgICAgICAgICAgICAgICAgICAgICAgICAgICAgICAgICAgICAgICAgICAgICAgICAgICAgICAgICAgICAgICAgICAgICAgICAgICAgICAgICAgICAKICAgICAgICAgICAgICAgICAgICAgICAgICAgICAgICAgICAgICAgICAgICAgICAgICAgICAgICAgICAgICAgICAgICAgICAgICAgICAgICAgICAgICAgICAgICAgICAgICAgIAogICAgICAgICAgICAgICAgICAgICAgICAgICAgICAgICAgICAgICAgICAgICAgICAgICAgICAgICAgICAgICAgICAgICAgICAgICAgICAgICAgICAgICAgICAgICAgICAgICAgCiAgICAgICAgICAgICAgICAgICAgICAgICAgICAgICAgICAgICAgICAgICAgICAgICAgICAgICAgICAgICAgICAgICAgICAgICAgICAgICAgICAgICAgICAgICAgICAgICAgICAKICAgICAgICAgICAgICAgICAgICAgICAgICAgICAgICAgICAgICAgICAgICAgICAgICAgICAgICAgICAgICAgICAgICAgICAgICAgICAgICAgICAgICAgICAgICAgICAgICAgIAogICAgICAgICAgICAgICAgICAgICAgICAgICAgICAgICAgICAgICAgICAgICAgICAgICAgICAgICAgICAgICAgICAgICAgICAgICAgICAgICAgICAgICAgICAgICAgICAgICAgCiAgICAgICAgICAgICAgICAgICAgICAgICAgICAgICAgICAgICAgICAgICAgICAgICAgICAgICAgICAgICAgICAgICAgICAgICAgICAgICAgICAgICAgICAgICAgICAgICAgICAKICAgICAgICAgICAgICAgICAgICAgICAgICAgICAgICAgICAgICAgICAgICAgICAgICAgICAgICAgICAgICAgICAgICAgICAgICAgICAgICAgICAgICAgICAgICAgICAgICAgIAogICAgICAgICAgICAgICAgICAgICAgICAgICAgICAgICAgICAgICAgICAgICAgICAgICAgICAgICAgICAgICAgICAgICAgICAgICAgICAgICAgICAgICAgICAgICAgICAgICAgCiAgICAgICAgICAgICAgICAgICAgICAgICAgICAgICAgICAgICAgICAgICAgICAgICAgICAgICAgICAgICAgICAgICAgICAgICAgICAgICAgICAgICAgICAgICAgICAgICAgICAKICAgICAgICAgICAgICAgICAgICAgICAgICAgICAgICAgICAgICAgICAgICAgICAgICAgICAgICAgICAgICAgICAgICAgICAgICAgICAgICAgICAgICAgICAgICAgICAgICAgIAogICAgICAgICAgICAgICAgICAgICAgICAgICAgICAgICAgICAgICAgICAgICAgICAgICAgICAgICAgICAgICAgICAgICAgICAgICAgICAgICAgICAgICAgICAgICAgICAgICAgCiAgICAgICAgICAgICAgICAgICAgICAgICAgICAgICAgICAgICAgICAgICAgICAgICAgICAgICAgICAgICAgICAgICAgICAgICAgICAgICAgICAgICAgICAgICAgICAgICAgICAKICAgICAgICAgICAgICAgICAgICAgICAgICAgICAgICAgICAgICAgICAgICAgICAgICAgICAgICAgICAgICAgICAgICAgICAgICAgICAgICAgICAgICAgICAgICAgICAgICAgIAogICAgICAgICAgICAgICAgICAgICAgICAgICAgICAgICAgICAgICAgICAgICAgICAgICAgICAgICAgICAgICAgICAgICAgICAgICAgICAgICAgICAgICAgICAgICAgICAgICAgCiAgICAgICAgICAgICAgICAgICAgICAgICAgICAgICAgICAgICAgICAgICAgICAgICAgICAgICAgICAgICAgICAgICAgICAgICAgICAgICAgICAgICAgICAgICAgICAgICAgICAKICAgICAgICAgICAgICAgICAgICAgICAgICAgICAgICAgICAgICAgICAgICAgICAgICAgICAgICAgICAgICAgICAgICAgICAgICAgICAgICAgICAgICAgICAgICAgICAgICAgIAo8P3hwYWNrZXQgZW5kPSd3Jz8+/9sAQwAFAwQEBAMFBAQEBQUFBgcMCAcHBwcPCwsJDBEPEhIRDxERExYcFxMUGhURERghGBodHR8fHxMXIiQiHiQcHh8e/8AACwgBaAFoAQERAP/EAB0AAQACAwEBAQEAAAAAAAAAAAAHCAUGCQQCAwH/xABKEAABAwMBBQQECgcFCAMBAAABAAIDBAUGEQcIEiExE0FRYSJxgaEUFSMyQlJicpGSGDOCorHBwhdjc7LSFiRDU1Z1g6NUk5XR/9oACAEBAAA/ALloiIiIiIiIiIiIiIiIiIiIiIiIiIiIiIiIiIiIiIiIiIiIiIiIiIiIiIiIiIiIiIiIiIiIiIiahYS75fito4vjXJLPQlvUT1sbD+BOq1Su257KKMlsua255HdAHzf5GlYao3ktlERIZe6ybT/l26Y/xaF5v0m9luunw26+v4tkXppt5LZRKdH3ush/xLdMP4NKzNBtz2UVhDYs1tzCe6cPh/ztC2uz5fit34firJLPXF3QQVsbz+AOqzeoREREREREREREREREREREREWIyfJsfxmhNbkF5obZABqHVMwZxfdB5uPkNVC2Zb0+GW0vhxy23C/St1AkI+DQHz4nekfyqIMo3m9pF1LmWx1tsUJ5AU0Hayaffk15+poUZZBm2YX9xN6yi8V4P0Jax/B+UEN9y1/hbxcXC3U9+nNf3U+KIianxX84W68XCNfHTmtgx/Nswx9wNlyi8UIH0Iqx/B+Ukt9yk3Ft5vaRai1lzdbb7CORFTB2Umn349OfraVL+Gb0+GXIshyO23CwynQGQD4TAPPib6Q9rVNOMZNj+TUIrcfvNDc4NNS6mmD+H7wHNp8josuiIiIiIiIiIiIiIiIiItJ2kbU8LwGE/H12Z8MLeKOhpx2lQ/8AYHzR5u0Hmqy7Rd57Lr2ZaTFaaLHaI6gTHSaqcPvH0WewE+ag663G4XavfX3Suqa+rkOr56mV0jz7XEleVem2UFdc6oUttoqmuqCdBFTQulefY0EqRcc2CbU701r2Yy+3xH6dwmZBp+ySXe5SDZd0vJJuF14yu1UYPVtNTyTke13AFttu3Ssaj0+MMsvNT49jDFEPeHLOU+6zs1jHylRkEx7y6uaP8rAv3/Rg2X6adjef/wBF3/8AF+E+6zs1kB7OoyCE9xbXNP8AmYVg7julY1Jr8X5Zeabw7aGKUe4NWpXrdLySHidZ8rtVYB0bVU8kBPtbxhR9kewTanZWue/GX3CIfTt8zJ9f2Ro73KOblQV1sqjS3KiqaGoadDFUwuif+DgCvOvVabjcLTXsr7XXVNDVsOrZ6aV0bx7WkFTjs53nsushjpMqposiohoDMNIapo+8PRf7QD5qzWzbanhefQj4huzPhgbrJQ1A7OoZ+wfnDzbqPNbsiIiIiIiIiIiIiIiLD5flFhxOzS3fIbnT2+jj5ccrubj9VrRzc7yAJVT9rm8zfr46a2YRHLZLcdWmteB8LlHi3qIh6tXeYVf6iaaoqJKiolkmmldxSSSOLnPPiSeZPrXyxrnvbGxrnveeFrWjUuPgB3lS5s93edoWVNjqaujZj9A/n21wBEjh9mIel+bhU/YRuybP7I1k17+F5HVDr8Kd2cGvlGz+ouUw2Sy2iyUgpLPbKO3U4HKOmgbE38GgL3oiIiIi8F6stovdIaS8WyjuNORzjqYGyN/BwKh7N92TAL2181k+F45VO6Glf2kGvnG/+ktUA7Qd3naFiokqaSjZkFAzn21vBMjR9qI+l+XiURva5j3Rva5j2Hhc1w0LT4EdxX1TzTU9RHUU8skM0Tg6OSNxa5hHeCOYPqVgNkW8zfrG6G2ZvHLfLcNGitZp8LiHi7oJR69HeZVsMQyew5ZZo7vj1zp7hRycuOJ3Np+q5p5td5EArMIiIiIiIiIiIiIiiXbjtwsGzyKS20gju2ROb6NGx+jINejpnD5o7+EekfIc1S3O8yyPNr2675JcpKyfmImfNigb9WNnRo957yVgO7UqYtku77l+aNiuNza7H7M/RwnqYyZ5m/3cR0On2naDw1VrtmmyXCcCia+y2pkteBo+4VWktQ71OI9EeTQAt7RERERERERFom0rZLhOexPferUyKvI0ZcKXSKob63AekPJwIVUdrW77l+FtmuNsa7ILMzVxnpoyJ4W/3kQ1On2m6jx0UOjmNQs/gmZZHhN7bd8buUlHPyEjPnRTt+rIzo4e8dxCulsN24WDaHEy21YjtORNb6VG9/oT6dXQuPzh38J9IeY5qWkRERERERERERFWveJ3hGWp9TimB1LJbgNY6y6M0cynPQsi7nP8XdG92p6VLnmlnnknnlkmmkcXySSOLnPceZJJ5knxKzGFYpf8xvkdmx23S11W/m4N5Mib9d7jya3zPs1KuNsW3fccwtsN1vohvt/bo4SSM1p6Z390w9SPru5+AapqHJERERERERERERQrto3fcczQT3WxCGx392rjJGzSnqXf3rB0J+u3n4hypzmmKX/Dr5JZsit0tDVs5tDubJW/XY4cnN8x7dCsPBNLTzxzwSyRTRuD45GOLXMcOYII5gjxCtpu67wjbq+mxTPKlkVwOkdHdH6NZUHoGS9zX+Duju/Q9bKIiIiIiIiIiIqq7z23d0j6rCcJrS1jSYrlcoXcyejoYnD8HPHqHeVV4choOQUhbFtlF/2lXgsowaK0QPArLi9mrWfYYPpyad3QdT3a3k2d4PjuCWBlnx2ibBFydNK70pZ3/Xkd9I+4dAAFsqIiIiIiIiIiIiIta2iYPjud2B9nyKibPFzdDK30ZYH/AF43fRPuPQghUb20bKL/ALNbxwVgNbaJ3kUdxYzRr/sPH0JNO7oeo156R73aHmFaHdg27ujfS4Tm1YXMOkVtuUzuYPRsMrj+DXn1HuKtUiIiIiIiIiKte9htndamT4HilXw3CRvDdKyJ3OnaR+paR0eR1P0QdOp5VIHIaDopT3f9j9y2k3g1NSZaLHKSQCrqwNHSu69lF9rxd0aD46BXoxyy2vHrLTWezUUNFQUrAyGGIaBo/mT1JPMnmVkEREREXnuFbR2+kkq6+rgpKaMavmmkDGNHm48goly3eQ2Z2N74aW4VV8nbqOG3Q8TNf8Rxa38CVHN23uZC4ttOEgN7nVdw5n2Mb/NYf9LTKuLX/ZSycPh8Il1/FZi0b3MgcG3bCQW97qS4cx+y9n81I2I7yGzO+PZDVXCqsc7tBw3GHhZr/iNLm/iQpat9bR3CkjrKCrgq6aQaslhkD2OHk4civQiIiIix+RWW15DZamz3qihraCqZwTQyjUOH8iOoI5g8wqL7f9j9y2bXj4TTGWtxyrk0pKsjV0TuvZS+DvB3Rw89Qos7tD0Vt907bO66sgwPK6viuEbeG11krudQ0D9S4nq8DofpAadRzsoiIiIiIiIol3ltqsezzFRR22RjsiuTHNo2nn2DOjp3DwHRo73eQKojPLLPPJPPK+WWRxfJI93E57idSST1JJ11W/7CtmFy2lZV8DZ2lPaKQtfcawD5jT0Y3u43c9PAak9Od+ccstsx6x0lls9JHR0FJGI4YYxyaB/EnqSeZJ1KyCIiIiKCNte8XZMSlnsuLRw3u9Rkskk4v91pneDnDm9w+q3p3kdFU3Oc3ynNa81mTXmpryDqyFx4YYvJkY9Fv4a+a11ERFsWDZvlOFV4rMZvNTQEnV8LTxQy/fjPou/DXzVstim8XZMtlgsuUxw2S9PIZHJxf7rUu8GuPNjj9V3XuJ6KdwiIiIix+R2W2ZDZKuy3ikjrKCrjMc0Mg5OB/gR1BHMEahUG26bMLls1yo0cnaVNoqy59urCPntHVju7jby18RoR15aBBLLBPHPBK+KWNwfHIx3C5jgdQQR0IPPVXu3aNqse0PFTR3KRjcitrGtrGjl27OjZ2jwPRw7neRClpERERERFh80yO2Yni1wyG7zdnR0URkfp8556NY3xc46ADxK517QssumbZfX5Jd3/AC9U/wBCMHVsEY+ZG3yaPxOp71+eDYxdcxymhx2zRdpV1b+EOI9GJg5ukd4NaOZ/DqQuhezTDLRgeI0mO2dnyUI4pZnDR9RKfnSO8zp7BoO5bKiIiIiqXvNbeZq2oq8MwitMdGwmK4XKF2jpj0dFE4dGDoXDr0HLma0DkNB0RERERO7Q8wrL7sm3iaiqKXDM3rTLRvLYrfcpnauhPRsUrj1YegcenQ8uYtoiIiIi1raXhlozvEavHbwz5KYcUUzRq+CUa8MjfMe8EjvXPPOcYuuHZTXY7eYuzq6R/CXAejKw82yN8WuHMfh1BX67PMsumE5fQ5JaH/L0r/TjJ0bPGfnxu8nD8Doe5dFMKyO2ZZi1BkNom7WjrYhIzX5zT0cx3g5p1BHiFmERERERFTffL2im+ZQ3CLZPrbrQ/irS08parT5p8owdPvE+Cr55q8O6jsxGF4h8e3Wn4b/eI2vkDh6VNB1ZF5E8nO89B9FTUiIiIir7vfbU5MbswwuxVJju1yi4quaN2jqamOo0GnRz+YHg0E94VNhyGg5BERERERO7Q8wrk7oG1OTJLM7C77UmS7WyLipJpHauqaYaDQ69Xs5A+LSD3FWCRERERQrvXbMRmmIG+2qn4r/Z43PjDR6VTBzL4vMj5zfPUfSVHhz5hWD3M9orrHlD8Iuc+luu7+OiLjyiqtPmjwEgGn3gPFXIRERERFpO2/N4sB2cXK/AtNZw9hQsd9OofqGewc3HyaVztqJpqiokqKiV8s0ry+SRx1c9xJJcfMkk+1S/uo7Oxmm0BtzuMHaWayFtROHD0ZptdYo/MajiI8Ggd6vSEREREWOya8UWP49cL3cZOzpKGnfUTH7LQSQPM9B61zczPIa/K8quWRXN5dVV87pXDXUMHRrB5NaA0epYhERERERFl8LyGvxTKrdkVseW1VBO2Vo10Dx0cw+TmktPrXSTGbxRX/HqC926TtKSup2VEJ+y4agHzHRZBERERFRbet2djCtoDrlboOzs17LqiANHowza6yx+Q1PEPJ2ncogp5pqeeOop5XxTRPD45GHRzHA6hw8wQCuiWw/Nos+2cW6/EtFZw9hXMb9CoZoH+w8nDycFuyIiIiKl++lmhvefwYrSS8VFY2fLAHk6pkGrvyt4R6y5QKxj3vayNjnvcQ1rWjUuJ5ADzK6H7BsHjwLZtbrM9jRXyN+E3B4+lO8AuHqaNGjyat7RERERQJvt5I617MqSwwSFst6rAyQA9YYvTcPa7swqXoiIiIiIiK6G5Hkjrpsyq7DPIXS2WsLIwT0hl9No9ju0CntERERFom3jB4892bXGzMY018bfhNvefozsBLR6nDVp8nLng9j2PcyRjmPaS1zXDQtI5EHzCnrcszQ2TP58Vq5dKK+M+RBPJtTGCW/mbxD1hqugiIiIsRmd9pcZxO6ZBWkCC30slQ4E6cXCCQ31k6D2rmrdrhV3W61d0r5DJV1k7553Hve9xcfeVKe6ZhwyrazS1dTF2lBZG/DptRydIDpE383pfsFXuCIiIiIqcb9VydPtFstrDyWUlrMpb4Olkdr7owq9oiIiIiIiKwm4pcnQbRL3ay8hlZaxKG+LopG6e6Qq46IiIiIqIb2WHDFdrNXVU0XBQXtvw6HQcmyE6St/N6X7YUW2i4VdputJdKCQx1dHOyeBw7nscHD3hdKsLvtLk2J2vIKIgwXCljqGgHXh4hqW+sHUexZdEREVf99/JTbdnVDjkMnDLeasGQA9YYfTd+LzGFTRXb3MMWFk2U/Hc0fDVX2oNRqevYs1ZGPc537SnBEREREVG985zjtvnB6NttKG+r01DCIiIiIiIimfcxc4bb4A3o621Id6vQV5ERERERQfvnYsL3spN7hj4qqxVDajUdexf6Eg97XfsqkiuXuP5Mbls6r8cmk4pbNVkxgnpDNq9v4PEg/BWARERFSDfOv5uu2F1sY/WGz0UdOADy7R/wAo/wBujmD2KG7XQz3O50ttpWl1RVzsp4gPrPcGj3ldNMctdPZLBQWekaG09DTR08YA09FjQ0fwXvRERERFS7fioDT7VrfWgejWWmPn5skkB9xaoFREREREREU9bjlAajatca3T0aO0P5+b5GAe4OV0UREREReDIrXT3uwXCz1bQ6nrqaSnkBGvovaWn+K5l3Ohntlzq7bVNLaiknfTyg/WY4tPvCmTcwv5tW2Ftse/SG8UUlOQTy7RnyjPbo149qu+iIiHouae0e8G/wC0HIL0XaisuM8jPucZDf3QFt+61ZRetuNgY9vFFROkrn8unZNJb++WK/o6IiIiIiKt+/Zj7qrE7HksTNTb6t1NMQOYZMORPlxMA/aVRERERERERFbvcTx91LiV9yWWPQ3CrbTQkjmWQjmR5cTyP2VZBERERETuVAt6Syiy7cb+xjeGKtdHXM5de1bq798PWobN7wbBtBx+9B2go7jBI/7nGA790ldLG9EREWEz65fFGDX268XCaO3TzA+bY3Ee9czma8A4jqdBr61ZDcPtfbZhkd4c3UUtBFTtOnQySFx90YVvERERERFru0rGKfMsEu+NVBDRXUzmRvP0JBzY72ODSub1yoqq3XGpt9fC6CrpZXQzxuHNj2khw/ELzoiIiIiIvRbaKruVxprdQQunq6qVsMEbRze9x0aPxK6Q7NMXp8NwS0Y1TkOFDTNZI8f8SQ83u9ri4+1bEiIiIiIqh7+Fr7HMMcvDW6CqoJadx06mOTiHukKre7XgdwnQ6HT1rpjgFx+N8GsV14uI1dup5ifN0bSfes2iIo53mas0ewnK5Wu0L6MQj/ySNZ/UufR6lW83DaLs8MyS4ac57kyLXxDIgf6yrHoiIiIiIqm752zJ9LcP7RbPTk01RwxXZjG/q5Pmsm9TuTXHxDT3lVmRERERERWZ3MNmT6q4HaLeKcimp+KK0se39ZJ8183qbza0+Jce4K2SIiIiIiKuG/jRdphmOXDT9Rcnxa+T4if4sCqGOq6C7stWazYTikrnallGYT/43uZ/SpGREUQb4Uxi2E3ZgP62ppWf+5p/kqJq7G5DCI9jc0mnOW71DtfU2Nv8lOaIiIiIiLz3KhpLlb6i319PHU0tRG6KaKRurXscNCCPAhUU3hdjtw2c3h1fb2S1WMVUn+7VHU0zj0hlPj9V30h5qJ0RERERSxu87HbhtGvDa+4MlpcYpZP95qOhqXDrDEfH6zvojzV67bRUltt8FBQU8dNS08bYoYo26NYxo0AA8AF6EREREREUGb7sIk2Nwyac4rvTuB9bZG/zVJ1ezc9mMuwm1MJ/VVFUz/3OP81L6IihffO1/sPq9P8A59Lr/wDYqOK7+5Xp/YnF/wByqv8AMFNiIiIiIiIvNdbfQ3W3T265UsNXR1DDHNDMwOY9p6gg9VUrbVu1XO1Sz3nZ+yS4286vfbHO1qIP8Mn9Y3yPpD7SrrUQzU88lPURSQzRO4ZI5GlrmHwIPMH1r4RERfdPDNUTx09PFJNNI4NjjjaXOefAAcyfUrFbFN2q53WWG87QGSW63jR7LY12lRP/AIhH6tvkPSP2VbW1W+htVugt1tpYaSjp2COGGFgaxjR0AA6L0oiIiIiIihPfT0/sTl/7lS/5iqQK8e5hr/YfS6//AD6rT/7FNCIiiDfChMuwm7OA17KppX/+5o/mqJq7G5DKJNjc0evOK71DdPW2N381OaIiIiIiIiLTtoOzHCs5jJyGyQTVPDoysi+SqGeqRvM+o6jyUD5bulyh75cTyppYSeGnucPMeXaR/wClRxdd3LavQud2VkpK9g+nS18Z19jy0+5Yj+w/avx8P+xVw18e1h0/HjWXtW7ltXrnN7WyUlAw/Tqq+MaexhcfcpHxHdLlMjJcsypoYCOKntkPM+XaSf6VPGz7ZjhWCxg49ZIIakt0fWS/K1D/AFyO5j1DQeS3FERERERERFBm+7KI9jcMevOW707QPU2R38lSdXs3PITFsJtTyP1tRVP/APc4fyUvoiKOd5mkNZsJyuJrdSyjEw/8cjX/ANK59HqVbzcNre0wzJLfr+ouTJdPJ8QH8WFWPRERERERERERNB4BEREREREREREVcN/Gt7PDMct+v6+5Pl08QyIj+Lwqhjqugu7LSGj2E4pE5uhfRmY/+R7n/wBSkZERYTPrb8b4NfbVw8Rq7dPCB5ujcB71zOZrwDi5HQa+tWQ3D7p2OYZHZ3O0FVQRVDR4mOQtPukCt4iIiIiIi+XvYxjnvcGtaNS4nQAetaTkm13Ztj73RXPMLW2VvWKCXt3jy4Y+IhaNct6PZrTOc2mjvlcR0MNEGNP53N/gsNJvZ4iHfJ4zf3DxJhH9a+f0tMU/6Wv354f9SfpaYp/0tfvzw/6k/S0xT/pa/fnh/wBSfpaYp/0tfvzw/wCpP0tMU/6Wv354f9S+ot7PES75TGb+0eIMJ/rWZtu9Hs1qXBtSy+UJPUzUXEB+Rzv4Lecb2u7Nsge2K2ZhanSu6RTy9g8+XDJwkrdo3skYHscHNcNQ4HUEetfSIiIiIiKoe/hdO2zDHLO12opaCWocPAyScI90ZVb3a8DuHmdDp610xwC2/FGDWK1cPCaO3U8JHm2NoPvWbREQ9FzT2kWc2DaDkFlI0FHcZ42fc4yW/ukLb91q9Cy7cbA97uGKtdJQv59e1aQ398MV/R0RERERFispySxYvaZLrkF0pbbRs6yTv01Pg0dXHyAJVbdo+9W7ilosDtALeYFwuLTz82RA+9x9igDMc9zHLpnPyLIrhXMJ17Ey8ELfVG3Ro/Ba00Bo0aAB4BERERERCARo4AjwPNbLh2e5jiErX47kVwoWA69iJeOF3rjdq0/gp/2b71buKOizyzgN5D4wtzTy83wk6+1p9isliuSWLKLSy64/dKW5Ub+kkD9dD4OHVp8iAVlURERETuVAt6S9C9bcb+9juKKidHQs59OyaA798uWobN7Ob/tBx+ygaisuMEb/ALnGC790FdLG9ERERUg3zrAbVthdc2MAhvFFHUAgcu0ZrG/26NYfaobtddPbLnS3KlcW1FJOyoiI+sxwcPeF00xy6U97sFBeKRwdT11NHURkHX0XtDh/Fe9ERERQxt129WXA+2stmbFd8jA0dDxfI0p8ZSO/7A5+JCptmmW5DmN5ddskuk9fUnXg4zoyIfVYwcmDyHt1WERERERERERFm8Ly3IcOvLbtjd0noKkacfAdWSj6r2Hk8eR9miuTsJ29WXPOyst5bFaMjI0bDxfI1R8Yie/7B5+BKmdEREReDIrpT2SwXC8Vbg2noaaSokJOnosaXH+C5l3OunudzqrlVOLqirnfUSk/We4uPvKmTcwsBuu2FtzewGGz0UlQSRy7R/ybPbo559iu+iIiKv8Avv4ybls6ocjhj4pbNVgSEDpDNox2vqeIyqaK7e5hlIveyn4kmk4qqxVBp9O/sX6vjPvc39lTgiIiKuG81t3dYn1OG4XVD41GsdfcIzr8E8Y4z/zPE/R+90qLI98j3SSPc97yXOc46lxPMkk9T5r5RERERERERERfUb3xvbJG5zHtIc1zToWkcwQR0Pmrdbsm3d18fT4bmlUPjU6R0FwkOnwvwjkP/M8D9L73Wx6IiIoP3zspFk2UmyQycNVfahtPoOvYs9OQ+5rf2lSRXL3H8ZNt2dV+RzR8Mt5qyIyR1hh1Y38XmQqwCIiIsRmdipcmxO6Y/WAGC4UslO4ka8PECA71g6H2Lmrd7fV2m61drr4zHV0c74J2nuexxafeFKe6ZmIxXazS0lTLwUF7b8Bm1PJshOsTvzej+2Ve4IiIoP3p9rhwiyDHbBUhuRXGMntGnnRwnUGT755hvtPcNaSuc5zi5zi5xJJJOpJPUk95X8REREREREREREX9Y5zHBzXFrgQQQdCCOhB7irtbrG1w5vZHY7f6kOyK3Rg9o486yEchJ98cg71g950nBERFRHeyzEZVtZqqWml7SgsjfgMOh5OkB1ld+b0f2AostFvq7tdaS10EZkq6ydkEDR3ve4NHvK6VYXYqXGcTteP0YAgt9LHTtIGnFwjQu9ZOp9qy6IiIipfvpYUbJn8GVUkWlFfGfLEDk2pjGjvzN4T6w5QKxz2Pa+N7mPaQ5rmnQtI5gjzC6H7Bs4jz3Ztbry97TXxt+DXBg+jOwAOPqcNHDyct7RFr+0TKrfheG3HJLmdYKOLibGDo6V55MjHm5xAXOjLL/c8oySvv94m7aurpTLKe4eDW+DWjQAeACxaIiIiIiIiIiIiIspiV/ueL5JQ5BZ5uxrqGYSxHud4td4tcNQR4FdGNneVW/NMNt2SWw6QVkQc6MnV0TxyfGfNrgQs+iLRNvGcR4Fs2uN5Y9or5G/Brew/SneCGn1NGrj5NXPB7nve58j3Pe4lznOOpcTzJPmVPW5ZhZvefz5VVxcVFY2fIkjk6pkBDfyt4nestV0EREREWk7b8Iiz7ZxcrCA0VnD29DI76FQzUs9h5tPk4rnbUQzU88lPURPimieWSRvGjmOBILT5gghS/uo7RBhe0BtsuM/Z2a9ltPOXH0YZtdIpPIanhJ8HA9yvSERVB33M4dcMlosGopj8FtrRVVoaeTp3j0Gn7rDr63+SrkiIiIiIiIiIiIiIisbuRZw635LW4NWTH4LcmmqogTybOwem0feYNfWzzVvkRUW3rdogzXaA62W6ftLNZC6ngLT6M02uksnmNRwg+DSe9RBTwzVFRHT08T5ZpXhkcbRq57idA0eZJAXRLYfhEWA7OLdYSGms4e3rpG/TqH83+wcmjyaFuyIiIiIqb75ezp1jyhub2yDS3Xd/DWBo5RVWnzj5SAa/eB8VXzyV4d1HacM0xD4iutRxX+zxtZIXH0qmDoyXzI+a7z0P0lNS8l5r6e1WisudW7hp6SB88p8GMaXH3Bc0MnvNVkWR3G/Vriai4VL6mTyLiSB6gNB7FjkREREREREREREREWRxe81WO5Hbr9ROIqLfUsqY/PgOpHqI1HtXS+zV9PdLRR3OkdxU9XAyeI+LHtDh7ivWoV3rtpwwvEDYrVUcN/vEbmRlp9Kmg5h8vkT81vnqfoqjw5cgrB7mezp18yh+b3ODW3Wh/BRBw5S1Wnzh5Rg6/eI8FchERERERYfNMctmWYtcMeu8XaUdbEY36fOaerXt8HNOhHmFzr2hYndMJy+vxu7s+XpX+hKBo2eM/Mkb5OH4HUdy/PBsnuuHZVQ5FZpeCrpH8QaT6MrDydG7xa4cj+PULoZs0zO0Z3iNJkVnf8lMOGWFx1fBKPnRu8x7xoehWxSMbJG6N7Q5rgQ4EagjwVLN53YtJhtdLlWNUzn43UP1nhYNfgEhPT/CJ6H6J5HlooJRERERERERERERERTtuw7FpMyrosqyWmc3G6d+sELxp8Pkaen+ED1P0jyHLVXTjY2ONsbGhrWgBoA0AA7lrm0vM7RgmI1eRXh/yUI4YoWnR9RKdeGNvmfcNT3LnnnOT3XMcprsivMvaVdW/iLQfRiYOTY2+DWjkPx6kr9dnmJ3TNsvocbtDPl6p/pyEatgjHz5HeTR+J0HeuimFY5bMSxagx60Q9lR0UQjZr8556ue7xc46knxKzCIiIiIiKJd5bZVHtDxUVltjY3IraxzqNx5duzq6Bx8D1aT0d5EqiM8UsE8kE8T4pYnFkkb28LmOB0IIPQgjTRb/ALCtp9y2a5V8Mj7SptFWWsuNG0/PaOj293G3np4jUHryvzjl6tmQ2OkvVnq46ygq4xJDNGeTgf4EdCDzBBBXrrKanrKSWkq4I56eZhjlikaHNe0jQgg8iCO5Uv3jNhNVhs0+S4rDLVY24l00A1dJQevvdF4O6t6HlzUEoiIiIiIiIiIiIinbdy2EVWZTQZLlUMtLjbSHQwHVslf6u9sXi7q7oOXNXQo6ano6SKkpII4KeFgjiijaGtY0DQAAcgAO5eTI71bMesdXerxVx0dBSRmSaaQ8mgfxJ6ADmSdAqDbdNp9y2lZUax/aU1opC5luo3H5jT1e7u43ctfAaAdOegQRS1E8cEET5ZZHBkcbG8TnuJ0AAHUk8tFe7dp2VR7PMVNZco2OyK5Ma6scOfYM6tgafAdXHvd5AKWkRERERERFWvew2MOurKjPMUpOK4Rt4rpRxN51DQP1zAOrwOo+kBr1HOpA5jUcwpT3f9sFy2bXg01SJa3HKuQGrpAdXRO6drFr0d4t6OA8dCr0Y5erXkNlprxZa2GtoKpgfDNEdQ4fyI6EHmDyK90jGSMcx7Q5rhoQRqCFWHb1u3id9RkWzuBkch1fUWcENa49SYCeTT9g8vDToqsVVPPS1MtLVQywTwvLJYpWFr2OHUOB5g+RX5oiIiIiIiIiIv1pKeerqYqWlhlnnmeGRRRMLnvcegaBzJ8grTbBd28QPgyLaLTskkGj6ezkhzWnudORycfsDl469FZ6NjI2BjGhrWjQADQALw5FerXj1lqbxeq2GioKVnHNNKdA0fzJ6ADmTyCovt/2wXLaTePg1MJaLHKSTWkpCdHSu6drLp9Lwb0aD46lRZ3anorb7p2xh1qZBnmV0nDcJG8Vro5W86dpH65wPR5HQfRB16nlZREREREREREVVd57YQ6N9Vm2EURcx2stytsLeYPV00TR+LmD1jvCq8OY1HMKQti21e/7NbwX0ZNbaJ3g1lue/Rr/ALbD9CTTv6HodeWl5dnecY7ndgZeMdrmzxcmzRO9GWB/1JG/RPuPUEhbIo52vbHMT2iwOnroDQXhreGK5UzQJRp0Dx0kb5Hn4EKnm1TY/mez6WSa5UJrbUD6FypGl0OndxjrGfvcvAlR6iIiIiIiIiKQtlex7M9oMrJrbQmitRPp3KraWw6d/AOsh+7y8SFcPZDscxPZ1TiahgNfeHN4ZblUtBlPiGDpG3yHPxJUjLWtomcY7glgfeMirmwRc2wxN9KWof8AUjb9I+4dSQFRvbRtXv8AtKvHHWE0VogeTR25j9Ws+28/Tk07+g6Dv1j3u1J0CtDuwbCHSPpc2zajLWNIltttmbzJ6tmlafxaw+s9wVqhyRERERERERERVr3id3tt1dU5XgdMyO4HWSstbNGsqD1L4u5r/FvR3doetS54ZYJ5IJ4nxTRuLJI3tLXMcORBB5gjwKzGFZXf8Ovkd5x24y0VWzk4t5slb9R7Tyc3yPs0PNXG2LbwWOZoIbTfTDY7+7RojkfpT1Lv7p56E/Udz8C5TUF8yRskjdHIxr2OBa5rhqCD3EKFtpe7fhGTulrbK12N3F+pLqRgNO8/ah5AfslvtVcM+2C7RsTMkxtBvNCzU/CrZrLoPF0enG38CPNRe9rmSOje0te06Oa4aFp8x1C/iIiIiIv6xrnyNjY0ue46Na0alx8h1KlDAdgu0XLDHMLQbNQv0Pwq56xajxbHpxu/ADzVj9mm7fhOLuirb012SXFmhDqtgFOw/Zh5g/tFymmKNkUbY42NYxoDWtaNAAO4BfShXbTvBY5hYntNiMV8v7dWmON+tPTO/vXjqR9RvPxLVTnNMrv+Y3yS85FcZa6rfyaXcmRN+oxo5Nb5D26nmsPTwy1E8cEEUkssjgyONjS5z3E6AADmSfAK2m7ru9stT6bK88pmS3AaSUdrdo5lOeofL3Of4N6N79T0soiIiIiIiIiIiIol247DrBtDikuVIY7TkTW+jWMZqyfTo2Zo+cO7iHpDzHJUtzvDcjwm9utGSW2Sjn5mN/zop2/Wjf0cPeO8BYDu0UxbJd4LL8LbFbrm52QWZmjRBUyETwt/u5TqdPsu1HhorXbNNrWE57E1llurI68jV9vqtIqhvqaTo4ebSQt7RazmGz/DMtaRkWN26vef+M+INlHqkbo4fiohyfdSw6tLpLDerrZ3nmGPLamIex2jv3lG993U84pOJ1pvNkubAeTXufTvPsIcPetNumwPaxQE8eJS1LR9KlqYZdfYHa+5YGp2XbSKfXtcFyIad7aF7h+6CvL/AGf53xcP+xeR6/8AbJv9K9VNsu2kVH6rBciPm6he0fvALPWvYHtYuBHBiUtM361VUwxaewu19y3Kw7qecVfC67XmyWxhPMMc+oePYA0e9SRi+6lh1EWyX69XW8PHMsYW00R9jdXfvKXsP2f4ZiLQMdxu3UDx/wAZkQdKfXI7Vx/FbMi0TaVtawnAonsvV1ZLXgast9LpLUO9bQdGjzcQFVHa1vBZfmjZrdbHOx+zP1aYKaQmeZv95KNDp9lug8dVDo5DQLP4JhuR5te22jG7bJWT8jI/5sUDfrSP6NHvPcCrpbDdh1g2eRMuVWY7tkTm+lWPZoyDXq2Fp+aO7iPpHyHJS0iIiIiIiIiIiIiLD5fi9hyyzS2jIbZT3Cjk58ErebT9Zrhza7zBBVT9rm7NfrG6a54RJLfLcNXGieR8LiHg3oJR6tHeRVf6iGanqJKeoikhmidwyRyNLXMPgQeYPrXyxzmPbIxzmPYeJrmnQtPiD3FS5s93htoWKtjpqusZkFAzl2NwJMjR9mUel+biU/4RvN7P72GQ3s1eOVR6/CmdpBr5SM/qDVMFkvVovdIKuz3OjuNORykpp2yN/FpK96JoERE0CIvBer1aLJSGrvFzo7dTjrJUztjb+LiFD2b7zez+yNfFZDV5HVDoKVnZwa+cj/6Q5QDtB3htoWVCSmpKxmP0D+XY28kSOH2pT6X5eFRG9znvdI9znveeJznHUuPiT3lfVPDNUVEdPTxSTTSODY442lznk9wA5k+pWA2Rbs1+vjobnm8ktjtx0cKJmnwuUeDuoiHr1d5BWwxDF7DiVmjtGPWynt9HHz4Im83H6znHm53mSSswiIiIiIiIiIiIiIiLSdpGyzC8+hJv1pZ8MDdI66nPZ1DP2x84eTtR5Ksu0Xdhy6yGWrxWpiyKiGpEPKGqaPun0X+wg+Sg66264WmvfQXShqaGrjOjoKmJ0bx7HAFeVem219dbKoVVtramhqAdRLTTOiePa0gqRcc297U7I1rGZM+4RD6FwhZPr+0dHe9SDZd7TJIeFt4xS1VgHV1LUSQE+x3GFttt3tcak0+MMTvNN49jNFKPeWrOU+9Ns1kA7SnyCE94dQtP+V5X7/pP7L9Ne2vP/wCc7/8Aq/Cfem2axg9nT5BMe4NoWj/M8LB3He1xqPX4vxO81J7u2miiHuLlqV63tMkm4m2fFLVRg9HVVRJOR7G8AUfZHt72p3prmPyZ9viP0LfCyDT9oau96jq5V9dc6o1VyramuqHHUy1MzpXn2uJK8y9Vqt1wu1eygtdDVV9W86NgponSPPsaCVOOzndhy69mOryqpix2iOhMPKaqcPuj0We0k+Ss1s22V4XgMI+IbSz4YW6SV1Qe0qH/ALZ+aPJug8luyIiIiIiIiIiIiIiIiIixGT4zj+TUJosgs1Dc4NNA2phD+H1E82nzGihbMt1fDLkXzY5crhYZTqRGT8JgHlwu9IfmUQZTuybSLUXPtjbbfYRzBpp+yk0+5Jpz9TioyyDCcwsDiL1i94oAPpy0b+D8wBb71r/E3i4eJuo7tea/uh8ERE0Pgv5xN4uHibr4a81sGP4TmF/cBZcXvFeD9OKjfwfmIDfepNxbdk2kXUtfc222xQnmTUz9rJp9yPXn63BS/hm6vhltLJsjuVwv0o0JjB+DQHy4W+kfzKacYxnH8ZoRRY/ZqG2QaaFtNCGcXrI5uPmdVl0RERERERERERERERERERERNAsJd8QxW78Xxrjdnri7qZ6KN5/EjVapXbDNlFYXOlwq3MJ74C+H/I4LDVG7bsolJLLJWQ6/8u4zD+LivN+jJst11+BXX1fGMi9NNu27KIjq+yVk3+JcZj/BwWZodhmyijIdFhVueR3zl83+dxW12fEMVs/D8VY3Z6Et6GCijYfxA1Wb0CIiIiIiIiIiIiIiIiIiIiIiIiIiIiIiIiIiIiIiIiIiIiIiIiIiIiIiIiIiIiIiIiIiIiIiIi//2Q==;" vertex="1" parent="1">
          <mxGeometry x="2630" y="870" width="250" height="250" as="geometry" />
        </mxCell>
        <mxCell id="QE7oke2RVFD652N8FTtL-44" value="&lt;font style=&quot;font-size: 24px;&quot;&gt;&lt;b style=&quot;&quot;&gt;Request (field(s) to query and value(s))&lt;/b&gt;&lt;/font&gt;" style="html=1;shadow=0;dashed=0;align=center;verticalAlign=middle;shape=mxgraph.arrows2.arrow;dy=0.6;dx=40;flipH=1;notch=0;" vertex="1" parent="1">
          <mxGeometry x="1980" y="925" width="570" height="70" as="geometry" />
        </mxCell>
      </root>
    </mxGraphModel>
  </diagram>
</mxfile>
